M48
; DRILL file {KiCad 9.0.4} date 2026-04-04T22:10:26-0500
; FORMAT={-:-/ absolute / metric / decimal}
; #@! TF.CreationDate,2026-04-04T22:10:26-05:00
; #@! TF.GenerationSoftware,Kicad,Pcbnew,9.0.4
; #@! TF.FileFunction,Plated,1,2,PTH
FMAT,2
METRIC
; #@! TA.AperFunction,Plated,PTH,ViaDrill
T1C0.300
; #@! TA.AperFunction,Plated,PTH,ViaDrill
T2C0.500
; #@! TA.AperFunction,Plated,PTH,ComponentDrill
T3C0.750
; #@! TA.AperFunction,Plated,PTH,ComponentDrill
T4C0.889
; #@! TA.AperFunction,Plated,PTH,ComponentDrill
T5C0.950
; #@! TA.AperFunction,Plated,PTH,ComponentDrill
T6C1.000
; #@! TA.AperFunction,Plated,PTH,ComponentDrill
T7C1.016
; #@! TA.AperFunction,Plated,PTH,ComponentDrill
T8C2.500
; #@! TA.AperFunction,Plated,PTH,ComponentDrill
T9C2.750
%
G90
G05
T1
X82.0Y-103.0
X86.0Y-70.0
X86.0Y-129.0
X90.0Y-117.0
X91.0Y-73.0
X93.0Y-102.0
X95.0Y-84.0
X95.0Y-104.0
X96.0Y-88.0
X97.0Y-109.0
X97.0Y-131.0
X98.0Y-92.0
X99.0Y-98.0
X99.0Y-104.0
X100.0Y-62.0
X100.0Y-76.0
X100.0Y-84.0
X102.0Y-82.0
X102.0Y-83.0
X103.0Y-93.0
X104.0Y-129.0
X104.0Y-134.0
X105.0Y-95.0
X105.0Y-104.0
X106.0Y-100.0
X108.0Y-88.0
X108.0Y-129.0
X109.0Y-81.0
X109.0Y-82.0
X109.0Y-83.0
X109.0Y-102.0
X110.0Y-96.0
X110.0Y-98.0
X114.0Y-90.0
X116.0Y-88.0
X118.0Y-87.0
X120.0Y-75.0
X120.0Y-78.0
X120.0Y-119.0
X121.0Y-139.0
X122.0Y-87.0
X122.0Y-91.0
X122.0Y-95.0
X122.0Y-102.0
X123.0Y-66.0
X123.0Y-79.0
X124.0Y-72.0
X124.0Y-75.0
X124.0Y-125.0
X125.0Y-130.0
X126.0Y-83.0
X127.0Y-80.0
X127.0Y-93.0
X127.0Y-103.0
X128.0Y-93.0
X128.0Y-104.0
X128.0Y-118.0
X130.0Y-71.0
X130.0Y-90.0
X130.0Y-93.0
X130.0Y-96.0
X130.0Y-106.0
X130.0Y-111.0
X130.0Y-130.0
X130.816Y-139.816
X131.0Y-128.0
X131.0Y-137.0
X132.0Y-134.183
X133.0Y-98.0
X135.0Y-140.0
X136.0Y-119.0
T2
X100.0Y-114.0
X101.0Y-113.0
X102.0Y-112.0
T3
X88.0Y-76.0
X88.0Y-78.0
X88.0Y-80.0
X88.0Y-82.0
X88.0Y-84.0
X88.0Y-86.0
X88.0Y-88.0
X88.0Y-90.0
T4
X85.0Y-98.0
X87.5Y-98.0
X90.0Y-98.0
T5
X87.25Y-138.0
X89.75Y-138.0
X92.25Y-138.0
X94.75Y-138.0
T6
X88.532Y-107.75
X88.532Y-110.25
X104.76Y-68.08
X104.76Y-70.62
X104.76Y-73.16
X104.76Y-75.7
X105.0Y-138.46
X105.0Y-141.0
X105.0Y-143.54
X107.3Y-68.08
X107.3Y-70.62
X107.3Y-73.16
X107.3Y-75.7
X109.0Y-138.46
X109.0Y-141.0
X109.0Y-143.54
X109.84Y-68.08
X109.84Y-70.62
X109.84Y-73.16
X109.84Y-75.7
X113.0Y-138.46
X113.0Y-141.0
X113.0Y-143.54
X117.0Y-138.46
X117.0Y-141.0
X117.0Y-143.54
X124.0Y-135.92
X124.0Y-138.46
X124.0Y-141.0
X124.0Y-143.54
X128.0Y-135.92
X128.0Y-138.46
X128.0Y-141.0
X128.0Y-143.54
T7
X109.84Y-63.0
X112.38Y-63.0
X114.92Y-63.0
X117.46Y-63.0
X120.0Y-63.0
X122.54Y-63.0
X131.73Y-68.87
X131.73Y-71.41
X131.73Y-73.95
X131.73Y-76.49
X131.73Y-79.03
X131.73Y-81.57
X131.73Y-84.11
X131.73Y-86.65
X131.73Y-89.19
X131.73Y-91.73
X131.73Y-94.27
X131.73Y-96.81
X131.73Y-99.35
X131.73Y-101.89
X131.73Y-104.43
X131.73Y-106.97
X131.73Y-109.51
X131.73Y-112.05
X131.73Y-114.59
X131.73Y-117.13
X134.27Y-68.87
X134.27Y-71.41
X134.27Y-73.95
X134.27Y-76.49
X134.27Y-79.03
X134.27Y-81.57
X134.27Y-84.11
X134.27Y-86.65
X134.27Y-89.19
X134.27Y-91.73
X134.27Y-94.27
X134.27Y-96.81
X134.27Y-99.35
X134.27Y-101.89
X134.27Y-104.43
X134.27Y-106.97
X134.27Y-109.51
X134.27Y-112.05
X134.27Y-114.59
X134.27Y-117.13
T8
X106.538Y-64.27
X106.538Y-120.15
X125.588Y-64.27
X125.588Y-120.15
T9
X84.0Y-64.0
X84.0Y-122.0
X133.0Y-64.0
X133.0Y-122.0
M30
