%TF.GenerationSoftware,KiCad,Pcbnew,9.0.4*%
%TF.CreationDate,2026-04-04T22:13:27-05:00*%
%TF.ProjectId,RaspberyBoardV1,52617370-6265-4727-9942-6f6172645631,rev?*%
%TF.SameCoordinates,Original*%
%TF.FileFunction,Copper,L2,Bot*%
%TF.FilePolarity,Positive*%
%FSLAX46Y46*%
G04 Gerber Fmt 4.6, Leading zero omitted, Abs format (unit mm)*
G04 Created by KiCad (PCBNEW 9.0.4) date 2026-04-04 22:13:27*
%MOMM*%
%LPD*%
G01*
G04 APERTURE LIST*
G04 Aperture macros list*
%AMRoundRect*
0 Rectangle with rounded corners*
0 $1 Rounding radius*
0 $2 $3 $4 $5 $6 $7 $8 $9 X,Y pos of 4 corners*
0 Add a 4 corners polygon primitive as box body*
4,1,4,$2,$3,$4,$5,$6,$7,$8,$9,$2,$3,0*
0 Add four circle primitives for the rounded corners*
1,1,$1+$1,$2,$3*
1,1,$1+$1,$4,$5*
1,1,$1+$1,$6,$7*
1,1,$1+$1,$8,$9*
0 Add four rect primitives between the rounded corners*
20,1,$1+$1,$2,$3,$4,$5,0*
20,1,$1+$1,$4,$5,$6,$7,0*
20,1,$1+$1,$6,$7,$8,$9,0*
20,1,$1+$1,$8,$9,$2,$3,0*%
G04 Aperture macros list end*
%TA.AperFunction,ComponentPad*%
%ADD10C,1.524000*%
%TD*%
%TA.AperFunction,ComponentPad*%
%ADD11R,1.524000X1.524000*%
%TD*%
%TA.AperFunction,ComponentPad*%
%ADD12C,6.200000*%
%TD*%
%TA.AperFunction,ComponentPad*%
%ADD13R,1.700000X1.700000*%
%TD*%
%TA.AperFunction,ComponentPad*%
%ADD14C,1.700000*%
%TD*%
%TA.AperFunction,ComponentPad*%
%ADD15RoundRect,0.250000X0.600000X0.725000X-0.600000X0.725000X-0.600000X-0.725000X0.600000X-0.725000X0*%
%TD*%
%TA.AperFunction,ComponentPad*%
%ADD16O,1.700000X1.950000*%
%TD*%
%TA.AperFunction,ComponentPad*%
%ADD17C,1.778000*%
%TD*%
%TA.AperFunction,ComponentPad*%
%ADD18C,3.200000*%
%TD*%
%TA.AperFunction,ComponentPad*%
%ADD19C,1.397000*%
%TD*%
%TA.AperFunction,ComponentPad*%
%ADD20RoundRect,0.250000X0.750000X-0.600000X0.750000X0.600000X-0.750000X0.600000X-0.750000X-0.600000X0*%
%TD*%
%TA.AperFunction,ComponentPad*%
%ADD21O,2.000000X1.700000*%
%TD*%
%TA.AperFunction,ComponentPad*%
%ADD22RoundRect,0.250000X-0.625000X0.350000X-0.625000X-0.350000X0.625000X-0.350000X0.625000X0.350000X0*%
%TD*%
%TA.AperFunction,ComponentPad*%
%ADD23O,1.750000X1.200000*%
%TD*%
%TA.AperFunction,ViaPad*%
%ADD24C,0.600000*%
%TD*%
%TA.AperFunction,ViaPad*%
%ADD25C,0.900000*%
%TD*%
%TA.AperFunction,ViaPad*%
%ADD26C,1.000000*%
%TD*%
%TA.AperFunction,Conductor*%
%ADD27C,0.200000*%
%TD*%
%TA.AperFunction,Conductor*%
%ADD28C,0.500000*%
%TD*%
%TA.AperFunction,Conductor*%
%ADD29C,1.500000*%
%TD*%
%TA.AperFunction,Conductor*%
%ADD30C,1.000000*%
%TD*%
G04 APERTURE END LIST*
D10*
%TO.P,REF\u002A\u002A,2*%
%TO.N,5V2*%
X134270000Y-68870000D03*
D11*
%TO.P,REF\u002A\u002A,1*%
%TO.N,N/C*%
X131730000Y-68870000D03*
D10*
%TO.P,REF\u002A\u002A,3*%
%TO.N,SDA*%
X131730000Y-71410000D03*
%TO.P,REF\u002A\u002A,4*%
%TO.N,N/C*%
X134270000Y-71410000D03*
%TO.P,REF\u002A\u002A,5*%
%TO.N,SCL*%
X131730000Y-73950000D03*
%TO.P,REF\u002A\u002A,6*%
%TO.N,GND*%
X134270000Y-73950000D03*
%TO.P,REF\u002A\u002A,7*%
%TO.N,N/C*%
X131730000Y-76490000D03*
%TO.P,REF\u002A\u002A,8*%
%TO.N,TX*%
X134270000Y-76490000D03*
%TO.P,REF\u002A\u002A,9*%
%TO.N,GND*%
X131730000Y-79030000D03*
%TO.P,REF\u002A\u002A,10*%
%TO.N,RX*%
X134270000Y-79030000D03*
%TO.P,REF\u002A\u002A,11*%
%TO.N,ECHO1.3v*%
X131730000Y-81570000D03*
%TO.P,REF\u002A\u002A,12*%
%TO.N,N/C*%
X134270000Y-81570000D03*
%TO.P,REF\u002A\u002A,13*%
%TO.N,trig1*%
X131730000Y-84110000D03*
%TO.P,REF\u002A\u002A,14*%
%TO.N,GND*%
X134270000Y-84110000D03*
%TO.P,REF\u002A\u002A,15*%
%TO.N,KILLSWITCH*%
X131730000Y-86650000D03*
%TO.P,REF\u002A\u002A,16*%
%TO.N,trig2*%
X134270000Y-86650000D03*
%TO.P,REF\u002A\u002A,17*%
%TO.N,N/C*%
X131730000Y-89190000D03*
%TO.P,REF\u002A\u002A,18*%
%TO.N,ECHO2.3v*%
X134270000Y-89190000D03*
%TO.P,REF\u002A\u002A,19*%
%TO.N,MOSI*%
X131730000Y-91730000D03*
%TO.P,REF\u002A\u002A,20*%
%TO.N,GND*%
X134270000Y-91730000D03*
%TO.P,REF\u002A\u002A,21*%
%TO.N,MISO*%
X131730000Y-94270000D03*
%TO.P,REF\u002A\u002A,22*%
%TO.N,N/C*%
X134270000Y-94270000D03*
%TO.P,REF\u002A\u002A,23*%
%TO.N,SCK*%
X131730000Y-96810000D03*
%TO.P,REF\u002A\u002A,24*%
%TO.N,N/C*%
X134270000Y-96810000D03*
%TO.P,REF\u002A\u002A,25*%
%TO.N,GND*%
X131730000Y-99350000D03*
%TO.P,REF\u002A\u002A,26*%
%TO.N,SS*%
X134270000Y-99350000D03*
%TO.P,REF\u002A\u002A,27*%
%TO.N,N/C*%
X131730000Y-101890000D03*
%TO.P,REF\u002A\u002A,28*%
X134270000Y-101890000D03*
%TO.P,REF\u002A\u002A,29*%
X131730000Y-104430000D03*
%TO.P,REF\u002A\u002A,30*%
%TO.N,GND*%
X134270000Y-104430000D03*
%TO.P,REF\u002A\u002A,31*%
%TO.N,N/C*%
X131730000Y-106970000D03*
%TO.P,REF\u002A\u002A,32*%
X134270000Y-106970000D03*
%TO.P,REF\u002A\u002A,33*%
X131730000Y-109510000D03*
%TO.P,REF\u002A\u002A,34*%
%TO.N,GND*%
X134270000Y-109510000D03*
%TO.P,REF\u002A\u002A,35*%
%TO.N,N/C*%
X131730000Y-112050000D03*
%TO.P,REF\u002A\u002A,36*%
X134270000Y-112050000D03*
%TO.P,REF\u002A\u002A,37*%
X131730000Y-114590000D03*
%TO.P,REF\u002A\u002A,38*%
X134270000Y-114590000D03*
%TO.P,REF\u002A\u002A,39*%
%TO.N,GND*%
X131730000Y-117130000D03*
%TO.P,REF\u002A\u002A,40*%
%TO.N,N/C*%
X134270000Y-117130000D03*
D12*
%TO.P,REF\u002A\u002A,S1*%
X133000000Y-64000000D03*
%TO.P,REF\u002A\u002A,S2*%
X133000000Y-122000000D03*
%TO.P,REF\u002A\u002A,S3*%
X84000000Y-122000000D03*
%TO.P,REF\u002A\u002A,S4*%
X84000000Y-64000000D03*
%TD*%
D13*
%TO.P,J2,1*%
%TO.N,PWM2*%
X109000000Y-138460000D03*
D14*
%TO.P,J2,2*%
%TO.N,5V2*%
X109000000Y-141000000D03*
%TO.P,J2,3*%
%TO.N,GND*%
X109000000Y-143540000D03*
%TD*%
D15*
%TO.P,REF\u002A\u002A,1*%
%TO.N,GND*%
X94750000Y-138000000D03*
D16*
%TO.P,REF\u002A\u002A,2*%
%TO.N,VCC1*%
X92250000Y-138000000D03*
%TO.P,REF\u002A\u002A,3*%
%TO.N,SCL*%
X89750000Y-138000000D03*
%TO.P,REF\u002A\u002A,4*%
%TO.N,SDA*%
X87250000Y-138000000D03*
%TD*%
D13*
%TO.P,US2,1*%
%TO.N,GND*%
X128000000Y-135920000D03*
D14*
%TO.P,US2,2*%
%TO.N,ECHO2*%
X128000000Y-138460000D03*
%TO.P,US2,3*%
%TO.N,trig2*%
X128000000Y-141000000D03*
%TO.P,US2,4*%
%TO.N,5V2*%
X128000000Y-143540000D03*
%TD*%
D17*
%TO.P,U1,0,PWM_0*%
%TO.N,PWM1*%
X109840000Y-68080000D03*
%TO.P,U1,1,PWM_1*%
%TO.N,PWM2*%
X109840000Y-70620000D03*
%TO.P,U1,2,PWM_2*%
%TO.N,PWM3*%
X109840000Y-73160000D03*
%TO.P,U1,3,PWM_3*%
%TO.N,PWM4*%
X109840000Y-75700000D03*
%TO.P,U1,GND_1,GND*%
%TO.N,GND*%
X122540000Y-63000000D03*
%TO.P,U1,GND_3,GND*%
X104760000Y-68080000D03*
%TO.P,U1,GND_4,GND*%
X104760000Y-70620000D03*
%TO.P,U1,GND_5,GND*%
X104760000Y-73160000D03*
%TO.P,U1,GND_6,GND*%
X104760000Y-75700000D03*
%TO.P,U1,OE_1,~{OE}*%
%TO.N,Net-(U1-~{OE}-PadOE_1)*%
X120000000Y-63000000D03*
D18*
%TO.P,U1,S1*%
%TO.N,N/C*%
X125588000Y-64270000D03*
%TO.P,U1,S2*%
X125588000Y-120150000D03*
%TO.P,U1,S3*%
X106538000Y-64270000D03*
%TO.P,U1,S4*%
X106538000Y-120150000D03*
D17*
%TO.P,U1,SCL_1,SCL*%
%TO.N,SCL*%
X117460000Y-63000000D03*
%TO.P,U1,SDA_1,SDA*%
%TO.N,SDA*%
X114920000Y-63000000D03*
%TO.P,U1,V+_1,V+*%
%TO.N,V+*%
X109840000Y-63000000D03*
%TO.P,U1,V+_3,V+*%
X107300000Y-68080000D03*
%TO.P,U1,V+_4,V+*%
X107300000Y-70620000D03*
%TO.P,U1,V+_5,V+*%
X107300000Y-73160000D03*
%TO.P,U1,V+_6,V+*%
X107300000Y-75700000D03*
%TO.P,U1,VCC_1,VCC*%
%TO.N,5V2*%
X112380000Y-63000000D03*
%TD*%
D13*
%TO.P,J1,1*%
%TO.N,PWM1*%
X105000000Y-138460000D03*
D14*
%TO.P,J1,2*%
%TO.N,5V2*%
X105000000Y-141000000D03*
%TO.P,J1,3*%
%TO.N,GND*%
X105000000Y-143540000D03*
%TD*%
D19*
%TO.P,KILL SWITCH,1*%
%TO.N,KS5V*%
X85000000Y-98000000D03*
%TO.P,KILL SWITCH,2*%
%TO.N,5V2*%
X87500000Y-98000000D03*
%TO.P,KILL SWITCH,3*%
%TO.N,GND*%
X90000000Y-98000000D03*
%TD*%
D13*
%TO.P,J4,1*%
%TO.N,PWM4*%
X117000000Y-138460000D03*
D14*
%TO.P,J4,2*%
%TO.N,5V2*%
X117000000Y-141000000D03*
%TO.P,J4,3*%
%TO.N,GND*%
X117000000Y-143540000D03*
%TD*%
D20*
%TO.P,REF\u002A\u002A,1*%
%TO.N,GND*%
X88532500Y-110250000D03*
D21*
%TO.P,REF\u002A\u002A,2*%
%TO.N,VCC1*%
X88532500Y-107750000D03*
%TD*%
D22*
%TO.P,REF\u002A\u002A,1*%
%TO.N,MISO*%
X88000000Y-76000000D03*
D23*
%TO.P,REF\u002A\u002A,2*%
%TO.N,MOSI*%
X88000000Y-78000000D03*
%TO.P,REF\u002A\u002A,3*%
%TO.N,SCK*%
X88000000Y-80000000D03*
%TO.P,REF\u002A\u002A,4*%
%TO.N,SS*%
X88000000Y-82000000D03*
%TO.P,REF\u002A\u002A,5*%
%TO.N,SDA*%
X88000000Y-84000000D03*
%TO.P,REF\u002A\u002A,6*%
%TO.N,SCL*%
X88000000Y-86000000D03*
%TO.P,REF\u002A\u002A,7*%
%TO.N,RX*%
X88000000Y-88000000D03*
%TO.P,REF\u002A\u002A,8*%
%TO.N,TX*%
X88000000Y-90000000D03*
%TD*%
D13*
%TO.P,J3,1*%
%TO.N,PWM3*%
X113000000Y-138460000D03*
D14*
%TO.P,J3,2*%
%TO.N,5V2*%
X113000000Y-141000000D03*
%TO.P,J3,3*%
%TO.N,GND*%
X113000000Y-143540000D03*
%TD*%
D13*
%TO.P,US1,1*%
%TO.N,GND*%
X124000000Y-135920000D03*
D14*
%TO.P,US1,2*%
%TO.N,ECHO1*%
X124000000Y-138460000D03*
%TO.P,US1,3*%
%TO.N,trig1*%
X124000000Y-141000000D03*
%TO.P,US1,4*%
%TO.N,5V2*%
X124000000Y-143540000D03*
%TD*%
D24*
%TO.N,GND*%
X130000000Y-93000000D03*
X130000000Y-106000000D03*
X130000000Y-111000000D03*
X130000000Y-96000000D03*
X121000000Y-139000000D03*
X99000000Y-104000000D03*
X97000000Y-109000000D03*
X136000000Y-119000000D03*
X105000000Y-95000000D03*
X108000000Y-129000000D03*
X108000000Y-88000000D03*
X122000000Y-95000000D03*
X127000000Y-103000000D03*
X104000000Y-134000000D03*
X97000000Y-131000000D03*
X125000000Y-130000000D03*
X135000000Y-140000000D03*
X105000000Y-104000000D03*
X86000000Y-70000000D03*
X100000000Y-62000000D03*
X90000000Y-117000000D03*
X123000000Y-66000000D03*
X120000000Y-78000000D03*
X106000000Y-100000000D03*
X122000000Y-87000000D03*
X120000000Y-75000000D03*
X124000000Y-125000000D03*
X126000000Y-83000000D03*
X127000000Y-80000000D03*
X131000000Y-128000000D03*
X99000000Y-98000000D03*
X120000000Y-119000000D03*
X82000000Y-103000000D03*
X133000000Y-98000000D03*
X131000000Y-137000000D03*
X91000000Y-73000000D03*
X104000000Y-129000000D03*
X86000000Y-129000000D03*
X130000000Y-71000000D03*
X128000000Y-118000000D03*
X93000000Y-102000000D03*
X100000000Y-76000000D03*
D25*
%TO.N,5V2*%
X101000000Y-113000000D03*
X102000000Y-112000000D03*
D26*
X100000000Y-114000000D03*
D24*
%TO.N,SCL*%
X103000000Y-93000000D03*
X130816143Y-139816143D03*
X118000000Y-87000000D03*
X132000000Y-134183300D03*
X116000000Y-88000000D03*
X124000000Y-72000000D03*
X114000000Y-90000000D03*
X123000000Y-79000000D03*
%TO.N,SDA*%
X109000000Y-81000000D03*
X124000000Y-75000000D03*
X96000000Y-88000000D03*
X95000000Y-84000000D03*
X100000000Y-84000000D03*
%TO.N,MOSI*%
X109000000Y-83000000D03*
X122000000Y-91000000D03*
X102000000Y-83000000D03*
%TO.N,SCK*%
X110000000Y-96000000D03*
%TO.N,MISO*%
X109000000Y-82000000D03*
X102000000Y-82000000D03*
%TO.N,SS*%
X110000000Y-98000000D03*
X98000000Y-92000000D03*
%TO.N,KILLSWITCH*%
X109000000Y-102000000D03*
X122000000Y-102000000D03*
X95000000Y-104000000D03*
X127000000Y-93000000D03*
%TO.N,ECHO2.3v*%
X130000000Y-130000000D03*
%TO.N,ECHO1.3v*%
X128000000Y-93000000D03*
X130000000Y-90000000D03*
X128000000Y-104000000D03*
%TD*%
D27*
%TO.N,GND*%
X133000000Y-93000000D02*
X130000000Y-93000000D01*
X134270000Y-91730000D02*
X133000000Y-93000000D01*
X133203800Y-105496200D02*
X134270000Y-104430000D01*
X130503800Y-105496200D02*
X133203800Y-105496200D01*
X130000000Y-106000000D02*
X130503800Y-105496200D01*
X132796200Y-110983800D02*
X134270000Y-109510000D01*
X130016200Y-110983800D02*
X132796200Y-110983800D01*
X130000000Y-111000000D02*
X130016200Y-110983800D01*
X133000000Y-98000000D02*
X130000000Y-98000000D01*
X136000000Y-119000000D02*
X135595800Y-118595800D01*
X128595800Y-118595800D02*
X128000000Y-118000000D01*
X135595800Y-118595800D02*
X128595800Y-118595800D01*
D28*
%TO.N,5V2*%
X124000000Y-143540000D02*
X119540000Y-143540000D01*
D29*
X100000000Y-114000000D02*
X101000000Y-113000000D01*
X113000000Y-141000000D02*
X117000000Y-141000000D01*
X109000000Y-141000000D02*
X113000000Y-141000000D01*
X105000000Y-141000000D02*
X109000000Y-141000000D01*
D28*
X124000000Y-143540000D02*
X128000000Y-143540000D01*
D30*
X101000000Y-113000000D02*
X102000000Y-112000000D01*
D29*
X103797919Y-141000000D02*
X105000000Y-141000000D01*
X100000000Y-137202081D02*
X103797919Y-141000000D01*
X100000000Y-114000000D02*
X100000000Y-137202081D01*
D28*
X119540000Y-143540000D02*
X117000000Y-141000000D01*
D27*
%TO.N,SCL*%
X127230000Y-72770000D02*
X126460000Y-72000000D01*
X127230000Y-72770000D02*
X117460000Y-63000000D01*
X120000000Y-85000000D02*
X118000000Y-87000000D01*
X128410000Y-73950000D02*
X127230000Y-72770000D01*
X123000000Y-82000000D02*
X120000000Y-85000000D01*
X132000000Y-134183300D02*
X132000000Y-138632286D01*
X132000000Y-138632286D02*
X130816143Y-139816143D01*
X114000000Y-90000000D02*
X116000000Y-88000000D01*
X126460000Y-72000000D02*
X124000000Y-72000000D01*
X123000000Y-79000000D02*
X123000000Y-82000000D01*
X88000000Y-86000000D02*
X96000000Y-86000000D01*
X131730000Y-73950000D02*
X128410000Y-73950000D01*
X96000000Y-86000000D02*
X103000000Y-93000000D01*
%TO.N,SDA*%
X114920000Y-63000000D02*
X114920000Y-65920000D01*
X93000000Y-104000000D02*
X96000000Y-101000000D01*
X93000000Y-114000000D02*
X93000000Y-104000000D01*
X100000000Y-83000000D02*
X102000000Y-81000000D01*
X114920000Y-65920000D02*
X124000000Y-75000000D01*
X102000000Y-81000000D02*
X109000000Y-81000000D01*
X87250000Y-138000000D02*
X93000000Y-132250000D01*
X93000000Y-132250000D02*
X93000000Y-114000000D01*
X100000000Y-84000000D02*
X100000000Y-83000000D01*
X88000000Y-84000000D02*
X95000000Y-84000000D01*
X96000000Y-101000000D02*
X96000000Y-88000000D01*
%TO.N,PWM1*%
X111033200Y-69273200D02*
X111033200Y-132426800D01*
X109840000Y-68080000D02*
X111033200Y-69273200D01*
X111033200Y-132426800D02*
X105000000Y-138460000D01*
%TO.N,PWM2*%
X111437400Y-136022600D02*
X109000000Y-138460000D01*
X109840000Y-70620000D02*
X108646800Y-69426800D01*
X109345760Y-66886800D02*
X110334240Y-66886800D01*
X111437400Y-67989960D02*
X111437400Y-136022600D01*
X108646800Y-69426800D02*
X108646800Y-67585760D01*
X108646800Y-67585760D02*
X109345760Y-66886800D01*
X110334240Y-66886800D02*
X111437400Y-67989960D01*
%TO.N,PWM3*%
X110501666Y-66482600D02*
X113000000Y-68980934D01*
X107209960Y-66482600D02*
X110501666Y-66482600D01*
X106106800Y-67585760D02*
X107209960Y-66482600D01*
X113000000Y-68980934D02*
X113000000Y-138460000D01*
X108646800Y-70125760D02*
X107794240Y-69273200D01*
X108646800Y-71966800D02*
X108646800Y-70125760D01*
X107794240Y-69273200D02*
X106805760Y-69273200D01*
X106106800Y-68574240D02*
X106106800Y-67585760D01*
X106805760Y-69273200D02*
X106106800Y-68574240D01*
X109840000Y-73160000D02*
X108646800Y-71966800D01*
%TO.N,PWM4*%
X105254240Y-69273200D02*
X104265760Y-69273200D01*
X105749254Y-62365800D02*
X107326746Y-62365800D01*
X106106800Y-70125760D02*
X105254240Y-69273200D01*
X103566800Y-64548254D02*
X105749254Y-62365800D01*
X104265760Y-69273200D02*
X103566800Y-68574240D01*
X103566800Y-68574240D02*
X103566800Y-64548254D01*
X117000000Y-72039054D02*
X117000000Y-138460000D01*
X107326746Y-62365800D02*
X117000000Y-72039054D01*
X109840000Y-75700000D02*
X107770000Y-77770000D01*
X106106800Y-77213600D02*
X106106800Y-70125760D01*
X107770000Y-77770000D02*
X106663200Y-77770000D01*
X106663200Y-77770000D02*
X106106800Y-77213600D01*
%TO.N,MOSI*%
X102000000Y-83000000D02*
X109000000Y-83000000D01*
X122000000Y-91000000D02*
X122730000Y-91730000D01*
X122730000Y-91730000D02*
X131730000Y-91730000D01*
%TO.N,TX*%
X86416600Y-88416600D02*
X88000000Y-90000000D01*
X87350468Y-77095800D02*
X86416600Y-78029668D01*
X89876003Y-77095800D02*
X87350468Y-77095800D01*
X133203800Y-75423800D02*
X125666786Y-75423800D01*
X112470040Y-61402600D02*
X105569203Y-61402600D01*
X105569203Y-61402600D02*
X89876003Y-77095800D01*
X134270000Y-76490000D02*
X133203800Y-75423800D01*
X123714786Y-75604200D02*
X113573200Y-65462614D01*
X113573200Y-65462614D02*
X113573200Y-62505760D01*
X113573200Y-62505760D02*
X112470040Y-61402600D01*
X125486386Y-75604200D02*
X123714786Y-75604200D01*
X86416600Y-78029668D02*
X86416600Y-88416600D01*
X125666786Y-75423800D02*
X125486386Y-75604200D01*
%TO.N,SCK*%
X88000000Y-80000000D02*
X94000000Y-80000000D01*
X94000000Y-80000000D02*
X110000000Y-96000000D01*
%TO.N,MISO*%
X102000000Y-82000000D02*
X109000000Y-82000000D01*
%TO.N,RX*%
X103162600Y-64380828D02*
X105736628Y-61806800D01*
X105736628Y-61806800D02*
X110334240Y-61806800D01*
X111033200Y-62505760D02*
X111033200Y-63494240D01*
X88000000Y-88000000D02*
X86820800Y-86820800D01*
X125502760Y-77963800D02*
X133203800Y-77963800D01*
X92808465Y-79095800D02*
X103162600Y-68741665D01*
X103162600Y-68741665D02*
X103162600Y-64380828D01*
X86820800Y-79625468D02*
X87350468Y-79095800D01*
X133203800Y-77963800D02*
X134270000Y-79030000D01*
X111033200Y-63494240D02*
X125502760Y-77963800D01*
X110334240Y-61806800D02*
X111033200Y-62505760D01*
X87350468Y-79095800D02*
X92808465Y-79095800D01*
X86820800Y-86820800D02*
X86820800Y-79625468D01*
%TO.N,SS*%
X104000000Y-98000000D02*
X110000000Y-98000000D01*
X98000000Y-92000000D02*
X104000000Y-98000000D01*
%TO.N,KILLSWITCH*%
X122000000Y-102000000D02*
X127000000Y-97000000D01*
X127000000Y-97000000D02*
X127000000Y-93000000D01*
X95000000Y-104000000D02*
X97000000Y-102000000D01*
X97000000Y-102000000D02*
X109000000Y-102000000D01*
%TO.N,ECHO2.3v*%
X135336200Y-90256200D02*
X135336200Y-115311635D01*
X124936200Y-116063800D02*
X122000000Y-119000000D01*
X122000000Y-123000000D02*
X122000000Y-124000000D01*
X135336200Y-115311635D02*
X134584035Y-116063800D01*
X128000000Y-130000000D02*
X130000000Y-130000000D01*
X122000000Y-124000000D02*
X128000000Y-130000000D01*
X134584035Y-116063800D02*
X124936200Y-116063800D01*
X122000000Y-119000000D02*
X122000000Y-123000000D01*
X134270000Y-89190000D02*
X135336200Y-90256200D01*
%TO.N,ECHO1.3v*%
X130000000Y-90000000D02*
X130000000Y-83300000D01*
X128000000Y-104000000D02*
X128000000Y-93000000D01*
X130000000Y-83300000D02*
X131730000Y-81570000D01*
%TD*%
%TA.AperFunction,Conductor*%
%TO.N,GND*%
G36*
X131434395Y-60545185D02*
G01*
X131480150Y-60597989D01*
X131490094Y-60667147D01*
X131461069Y-60730703D01*
X131425809Y-60758858D01*
X131146752Y-60908017D01*
X131146734Y-60908028D01*
X130852606Y-61104558D01*
X130852592Y-61104568D01*
X130579130Y-61328992D01*
X130328992Y-61579130D01*
X130104568Y-61852592D01*
X130104558Y-61852606D01*
X129908028Y-62146734D01*
X129908017Y-62146752D01*
X129741264Y-62458723D01*
X129741262Y-62458728D01*
X129605882Y-62785563D01*
X129503188Y-63124104D01*
X129503185Y-63124115D01*
X129434176Y-63471053D01*
X129434173Y-63471070D01*
X129411138Y-63704960D01*
X129399500Y-63823119D01*
X129399500Y-64176881D01*
X129403649Y-64219004D01*
X129434173Y-64528929D01*
X129434176Y-64528946D01*
X129503185Y-64875884D01*
X129503188Y-64875895D01*
X129605882Y-65214436D01*
X129741262Y-65541271D01*
X129741264Y-65541276D01*
X129908017Y-65853247D01*
X129908028Y-65853265D01*
X130104558Y-66147393D01*
X130104568Y-66147407D01*
X130328992Y-66420869D01*
X130579130Y-66671007D01*
X130579135Y-66671011D01*
X130579136Y-66671012D01*
X130852598Y-66895436D01*
X131146741Y-67091976D01*
X131146750Y-67091981D01*
X131146752Y-67091982D01*
X131458723Y-67258735D01*
X131458725Y-67258735D01*
X131458731Y-67258739D01*
X131724780Y-67368940D01*
X131779182Y-67412780D01*
X131801247Y-67479074D01*
X131783968Y-67546773D01*
X131732831Y-67594384D01*
X131677326Y-67607500D01*
X130920129Y-67607500D01*
X130920123Y-67607501D01*
X130860516Y-67613908D01*
X130725671Y-67664202D01*
X130725664Y-67664206D01*
X130610455Y-67750452D01*
X130610452Y-67750455D01*
X130524206Y-67865664D01*
X130524202Y-67865671D01*
X130473908Y-68000517D01*
X130467501Y-68060116D01*
X130467501Y-68060123D01*
X130467500Y-68060135D01*
X130467500Y-69679870D01*
X130467501Y-69679876D01*
X130473908Y-69739483D01*
X130524202Y-69874328D01*
X130524206Y-69874335D01*
X130610452Y-69989544D01*
X130610455Y-69989547D01*
X130725664Y-70075793D01*
X130725671Y-70075797D01*
X130860517Y-70126091D01*
X130860516Y-70126091D01*
X130867444Y-70126835D01*
X130920127Y-70132500D01*
X130958801Y-70132499D01*
X131025838Y-70152182D01*
X131071594Y-70204985D01*
X131081539Y-70274143D01*
X131052516Y-70337699D01*
X131031687Y-70356816D01*
X130907542Y-70447014D01*
X130907533Y-70447021D01*
X130767021Y-70587533D01*
X130650213Y-70748305D01*
X130559994Y-70925367D01*
X130559993Y-70925370D01*
X130498587Y-71114362D01*
X130467500Y-71310639D01*
X130467500Y-71509360D01*
X130498587Y-71705637D01*
X130559993Y-71894629D01*
X130559994Y-71894632D01*
X130650213Y-72071694D01*
X130767019Y-72232464D01*
X130907536Y-72372981D01*
X131068306Y-72489787D01*
X131186832Y-72550179D01*
X131224780Y-72569515D01*
X131275576Y-72617490D01*
X131292371Y-72685311D01*
X131269833Y-72751446D01*
X131224780Y-72790485D01*
X131068305Y-72870213D01*
X130907533Y-72987021D01*
X130767021Y-73127533D01*
X130650210Y-73288309D01*
X130649000Y-73290285D01*
X130648343Y-73290878D01*
X130647349Y-73292248D01*
X130647061Y-73292039D01*
X130597190Y-73337163D01*
X130543270Y-73349500D01*
X128710097Y-73349500D01*
X128643058Y-73329815D01*
X128622416Y-73313181D01*
X127717590Y-72408355D01*
X127717588Y-72408352D01*
X123817843Y-68508607D01*
X119910415Y-64601180D01*
X119876931Y-64539858D01*
X119881915Y-64470166D01*
X119923787Y-64414233D01*
X119989251Y-64389816D01*
X119998097Y-64389500D01*
X120109361Y-64389500D01*
X120214082Y-64372912D01*
X120325375Y-64355286D01*
X120533383Y-64287701D01*
X120728257Y-64188407D01*
X120854373Y-64096779D01*
X120905193Y-64059857D01*
X120905195Y-64059854D01*
X120905199Y-64059852D01*
X121059852Y-63905199D01*
X121169991Y-63753603D01*
X121225320Y-63710939D01*
X121294933Y-63704960D01*
X121356729Y-63737565D01*
X121370628Y-63753606D01*
X121396806Y-63789638D01*
X121396807Y-63789638D01*
X122050504Y-63135941D01*
X122066619Y-63196081D01*
X122133498Y-63311920D01*
X122228080Y-63406502D01*
X122343919Y-63473381D01*
X122404057Y-63489494D01*
X121750360Y-64143190D01*
X121750360Y-64143191D01*
X121812008Y-64187980D01*
X122006808Y-64287237D01*
X122006811Y-64287238D01*
X122214740Y-64354797D01*
X122430684Y-64389000D01*
X122649316Y-64389000D01*
X122865259Y-64354797D01*
X123073188Y-64287238D01*
X123073191Y-64287237D01*
X123267995Y-64187978D01*
X123290614Y-64171545D01*
X123356420Y-64148065D01*
X123424474Y-64163890D01*
X123473169Y-64213995D01*
X123487500Y-64271863D01*
X123487500Y-64407667D01*
X123487501Y-64407684D01*
X123523438Y-64680655D01*
X123523439Y-64680660D01*
X123523440Y-64680666D01*
X123559072Y-64813649D01*
X123594704Y-64946630D01*
X123700075Y-65201017D01*
X123700080Y-65201028D01*
X123733515Y-65258938D01*
X123837751Y-65439479D01*
X123837753Y-65439482D01*
X123837754Y-65439483D01*
X124005370Y-65657926D01*
X124005376Y-65657933D01*
X124200066Y-65852623D01*
X124200073Y-65852629D01*
X124238069Y-65881784D01*
X124418521Y-66020249D01*
X124571778Y-66108732D01*
X124656971Y-66157919D01*
X124656976Y-66157921D01*
X124656979Y-66157923D01*
X124911368Y-66263295D01*
X125177334Y-66334560D01*
X125450326Y-66370500D01*
X125450333Y-66370500D01*
X125725667Y-66370500D01*
X125725674Y-66370500D01*
X125998666Y-66334560D01*
X126264632Y-66263295D01*
X126519021Y-66157923D01*
X126757479Y-66020249D01*
X126975928Y-65852628D01*
X127170628Y-65657928D01*
X127338249Y-65439479D01*
X127475923Y-65201021D01*
X127581295Y-64946632D01*
X127652560Y-64680666D01*
X127688500Y-64407674D01*
X127688500Y-64132326D01*
X127652560Y-63859334D01*
X127581295Y-63593368D01*
X127475923Y-63338979D01*
X127475921Y-63338976D01*
X127475919Y-63338971D01*
X127426732Y-63253778D01*
X127338249Y-63100521D01*
X127209798Y-62933120D01*
X127170629Y-62882073D01*
X127170623Y-62882066D01*
X126975933Y-62687376D01*
X126975926Y-62687370D01*
X126757483Y-62519754D01*
X126757482Y-62519753D01*
X126757479Y-62519751D01*
X126662407Y-62464861D01*
X126519028Y-62382080D01*
X126519017Y-62382075D01*
X126264630Y-62276704D01*
X126131649Y-62241072D01*
X125998666Y-62205440D01*
X125998660Y-62205439D01*
X125998655Y-62205438D01*
X125725684Y-62169501D01*
X125725679Y-62169500D01*
X125725674Y-62169500D01*
X125450326Y-62169500D01*
X125450320Y-62169500D01*
X125450315Y-62169501D01*
X125177344Y-62205438D01*
X125177337Y-62205439D01*
X125177334Y-62205440D01*
X125121125Y-62220500D01*
X124911369Y-62276704D01*
X124656982Y-62382075D01*
X124656971Y-62382080D01*
X124418516Y-62519754D01*
X124200074Y-62687369D01*
X124110348Y-62777095D01*
X124049024Y-62810579D01*
X123979333Y-62805595D01*
X123923399Y-62763723D01*
X123900194Y-62708810D01*
X123894798Y-62674741D01*
X123827238Y-62466811D01*
X123827237Y-62466808D01*
X123727980Y-62272008D01*
X123683191Y-62210360D01*
X123683190Y-62210360D01*
X123029494Y-62864057D01*
X123013381Y-62803919D01*
X122946502Y-62688080D01*
X122851920Y-62593498D01*
X122736081Y-62526619D01*
X122675940Y-62510504D01*
X123329638Y-61856807D01*
X123329638Y-61856806D01*
X123267995Y-61812021D01*
X123267993Y-61812020D01*
X123073191Y-61712762D01*
X123073188Y-61712761D01*
X122865259Y-61645202D01*
X122649316Y-61611000D01*
X122430684Y-61611000D01*
X122214740Y-61645202D01*
X122006811Y-61712761D01*
X122006808Y-61712762D01*
X121812001Y-61812023D01*
X121750360Y-61856806D01*
X121750360Y-61856807D01*
X122404057Y-62510504D01*
X122343919Y-62526619D01*
X122228080Y-62593498D01*
X122133498Y-62688080D01*
X122066619Y-62803919D01*
X122050504Y-62864057D01*
X121396807Y-62210360D01*
X121396805Y-62210360D01*
X121370626Y-62246394D01*
X121315297Y-62289060D01*
X121245683Y-62295039D01*
X121183888Y-62262434D01*
X121169995Y-62246401D01*
X121059852Y-62094801D01*
X120905199Y-61940148D01*
X120905193Y-61940142D01*
X120728260Y-61811595D01*
X120728259Y-61811594D01*
X120728257Y-61811593D01*
X120665825Y-61779782D01*
X120533383Y-61712298D01*
X120533380Y-61712297D01*
X120325376Y-61644714D01*
X120109361Y-61610500D01*
X120109356Y-61610500D01*
X119890644Y-61610500D01*
X119890639Y-61610500D01*
X119674623Y-61644714D01*
X119466619Y-61712297D01*
X119466616Y-61712298D01*
X119271739Y-61811595D01*
X119094806Y-61940142D01*
X118940142Y-62094806D01*
X118830318Y-62245969D01*
X118774989Y-62288635D01*
X118705375Y-62294614D01*
X118643580Y-62262009D01*
X118629682Y-62245969D01*
X118519857Y-62094806D01*
X118365193Y-61940142D01*
X118188260Y-61811595D01*
X118188259Y-61811594D01*
X118188257Y-61811593D01*
X118125825Y-61779782D01*
X117993383Y-61712298D01*
X117993380Y-61712297D01*
X117785376Y-61644714D01*
X117569361Y-61610500D01*
X117569356Y-61610500D01*
X117350644Y-61610500D01*
X117350639Y-61610500D01*
X117134623Y-61644714D01*
X116926619Y-61712297D01*
X116926616Y-61712298D01*
X116731739Y-61811595D01*
X116554806Y-61940142D01*
X116400142Y-62094806D01*
X116290318Y-62245969D01*
X116234989Y-62288635D01*
X116165375Y-62294614D01*
X116103580Y-62262009D01*
X116089682Y-62245969D01*
X115979857Y-62094806D01*
X115825193Y-61940142D01*
X115648260Y-61811595D01*
X115648259Y-61811594D01*
X115648257Y-61811593D01*
X115585825Y-61779782D01*
X115453383Y-61712298D01*
X115453380Y-61712297D01*
X115245376Y-61644714D01*
X115029361Y-61610500D01*
X115029356Y-61610500D01*
X114810644Y-61610500D01*
X114810639Y-61610500D01*
X114594623Y-61644714D01*
X114386619Y-61712297D01*
X114386616Y-61712298D01*
X114191739Y-61811595D01*
X114010859Y-61943011D01*
X114009825Y-61941588D01*
X113952968Y-61967051D01*
X113883885Y-61956600D01*
X113848543Y-61931868D01*
X112957630Y-61040955D01*
X112957628Y-61040952D01*
X112838757Y-60922081D01*
X112838756Y-60922080D01*
X112751944Y-60871960D01*
X112751944Y-60871959D01*
X112751940Y-60871958D01*
X112701825Y-60843023D01*
X112549097Y-60802099D01*
X112390983Y-60802099D01*
X112383387Y-60802099D01*
X112383371Y-60802100D01*
X105648260Y-60802100D01*
X105490145Y-60802100D01*
X105337418Y-60843023D01*
X105337417Y-60843023D01*
X105337415Y-60843024D01*
X105337412Y-60843025D01*
X105287299Y-60871959D01*
X105287298Y-60871960D01*
X105243892Y-60897020D01*
X105200488Y-60922079D01*
X105200485Y-60922081D01*
X105088681Y-61033886D01*
X89663587Y-76458981D01*
X89636659Y-76473684D01*
X89610841Y-76490277D01*
X89604640Y-76491168D01*
X89602264Y-76492466D01*
X89575906Y-76495300D01*
X89499500Y-76495300D01*
X89432461Y-76475615D01*
X89386706Y-76422811D01*
X89375500Y-76371300D01*
X89375499Y-75599998D01*
X89375498Y-75599980D01*
X89364999Y-75497203D01*
X89364998Y-75497200D01*
X89364887Y-75496865D01*
X89309814Y-75330666D01*
X89217712Y-75181344D01*
X89093656Y-75057288D01*
X88992045Y-74994614D01*
X88944336Y-74965187D01*
X88944331Y-74965185D01*
X88934746Y-74962009D01*
X88777797Y-74910001D01*
X88777795Y-74910000D01*
X88675010Y-74899500D01*
X87324998Y-74899500D01*
X87324981Y-74899501D01*
X87222203Y-74910000D01*
X87222200Y-74910001D01*
X87055668Y-74965185D01*
X87055663Y-74965187D01*
X86906342Y-75057289D01*
X86782289Y-75181342D01*
X86690187Y-75330663D01*
X86690186Y-75330666D01*
X86635001Y-75497203D01*
X86635001Y-75497204D01*
X86635000Y-75497204D01*
X86624500Y-75599983D01*
X86624500Y-76400001D01*
X86624501Y-76400019D01*
X86635000Y-76502796D01*
X86635001Y-76502799D01*
X86690185Y-76669331D01*
X86690186Y-76669334D01*
X86729324Y-76732788D01*
X86747764Y-76800179D01*
X86726841Y-76866842D01*
X86711466Y-76885564D01*
X86047886Y-77549146D01*
X85936081Y-77660950D01*
X85936080Y-77660952D01*
X85901173Y-77721413D01*
X85857023Y-77797883D01*
X85816099Y-77950611D01*
X85816099Y-77950613D01*
X85816099Y-78118714D01*
X85816100Y-78118727D01*
X85816100Y-88329930D01*
X85816099Y-88329948D01*
X85816099Y-88495654D01*
X85816098Y-88495654D01*
X85857024Y-88648389D01*
X85857025Y-88648390D01*
X85875301Y-88680044D01*
X85875302Y-88680045D01*
X85936077Y-88785312D01*
X85936081Y-88785317D01*
X86054949Y-88904185D01*
X86054955Y-88904190D01*
X86657083Y-89506318D01*
X86690568Y-89567641D01*
X86687333Y-89632316D01*
X86651598Y-89742297D01*
X86651597Y-89742301D01*
X86624500Y-89913389D01*
X86624500Y-90086610D01*
X86648789Y-90239970D01*
X86651598Y-90257701D01*
X86705127Y-90422445D01*
X86783768Y-90576788D01*
X86885586Y-90716928D01*
X87008072Y-90839414D01*
X87148212Y-90941232D01*
X87302555Y-91019873D01*
X87467299Y-91073402D01*
X87638389Y-91100500D01*
X87638390Y-91100500D01*
X88361610Y-91100500D01*
X88361611Y-91100500D01*
X88532701Y-91073402D01*
X88697445Y-91019873D01*
X88851788Y-90941232D01*
X88991928Y-90839414D01*
X89114414Y-90716928D01*
X89216232Y-90576788D01*
X89294873Y-90422445D01*
X89348402Y-90257701D01*
X89375500Y-90086611D01*
X89375500Y-89913389D01*
X89348402Y-89742299D01*
X89294873Y-89577555D01*
X89216232Y-89423212D01*
X89114414Y-89283072D01*
X88991928Y-89160586D01*
X88908975Y-89100317D01*
X88866311Y-89044988D01*
X88860332Y-88975374D01*
X88892938Y-88913579D01*
X88908976Y-88899682D01*
X88912501Y-88897121D01*
X88991928Y-88839414D01*
X89114414Y-88716928D01*
X89216232Y-88576788D01*
X89294873Y-88422445D01*
X89348402Y-88257701D01*
X89375500Y-88086611D01*
X89375500Y-87913389D01*
X89348402Y-87742299D01*
X89294873Y-87577555D01*
X89216232Y-87423212D01*
X89114414Y-87283072D01*
X88991928Y-87160586D01*
X88908975Y-87100317D01*
X88866311Y-87044988D01*
X88860332Y-86975374D01*
X88892938Y-86913579D01*
X88908976Y-86899682D01*
X88991928Y-86839414D01*
X89114414Y-86716928D01*
X89161868Y-86651613D01*
X89217197Y-86608949D01*
X89262185Y-86600500D01*
X95699903Y-86600500D01*
X95766942Y-86620185D01*
X95787584Y-86636819D01*
X96138584Y-86987819D01*
X96172069Y-87049142D01*
X96167085Y-87118834D01*
X96125213Y-87174767D01*
X96059749Y-87199184D01*
X96050903Y-87199500D01*
X95921155Y-87199500D01*
X95766510Y-87230261D01*
X95766498Y-87230264D01*
X95620827Y-87290602D01*
X95620814Y-87290609D01*
X95489711Y-87378210D01*
X95489707Y-87378213D01*
X95378213Y-87489707D01*
X95378210Y-87489711D01*
X95290609Y-87620814D01*
X95290602Y-87620827D01*
X95230264Y-87766498D01*
X95230261Y-87766510D01*
X95199500Y-87921153D01*
X95199500Y-88078846D01*
X95230261Y-88233489D01*
X95230264Y-88233501D01*
X95290602Y-88379172D01*
X95290609Y-88379185D01*
X95378602Y-88510874D01*
X95399480Y-88577551D01*
X95399500Y-88579765D01*
X95399500Y-100699902D01*
X95379815Y-100766941D01*
X95363181Y-100787583D01*
X92519481Y-103631282D01*
X92519479Y-103631285D01*
X92469361Y-103718094D01*
X92469359Y-103718096D01*
X92440425Y-103768209D01*
X92440424Y-103768210D01*
X92440329Y-103768566D01*
X92399499Y-103920943D01*
X92399499Y-103920945D01*
X92399499Y-104089046D01*
X92399500Y-104089059D01*
X92399500Y-131949902D01*
X92379815Y-132016941D01*
X92363181Y-132037583D01*
X87828867Y-136571896D01*
X87767544Y-136605381D01*
X87702868Y-136602146D01*
X87566240Y-136557753D01*
X87404957Y-136532208D01*
X87356287Y-136524500D01*
X87143713Y-136524500D01*
X87095042Y-136532208D01*
X86933760Y-136557753D01*
X86731585Y-136623444D01*
X86542179Y-136719951D01*
X86370213Y-136844890D01*
X86219890Y-136995213D01*
X86094951Y-137167179D01*
X85998444Y-137356585D01*
X85932753Y-137558760D01*
X85899500Y-137768713D01*
X85899500Y-138231286D01*
X85929368Y-138419869D01*
X85932754Y-138441243D01*
X85973383Y-138566287D01*
X85998444Y-138643414D01*
X86094951Y-138832820D01*
X86219890Y-139004786D01*
X86370213Y-139155109D01*
X86542179Y-139280048D01*
X86542181Y-139280049D01*
X86542184Y-139280051D01*
X86731588Y-139376557D01*
X86933757Y-139442246D01*
X87143713Y-139475500D01*
X87143714Y-139475500D01*
X87356286Y-139475500D01*
X87356287Y-139475500D01*
X87566243Y-139442246D01*
X87768412Y-139376557D01*
X87957816Y-139280051D01*
X88075769Y-139194354D01*
X88129786Y-139155109D01*
X88129788Y-139155106D01*
X88129792Y-139155104D01*
X88280104Y-139004792D01*
X88399683Y-138840204D01*
X88455011Y-138797540D01*
X88524624Y-138791561D01*
X88586420Y-138824166D01*
X88600313Y-138840199D01*
X88703023Y-138981568D01*
X88719896Y-139004792D01*
X88870213Y-139155109D01*
X89042179Y-139280048D01*
X89042181Y-139280049D01*
X89042184Y-139280051D01*
X89231588Y-139376557D01*
X89433757Y-139442246D01*
X89643713Y-139475500D01*
X89643714Y-139475500D01*
X89856286Y-139475500D01*
X89856287Y-139475500D01*
X90066243Y-139442246D01*
X90268412Y-139376557D01*
X90457816Y-139280051D01*
X90575769Y-139194354D01*
X90629786Y-139155109D01*
X90629788Y-139155106D01*
X90629792Y-139155104D01*
X90780104Y-139004792D01*
X90899683Y-138840204D01*
X90955011Y-138797540D01*
X91024624Y-138791561D01*
X91086420Y-138824166D01*
X91100313Y-138840199D01*
X91203023Y-138981568D01*
X91219896Y-139004792D01*
X91370213Y-139155109D01*
X91542179Y-139280048D01*
X91542181Y-139280049D01*
X91542184Y-139280051D01*
X91731588Y-139376557D01*
X91933757Y-139442246D01*
X92143713Y-139475500D01*
X92143714Y-139475500D01*
X92356286Y-139475500D01*
X92356287Y-139475500D01*
X92566243Y-139442246D01*
X92768412Y-139376557D01*
X92957816Y-139280051D01*
X93075770Y-139194353D01*
X93129784Y-139155110D01*
X93129784Y-139155109D01*
X93129792Y-139155104D01*
X93268967Y-139015928D01*
X93330286Y-138982446D01*
X93399978Y-138987430D01*
X93455912Y-139029301D01*
X93462184Y-139038515D01*
X93557684Y-139193345D01*
X93681654Y-139317315D01*
X93830875Y-139409356D01*
X93830880Y-139409358D01*
X93997302Y-139464505D01*
X93997309Y-139464506D01*
X94100019Y-139474999D01*
X94499999Y-139474999D01*
X94500000Y-139474998D01*
X94500000Y-138404145D01*
X94566657Y-138442630D01*
X94687465Y-138475000D01*
X94812535Y-138475000D01*
X94933343Y-138442630D01*
X95000000Y-138404145D01*
X95000000Y-139474999D01*
X95399972Y-139474999D01*
X95399986Y-139474998D01*
X95502697Y-139464505D01*
X95669119Y-139409358D01*
X95669124Y-139409356D01*
X95818345Y-139317315D01*
X95942315Y-139193345D01*
X96034356Y-139044124D01*
X96034358Y-139044119D01*
X96089505Y-138877697D01*
X96089506Y-138877690D01*
X96099999Y-138774986D01*
X96100000Y-138774973D01*
X96100000Y-138250000D01*
X95154146Y-138250000D01*
X95192630Y-138183343D01*
X95225000Y-138062535D01*
X95225000Y-137937465D01*
X95192630Y-137816657D01*
X95154146Y-137750000D01*
X96099999Y-137750000D01*
X96099999Y-137225028D01*
X96099998Y-137225013D01*
X96089505Y-137122302D01*
X96034358Y-136955880D01*
X96034356Y-136955875D01*
X95942315Y-136806654D01*
X95818345Y-136682684D01*
X95669124Y-136590643D01*
X95669119Y-136590641D01*
X95502697Y-136535494D01*
X95502690Y-136535493D01*
X95399986Y-136525000D01*
X95000000Y-136525000D01*
X95000000Y-137595854D01*
X94933343Y-137557370D01*
X94812535Y-137525000D01*
X94687465Y-137525000D01*
X94566657Y-137557370D01*
X94500000Y-137595854D01*
X94500000Y-136525000D01*
X94100028Y-136525000D01*
X94100012Y-136525001D01*
X93997302Y-136535494D01*
X93830880Y-136590641D01*
X93830875Y-136590643D01*
X93681654Y-136682684D01*
X93557683Y-136806655D01*
X93557680Y-136806659D01*
X93462183Y-136961484D01*
X93410235Y-137008209D01*
X93341273Y-137019430D01*
X93277191Y-136991587D01*
X93268964Y-136984068D01*
X93129786Y-136844890D01*
X92957820Y-136719951D01*
X92768414Y-136623444D01*
X92768413Y-136623443D01*
X92768412Y-136623443D01*
X92566243Y-136557754D01*
X92566241Y-136557753D01*
X92566240Y-136557753D01*
X92404957Y-136532208D01*
X92356287Y-136524500D01*
X92143713Y-136524500D01*
X92095042Y-136532208D01*
X91933760Y-136557753D01*
X91731585Y-136623444D01*
X91542179Y-136719951D01*
X91370213Y-136844890D01*
X91219894Y-136995209D01*
X91219890Y-136995214D01*
X91100318Y-137159793D01*
X91044989Y-137202459D01*
X90975375Y-137208438D01*
X90913580Y-137175833D01*
X90899682Y-137159793D01*
X90780109Y-136995214D01*
X90780105Y-136995209D01*
X90629786Y-136844890D01*
X90457820Y-136719951D01*
X90268414Y-136623444D01*
X90268413Y-136623443D01*
X90268412Y-136623443D01*
X90066243Y-136557754D01*
X90066241Y-136557753D01*
X90066240Y-136557753D01*
X89915504Y-136533879D01*
X89856287Y-136524500D01*
X89856286Y-136524500D01*
X89853596Y-136524074D01*
X89790461Y-136494145D01*
X89753530Y-136434833D01*
X89754528Y-136364971D01*
X89785311Y-136313922D01*
X93358506Y-132740728D01*
X93358511Y-132740724D01*
X93368714Y-132730520D01*
X93368716Y-132730520D01*
X93480520Y-132618716D01*
X93545679Y-132505857D01*
X93559577Y-132481785D01*
X93600501Y-132329057D01*
X93600501Y-132170943D01*
X93600501Y-132163348D01*
X93600500Y-132163330D01*
X93600500Y-104300097D01*
X93620185Y-104233058D01*
X93636819Y-104212416D01*
X93987819Y-103861416D01*
X94049142Y-103827931D01*
X94118834Y-103832915D01*
X94174767Y-103874787D01*
X94199184Y-103940251D01*
X94199500Y-103949097D01*
X94199500Y-104078846D01*
X94230261Y-104233489D01*
X94230264Y-104233501D01*
X94290602Y-104379172D01*
X94290609Y-104379185D01*
X94378210Y-104510288D01*
X94378213Y-104510292D01*
X94489707Y-104621786D01*
X94489711Y-104621789D01*
X94620814Y-104709390D01*
X94620827Y-104709397D01*
X94699346Y-104741920D01*
X94766503Y-104769737D01*
X94921153Y-104800499D01*
X94921156Y-104800500D01*
X94921158Y-104800500D01*
X95078844Y-104800500D01*
X95078845Y-104800499D01*
X95233497Y-104769737D01*
X95379179Y-104709394D01*
X95510289Y-104621789D01*
X95621789Y-104510289D01*
X95709394Y-104379179D01*
X95769737Y-104233497D01*
X95798468Y-104089059D01*
X95800638Y-104078150D01*
X95833023Y-104016239D01*
X95834518Y-104014716D01*
X97212416Y-102636819D01*
X97273739Y-102603334D01*
X97300097Y-102600500D01*
X108420234Y-102600500D01*
X108487273Y-102620185D01*
X108489125Y-102621398D01*
X108620814Y-102709390D01*
X108620827Y-102709397D01*
X108766498Y-102769735D01*
X108766503Y-102769737D01*
X108921153Y-102800499D01*
X108921156Y-102800500D01*
X108921158Y-102800500D01*
X109078844Y-102800500D01*
X109078845Y-102800499D01*
X109233497Y-102769737D01*
X109346166Y-102723067D01*
X109379172Y-102709397D01*
X109379172Y-102709396D01*
X109379179Y-102709394D01*
X109510289Y-102621789D01*
X109621789Y-102510289D01*
X109709394Y-102379179D01*
X109711278Y-102374632D01*
X109769735Y-102233501D01*
X109769737Y-102233497D01*
X109800500Y-102078842D01*
X109800500Y-101921158D01*
X109800500Y-101921155D01*
X109800499Y-101921153D01*
X109769738Y-101766510D01*
X109769737Y-101766503D01*
X109713728Y-101631284D01*
X109709397Y-101620827D01*
X109709390Y-101620814D01*
X109621789Y-101489711D01*
X109621786Y-101489707D01*
X109510292Y-101378213D01*
X109510288Y-101378210D01*
X109379185Y-101290609D01*
X109379172Y-101290602D01*
X109233501Y-101230264D01*
X109233489Y-101230261D01*
X109078845Y-101199500D01*
X109078842Y-101199500D01*
X108921158Y-101199500D01*
X108921155Y-101199500D01*
X108766510Y-101230261D01*
X108766498Y-101230264D01*
X108620827Y-101290602D01*
X108620814Y-101290609D01*
X108489125Y-101378602D01*
X108422447Y-101399480D01*
X108420234Y-101399500D01*
X97079057Y-101399500D01*
X96920943Y-101399500D01*
X96768215Y-101440423D01*
X96768214Y-101440423D01*
X96768212Y-101440424D01*
X96768209Y-101440425D01*
X96718096Y-101469359D01*
X96718093Y-101469361D01*
X96675344Y-101494041D01*
X96607443Y-101510512D01*
X96541417Y-101487659D01*
X96498227Y-101432737D01*
X96491587Y-101363183D01*
X96505957Y-101324655D01*
X96559577Y-101231784D01*
X96600501Y-101079057D01*
X96600501Y-100920942D01*
X96600501Y-100913347D01*
X96600500Y-100913329D01*
X96600500Y-88579765D01*
X96620185Y-88512726D01*
X96621398Y-88510874D01*
X96709390Y-88379185D01*
X96709390Y-88379184D01*
X96709394Y-88379179D01*
X96769737Y-88233497D01*
X96800500Y-88078842D01*
X96800500Y-87949097D01*
X96820185Y-87882058D01*
X96872989Y-87836303D01*
X96942147Y-87826359D01*
X97005703Y-87855384D01*
X97012181Y-87861416D01*
X102165425Y-93014660D01*
X102198910Y-93075983D01*
X102199361Y-93078149D01*
X102230261Y-93233491D01*
X102230264Y-93233501D01*
X102290602Y-93379172D01*
X102290609Y-93379185D01*
X102378210Y-93510288D01*
X102378213Y-93510292D01*
X102489707Y-93621786D01*
X102489711Y-93621789D01*
X102620814Y-93709390D01*
X102620827Y-93709397D01*
X102766498Y-93769735D01*
X102766503Y-93769737D01*
X102921153Y-93800499D01*
X102921156Y-93800500D01*
X102921158Y-93800500D01*
X103078844Y-93800500D01*
X103078845Y-93800499D01*
X103233497Y-93769737D01*
X103379179Y-93709394D01*
X103510289Y-93621789D01*
X103621789Y-93510289D01*
X103709394Y-93379179D01*
X103769737Y-93233497D01*
X103800500Y-93078842D01*
X103800500Y-92921158D01*
X103800500Y-92921155D01*
X103800499Y-92921153D01*
X103782969Y-92833023D01*
X103769737Y-92766503D01*
X103746080Y-92709390D01*
X103709397Y-92620827D01*
X103709390Y-92620814D01*
X103621789Y-92489711D01*
X103621786Y-92489707D01*
X103510292Y-92378213D01*
X103510288Y-92378210D01*
X103379185Y-92290609D01*
X103379172Y-92290602D01*
X103233501Y-92230264D01*
X103233491Y-92230261D01*
X103078149Y-92199361D01*
X103016238Y-92166976D01*
X103014660Y-92165425D01*
X96487590Y-85638355D01*
X96487588Y-85638352D01*
X96368717Y-85519481D01*
X96368716Y-85519480D01*
X96281904Y-85469360D01*
X96281904Y-85469359D01*
X96281900Y-85469358D01*
X96231785Y-85440423D01*
X96079057Y-85399499D01*
X95920943Y-85399499D01*
X95913347Y-85399499D01*
X95913331Y-85399500D01*
X89262185Y-85399500D01*
X89195146Y-85379815D01*
X89161867Y-85348386D01*
X89156801Y-85341413D01*
X89114414Y-85283072D01*
X88991928Y-85160586D01*
X88908975Y-85100317D01*
X88866311Y-85044988D01*
X88860332Y-84975374D01*
X88892938Y-84913579D01*
X88908976Y-84899682D01*
X88991928Y-84839414D01*
X89114414Y-84716928D01*
X89161868Y-84651613D01*
X89217197Y-84608949D01*
X89262185Y-84600500D01*
X94420234Y-84600500D01*
X94487273Y-84620185D01*
X94489125Y-84621398D01*
X94620814Y-84709390D01*
X94620827Y-84709397D01*
X94766498Y-84769735D01*
X94766503Y-84769737D01*
X94921153Y-84800499D01*
X94921156Y-84800500D01*
X94921158Y-84800500D01*
X95078844Y-84800500D01*
X95078845Y-84800499D01*
X95233497Y-84769737D01*
X95379179Y-84709394D01*
X95510289Y-84621789D01*
X95621789Y-84510289D01*
X95709394Y-84379179D01*
X95769737Y-84233497D01*
X95800500Y-84078842D01*
X95800500Y-83921158D01*
X95800500Y-83921155D01*
X95800499Y-83921153D01*
X95769738Y-83766510D01*
X95769737Y-83766503D01*
X95730975Y-83672922D01*
X95709397Y-83620827D01*
X95709390Y-83620814D01*
X95621789Y-83489711D01*
X95621786Y-83489707D01*
X95510292Y-83378213D01*
X95510288Y-83378210D01*
X95379185Y-83290609D01*
X95379172Y-83290602D01*
X95233501Y-83230264D01*
X95233489Y-83230261D01*
X95078845Y-83199500D01*
X95078842Y-83199500D01*
X94921158Y-83199500D01*
X94921155Y-83199500D01*
X94766510Y-83230261D01*
X94766498Y-83230264D01*
X94620827Y-83290602D01*
X94620814Y-83290609D01*
X94489125Y-83378602D01*
X94422447Y-83399480D01*
X94420234Y-83399500D01*
X89262185Y-83399500D01*
X89195146Y-83379815D01*
X89161867Y-83348386D01*
X89114414Y-83283072D01*
X88991928Y-83160586D01*
X88908975Y-83100317D01*
X88866311Y-83044988D01*
X88860332Y-82975374D01*
X88892938Y-82913579D01*
X88908976Y-82899682D01*
X88991928Y-82839414D01*
X89114414Y-82716928D01*
X89216232Y-82576788D01*
X89294873Y-82422445D01*
X89348402Y-82257701D01*
X89375500Y-82086611D01*
X89375500Y-81913389D01*
X89348402Y-81742299D01*
X89294873Y-81577555D01*
X89216232Y-81423212D01*
X89114414Y-81283072D01*
X88991928Y-81160586D01*
X88908975Y-81100317D01*
X88866311Y-81044988D01*
X88860332Y-80975374D01*
X88892938Y-80913579D01*
X88908976Y-80899682D01*
X88991928Y-80839414D01*
X89114414Y-80716928D01*
X89161868Y-80651613D01*
X89217197Y-80608949D01*
X89262185Y-80600500D01*
X93699903Y-80600500D01*
X93766942Y-80620185D01*
X93787584Y-80636819D01*
X109165425Y-96014660D01*
X109198910Y-96075983D01*
X109199361Y-96078149D01*
X109230261Y-96233491D01*
X109230264Y-96233501D01*
X109290602Y-96379172D01*
X109290609Y-96379185D01*
X109378210Y-96510288D01*
X109378213Y-96510292D01*
X109489707Y-96621786D01*
X109489711Y-96621789D01*
X109620814Y-96709390D01*
X109620827Y-96709397D01*
X109721907Y-96751265D01*
X109766503Y-96769737D01*
X109921153Y-96800499D01*
X109921156Y-96800500D01*
X109921158Y-96800500D01*
X110078844Y-96800500D01*
X110078845Y-96800499D01*
X110233497Y-96769737D01*
X110261249Y-96758241D01*
X110330715Y-96750773D01*
X110393195Y-96782047D01*
X110428848Y-96842136D01*
X110432700Y-96872803D01*
X110432700Y-97127196D01*
X110413015Y-97194235D01*
X110360211Y-97239990D01*
X110291053Y-97249934D01*
X110261249Y-97241758D01*
X110253270Y-97238453D01*
X110233497Y-97230263D01*
X110233493Y-97230262D01*
X110233489Y-97230261D01*
X110078845Y-97199500D01*
X110078842Y-97199500D01*
X109921158Y-97199500D01*
X109921155Y-97199500D01*
X109766510Y-97230261D01*
X109766498Y-97230264D01*
X109620827Y-97290602D01*
X109620814Y-97290609D01*
X109489125Y-97378602D01*
X109422447Y-97399480D01*
X109420234Y-97399500D01*
X104300097Y-97399500D01*
X104233058Y-97379815D01*
X104212416Y-97363181D01*
X98834574Y-91985339D01*
X98801089Y-91924016D01*
X98800638Y-91921849D01*
X98769738Y-91766510D01*
X98769737Y-91766503D01*
X98769735Y-91766498D01*
X98709397Y-91620827D01*
X98709390Y-91620814D01*
X98621789Y-91489711D01*
X98621786Y-91489707D01*
X98510292Y-91378213D01*
X98510288Y-91378210D01*
X98379185Y-91290609D01*
X98379172Y-91290602D01*
X98233501Y-91230264D01*
X98233489Y-91230261D01*
X98078845Y-91199500D01*
X98078842Y-91199500D01*
X97921158Y-91199500D01*
X97921155Y-91199500D01*
X97766510Y-91230261D01*
X97766498Y-91230264D01*
X97620827Y-91290602D01*
X97620814Y-91290609D01*
X97489711Y-91378210D01*
X97489707Y-91378213D01*
X97378213Y-91489707D01*
X97378210Y-91489711D01*
X97290609Y-91620814D01*
X97290602Y-91620827D01*
X97230264Y-91766498D01*
X97230261Y-91766510D01*
X97199500Y-91921153D01*
X97199500Y-92078846D01*
X97230261Y-92233489D01*
X97230264Y-92233501D01*
X97290602Y-92379172D01*
X97290609Y-92379185D01*
X97378210Y-92510288D01*
X97378213Y-92510292D01*
X97489707Y-92621786D01*
X97489711Y-92621789D01*
X97620814Y-92709390D01*
X97620827Y-92709397D01*
X97758683Y-92766498D01*
X97766503Y-92769737D01*
X97829500Y-92782268D01*
X97921849Y-92800638D01*
X97983760Y-92833023D01*
X97985339Y-92834574D01*
X103515139Y-98364374D01*
X103515149Y-98364385D01*
X103519479Y-98368715D01*
X103519480Y-98368716D01*
X103631284Y-98480520D01*
X103631286Y-98480521D01*
X103631290Y-98480524D01*
X103768209Y-98559573D01*
X103768216Y-98559577D01*
X103880019Y-98589534D01*
X103920942Y-98600500D01*
X103920943Y-98600500D01*
X109420234Y-98600500D01*
X109487273Y-98620185D01*
X109489125Y-98621398D01*
X109620814Y-98709390D01*
X109620827Y-98709397D01*
X109738751Y-98758242D01*
X109766503Y-98769737D01*
X109921153Y-98800499D01*
X109921156Y-98800500D01*
X109921158Y-98800500D01*
X110078844Y-98800500D01*
X110078845Y-98800499D01*
X110233497Y-98769737D01*
X110261249Y-98758241D01*
X110330715Y-98750773D01*
X110393195Y-98782047D01*
X110428848Y-98842136D01*
X110432700Y-98872803D01*
X110432700Y-132126702D01*
X110413015Y-132193741D01*
X110396381Y-132214383D01*
X105537582Y-137073181D01*
X105476259Y-137106666D01*
X105449901Y-137109500D01*
X104102129Y-137109500D01*
X104102123Y-137109501D01*
X104042516Y-137115908D01*
X103907671Y-137166202D01*
X103907664Y-137166206D01*
X103792455Y-137252452D01*
X103792452Y-137252455D01*
X103706206Y-137367664D01*
X103706202Y-137367671D01*
X103655908Y-137502517D01*
X103650011Y-137557370D01*
X103649501Y-137562123D01*
X103649500Y-137562135D01*
X103649500Y-138783745D01*
X103629815Y-138850784D01*
X103577011Y-138896539D01*
X103507853Y-138906483D01*
X103444297Y-138877458D01*
X103437819Y-138871426D01*
X101286819Y-136720426D01*
X101253334Y-136659103D01*
X101250500Y-136632745D01*
X101250500Y-120012332D01*
X104437500Y-120012332D01*
X104437500Y-120287667D01*
X104437501Y-120287684D01*
X104473438Y-120560655D01*
X104473439Y-120560660D01*
X104473440Y-120560666D01*
X104473441Y-120560668D01*
X104544704Y-120826630D01*
X104650075Y-121081017D01*
X104650080Y-121081028D01*
X104674957Y-121124115D01*
X104787751Y-121319479D01*
X104787753Y-121319482D01*
X104787754Y-121319483D01*
X104955370Y-121537926D01*
X104955376Y-121537933D01*
X105150066Y-121732623D01*
X105150072Y-121732628D01*
X105368521Y-121900249D01*
X105521778Y-121988732D01*
X105606971Y-122037919D01*
X105606976Y-122037921D01*
X105606979Y-122037923D01*
X105861368Y-122143295D01*
X106127334Y-122214560D01*
X106400326Y-122250500D01*
X106400333Y-122250500D01*
X106675667Y-122250500D01*
X106675674Y-122250500D01*
X106948666Y-122214560D01*
X107214632Y-122143295D01*
X107469021Y-122037923D01*
X107707479Y-121900249D01*
X107925928Y-121732628D01*
X108120628Y-121537928D01*
X108288249Y-121319479D01*
X108425923Y-121081021D01*
X108531295Y-120826632D01*
X108602560Y-120560666D01*
X108638500Y-120287674D01*
X108638500Y-120012326D01*
X108602560Y-119739334D01*
X108531295Y-119473368D01*
X108425923Y-119218979D01*
X108425921Y-119218976D01*
X108425919Y-119218971D01*
X108376732Y-119133778D01*
X108288249Y-118980521D01*
X108125342Y-118768215D01*
X108120629Y-118762073D01*
X108120623Y-118762066D01*
X107925933Y-118567376D01*
X107925926Y-118567370D01*
X107707483Y-118399754D01*
X107707482Y-118399753D01*
X107707479Y-118399751D01*
X107595074Y-118334854D01*
X107469028Y-118262080D01*
X107469017Y-118262075D01*
X107214630Y-118156704D01*
X107081649Y-118121072D01*
X106948666Y-118085440D01*
X106948660Y-118085439D01*
X106948655Y-118085438D01*
X106675684Y-118049501D01*
X106675679Y-118049500D01*
X106675674Y-118049500D01*
X106400326Y-118049500D01*
X106400320Y-118049500D01*
X106400315Y-118049501D01*
X106127344Y-118085438D01*
X106127337Y-118085439D01*
X106127334Y-118085440D01*
X106099183Y-118092983D01*
X105861369Y-118156704D01*
X105606982Y-118262075D01*
X105606971Y-118262080D01*
X105368516Y-118399754D01*
X105150073Y-118567370D01*
X105150066Y-118567376D01*
X104955376Y-118762066D01*
X104955370Y-118762073D01*
X104787754Y-118980516D01*
X104650080Y-119218971D01*
X104650075Y-119218982D01*
X104544704Y-119473369D01*
X104473441Y-119739331D01*
X104473438Y-119739344D01*
X104437501Y-120012315D01*
X104437500Y-120012332D01*
X101250500Y-120012332D01*
X101250500Y-114569336D01*
X101270185Y-114502297D01*
X101286819Y-114481655D01*
X101616103Y-114152371D01*
X101953829Y-113814645D01*
X102069524Y-113655405D01*
X102158884Y-113480025D01*
X102219709Y-113292826D01*
X102231776Y-113216631D01*
X102261704Y-113153499D01*
X102266532Y-113148386D01*
X102777140Y-112637781D01*
X102886632Y-112473914D01*
X102962052Y-112291835D01*
X103000501Y-112098540D01*
X103000501Y-111901459D01*
X103000501Y-111901456D01*
X103000500Y-111901454D01*
X102976399Y-111780290D01*
X102962052Y-111708164D01*
X102886632Y-111526085D01*
X102886631Y-111526084D01*
X102886628Y-111526078D01*
X102777140Y-111362218D01*
X102777137Y-111362214D01*
X102637785Y-111222862D01*
X102637781Y-111222859D01*
X102473921Y-111113371D01*
X102473912Y-111113366D01*
X102291836Y-111037948D01*
X102291828Y-111037946D01*
X102098544Y-110999499D01*
X102098541Y-110999499D01*
X101901460Y-110999499D01*
X101901457Y-110999499D01*
X101708172Y-111037946D01*
X101708164Y-111037948D01*
X101526088Y-111113366D01*
X101526079Y-111113371D01*
X101362219Y-111222859D01*
X101362215Y-111222862D01*
X100851647Y-111733431D01*
X100790324Y-111766916D01*
X100783365Y-111768223D01*
X100707176Y-111780290D01*
X100519972Y-111841117D01*
X100344594Y-111930476D01*
X100253742Y-111996484D01*
X100185355Y-112046171D01*
X100185353Y-112046173D01*
X100185352Y-112046173D01*
X99046174Y-113185351D01*
X99046174Y-113185352D01*
X99046172Y-113185354D01*
X99000254Y-113248554D01*
X98930476Y-113344594D01*
X98841114Y-113519976D01*
X98797112Y-113655404D01*
X98780291Y-113707172D01*
X98780290Y-113707177D01*
X98749500Y-113901577D01*
X98749500Y-137300503D01*
X98780290Y-137494907D01*
X98841117Y-137682111D01*
X98930476Y-137857486D01*
X99046172Y-138016727D01*
X102844091Y-141814646D01*
X102983273Y-141953828D01*
X103142514Y-142069524D01*
X103225374Y-142111743D01*
X103317889Y-142158882D01*
X103317891Y-142158882D01*
X103317894Y-142158884D01*
X103418236Y-142191487D01*
X103505092Y-142219709D01*
X103699497Y-142250500D01*
X103699502Y-142250500D01*
X103699503Y-142250500D01*
X103896336Y-142250500D01*
X104117852Y-142250500D01*
X104184891Y-142270185D01*
X104230646Y-142322989D01*
X104241470Y-142384230D01*
X104238282Y-142424728D01*
X104870591Y-143057037D01*
X104807007Y-143074075D01*
X104692993Y-143139901D01*
X104599901Y-143232993D01*
X104534075Y-143347007D01*
X104517037Y-143410591D01*
X103884728Y-142778282D01*
X103884727Y-142778282D01*
X103845380Y-142832439D01*
X103748904Y-143021782D01*
X103683242Y-143223869D01*
X103683242Y-143223872D01*
X103650000Y-143433753D01*
X103650000Y-143646246D01*
X103683242Y-143856127D01*
X103683242Y-143856130D01*
X103748904Y-144058217D01*
X103845375Y-144247550D01*
X103884728Y-144301716D01*
X104517037Y-143669408D01*
X104534075Y-143732993D01*
X104599901Y-143847007D01*
X104692993Y-143940099D01*
X104807007Y-144005925D01*
X104870590Y-144022962D01*
X104238282Y-144655269D01*
X104238282Y-144655270D01*
X104292449Y-144694624D01*
X104481782Y-144791095D01*
X104683870Y-144856757D01*
X104893754Y-144890000D01*
X105106246Y-144890000D01*
X105316127Y-144856757D01*
X105316130Y-144856757D01*
X105518217Y-144791095D01*
X105707554Y-144694622D01*
X105761716Y-144655270D01*
X105761717Y-144655270D01*
X105129408Y-144022962D01*
X105192993Y-144005925D01*
X105307007Y-143940099D01*
X105400099Y-143847007D01*
X105465925Y-143732993D01*
X105482962Y-143669409D01*
X106115270Y-144301717D01*
X106115270Y-144301716D01*
X106154622Y-144247554D01*
X106251095Y-144058217D01*
X106316757Y-143856130D01*
X106316757Y-143856127D01*
X106350000Y-143646246D01*
X106350000Y-143433753D01*
X106316757Y-143223872D01*
X106316757Y-143223869D01*
X106251095Y-143021782D01*
X106154624Y-142832449D01*
X106115270Y-142778282D01*
X106115269Y-142778282D01*
X105482962Y-143410590D01*
X105465925Y-143347007D01*
X105400099Y-143232993D01*
X105307007Y-143139901D01*
X105192993Y-143074075D01*
X105129409Y-143057037D01*
X105761716Y-142424728D01*
X105758529Y-142384230D01*
X105772893Y-142315852D01*
X105821944Y-142266095D01*
X105882147Y-142250500D01*
X108117852Y-142250500D01*
X108184891Y-142270185D01*
X108230646Y-142322989D01*
X108241470Y-142384230D01*
X108238282Y-142424728D01*
X108870591Y-143057037D01*
X108807007Y-143074075D01*
X108692993Y-143139901D01*
X108599901Y-143232993D01*
X108534075Y-143347007D01*
X108517037Y-143410591D01*
X107884728Y-142778282D01*
X107884727Y-142778282D01*
X107845380Y-142832439D01*
X107748904Y-143021782D01*
X107683242Y-143223869D01*
X107683242Y-143223872D01*
X107650000Y-143433753D01*
X107650000Y-143646246D01*
X107683242Y-143856127D01*
X107683242Y-143856130D01*
X107748904Y-144058217D01*
X107845375Y-144247550D01*
X107884728Y-144301716D01*
X108517037Y-143669408D01*
X108534075Y-143732993D01*
X108599901Y-143847007D01*
X108692993Y-143940099D01*
X108807007Y-144005925D01*
X108870590Y-144022962D01*
X108238282Y-144655269D01*
X108238282Y-144655270D01*
X108292449Y-144694624D01*
X108481782Y-144791095D01*
X108683870Y-144856757D01*
X108893754Y-144890000D01*
X109106246Y-144890000D01*
X109316127Y-144856757D01*
X109316130Y-144856757D01*
X109518217Y-144791095D01*
X109707554Y-144694622D01*
X109761716Y-144655270D01*
X109761717Y-144655270D01*
X109129408Y-144022962D01*
X109192993Y-144005925D01*
X109307007Y-143940099D01*
X109400099Y-143847007D01*
X109465925Y-143732993D01*
X109482962Y-143669409D01*
X110115270Y-144301717D01*
X110115270Y-144301716D01*
X110154622Y-144247554D01*
X110251095Y-144058217D01*
X110316757Y-143856130D01*
X110316757Y-143856127D01*
X110350000Y-143646246D01*
X110350000Y-143433753D01*
X110316757Y-143223872D01*
X110316757Y-143223869D01*
X110251095Y-143021782D01*
X110154624Y-142832449D01*
X110115270Y-142778282D01*
X110115269Y-142778282D01*
X109482962Y-143410590D01*
X109465925Y-143347007D01*
X109400099Y-143232993D01*
X109307007Y-143139901D01*
X109192993Y-143074075D01*
X109129409Y-143057037D01*
X109761716Y-142424728D01*
X109758529Y-142384230D01*
X109772893Y-142315852D01*
X109821944Y-142266095D01*
X109882147Y-142250500D01*
X112117852Y-142250500D01*
X112184891Y-142270185D01*
X112230646Y-142322989D01*
X112241470Y-142384230D01*
X112238282Y-142424728D01*
X112870591Y-143057037D01*
X112807007Y-143074075D01*
X112692993Y-143139901D01*
X112599901Y-143232993D01*
X112534075Y-143347007D01*
X112517037Y-143410591D01*
X111884728Y-142778282D01*
X111884727Y-142778282D01*
X111845380Y-142832439D01*
X111748904Y-143021782D01*
X111683242Y-143223869D01*
X111683242Y-143223872D01*
X111650000Y-143433753D01*
X111650000Y-143646246D01*
X111683242Y-143856127D01*
X111683242Y-143856130D01*
X111748904Y-144058217D01*
X111845375Y-144247550D01*
X111884728Y-144301716D01*
X112517037Y-143669408D01*
X112534075Y-143732993D01*
X112599901Y-143847007D01*
X112692993Y-143940099D01*
X112807007Y-144005925D01*
X112870590Y-144022962D01*
X112238282Y-144655269D01*
X112238282Y-144655270D01*
X112292449Y-144694624D01*
X112481782Y-144791095D01*
X112683870Y-144856757D01*
X112893754Y-144890000D01*
X113106246Y-144890000D01*
X113316127Y-144856757D01*
X113316130Y-144856757D01*
X113518217Y-144791095D01*
X113707554Y-144694622D01*
X113761716Y-144655270D01*
X113761717Y-144655270D01*
X113129408Y-144022962D01*
X113192993Y-144005925D01*
X113307007Y-143940099D01*
X113400099Y-143847007D01*
X113465925Y-143732993D01*
X113482962Y-143669409D01*
X114115270Y-144301717D01*
X114115270Y-144301716D01*
X114154622Y-144247554D01*
X114251095Y-144058217D01*
X114316757Y-143856130D01*
X114316757Y-143856127D01*
X114350000Y-143646246D01*
X114350000Y-143433753D01*
X114316757Y-143223872D01*
X114316757Y-143223869D01*
X114251095Y-143021782D01*
X114154624Y-142832449D01*
X114115270Y-142778282D01*
X114115269Y-142778282D01*
X113482962Y-143410590D01*
X113465925Y-143347007D01*
X113400099Y-143232993D01*
X113307007Y-143139901D01*
X113192993Y-143074075D01*
X113129409Y-143057037D01*
X113761716Y-142424728D01*
X113758529Y-142384230D01*
X113772893Y-142315852D01*
X113821944Y-142266095D01*
X113882147Y-142250500D01*
X116117852Y-142250500D01*
X116184891Y-142270185D01*
X116230646Y-142322989D01*
X116241470Y-142384230D01*
X116238282Y-142424728D01*
X116870591Y-143057037D01*
X116807007Y-143074075D01*
X116692993Y-143139901D01*
X116599901Y-143232993D01*
X116534075Y-143347007D01*
X116517037Y-143410591D01*
X115884728Y-142778282D01*
X115884727Y-142778282D01*
X115845380Y-142832439D01*
X115748904Y-143021782D01*
X115683242Y-143223869D01*
X115683242Y-143223872D01*
X115650000Y-143433753D01*
X115650000Y-143646246D01*
X115683242Y-143856127D01*
X115683242Y-143856130D01*
X115748904Y-144058217D01*
X115845375Y-144247550D01*
X115884728Y-144301716D01*
X116517037Y-143669408D01*
X116534075Y-143732993D01*
X116599901Y-143847007D01*
X116692993Y-143940099D01*
X116807007Y-144005925D01*
X116870590Y-144022962D01*
X116238282Y-144655269D01*
X116238282Y-144655270D01*
X116292449Y-144694624D01*
X116481782Y-144791095D01*
X116683870Y-144856757D01*
X116893754Y-144890000D01*
X117106246Y-144890000D01*
X117316127Y-144856757D01*
X117316130Y-144856757D01*
X117518217Y-144791095D01*
X117707554Y-144694622D01*
X117761716Y-144655270D01*
X117761717Y-144655270D01*
X117129408Y-144022962D01*
X117192993Y-144005925D01*
X117307007Y-143940099D01*
X117400099Y-143847007D01*
X117465925Y-143732993D01*
X117482962Y-143669408D01*
X118115270Y-144301717D01*
X118115270Y-144301716D01*
X118154622Y-144247554D01*
X118251095Y-144058217D01*
X118316757Y-143856130D01*
X118316757Y-143856127D01*
X118344044Y-143683848D01*
X118373973Y-143620714D01*
X118433284Y-143583782D01*
X118503147Y-143584780D01*
X118554197Y-143615564D01*
X118957048Y-144018415D01*
X118957049Y-144018416D01*
X119061584Y-144122951D01*
X119061585Y-144122952D01*
X119184498Y-144205080D01*
X119184511Y-144205087D01*
X119301184Y-144253414D01*
X119321087Y-144261658D01*
X119321091Y-144261658D01*
X119321092Y-144261659D01*
X119466079Y-144290500D01*
X119466082Y-144290500D01*
X122812779Y-144290500D01*
X122879818Y-144310185D01*
X122913097Y-144341615D01*
X122969892Y-144419788D01*
X123120213Y-144570109D01*
X123292179Y-144695048D01*
X123292181Y-144695049D01*
X123292184Y-144695051D01*
X123481588Y-144791557D01*
X123683757Y-144857246D01*
X123893713Y-144890500D01*
X123893714Y-144890500D01*
X124106286Y-144890500D01*
X124106287Y-144890500D01*
X124316243Y-144857246D01*
X124518412Y-144791557D01*
X124707816Y-144695051D01*
X124780440Y-144642287D01*
X124879786Y-144570109D01*
X124879788Y-144570106D01*
X124879792Y-144570104D01*
X125030104Y-144419792D01*
X125030108Y-144419786D01*
X125086903Y-144341615D01*
X125142233Y-144298949D01*
X125187221Y-144290500D01*
X126812779Y-144290500D01*
X126879818Y-144310185D01*
X126913097Y-144341615D01*
X126969892Y-144419788D01*
X127120213Y-144570109D01*
X127292179Y-144695048D01*
X127292181Y-144695049D01*
X127292184Y-144695051D01*
X127481588Y-144791557D01*
X127683757Y-144857246D01*
X127893713Y-144890500D01*
X127893714Y-144890500D01*
X128106286Y-144890500D01*
X128106287Y-144890500D01*
X128316243Y-144857246D01*
X128518412Y-144791557D01*
X128707816Y-144695051D01*
X128780440Y-144642287D01*
X128879786Y-144570109D01*
X128879788Y-144570106D01*
X128879792Y-144570104D01*
X129030104Y-144419792D01*
X129030106Y-144419788D01*
X129030109Y-144419786D01*
X129155048Y-144247820D01*
X129155047Y-144247820D01*
X129155051Y-144247816D01*
X129251557Y-144058412D01*
X129317246Y-143856243D01*
X129350500Y-143646287D01*
X129350500Y-143433713D01*
X129317246Y-143223757D01*
X129251557Y-143021588D01*
X129155051Y-142832184D01*
X129155049Y-142832181D01*
X129155048Y-142832179D01*
X129030109Y-142660213D01*
X128879786Y-142509890D01*
X128707820Y-142384951D01*
X128706405Y-142384230D01*
X128699054Y-142380485D01*
X128648259Y-142332512D01*
X128631463Y-142264692D01*
X128653999Y-142198556D01*
X128699054Y-142159515D01*
X128707816Y-142155051D01*
X128825535Y-142069524D01*
X128879786Y-142030109D01*
X128879788Y-142030106D01*
X128879792Y-142030104D01*
X129030104Y-141879792D01*
X129030106Y-141879788D01*
X129030109Y-141879786D01*
X129155048Y-141707820D01*
X129155047Y-141707820D01*
X129155051Y-141707816D01*
X129251557Y-141518412D01*
X129317246Y-141316243D01*
X129350500Y-141106287D01*
X129350500Y-140893713D01*
X129317246Y-140683757D01*
X129251557Y-140481588D01*
X129155051Y-140292184D01*
X129155049Y-140292181D01*
X129155048Y-140292179D01*
X129030109Y-140120213D01*
X128879786Y-139969890D01*
X128707820Y-139844951D01*
X128707165Y-139844617D01*
X128701429Y-139841694D01*
X128699970Y-139840951D01*
X128699057Y-139840486D01*
X128648260Y-139792514D01*
X128634584Y-139737296D01*
X130015643Y-139737296D01*
X130015643Y-139894989D01*
X130046404Y-140049632D01*
X130046407Y-140049644D01*
X130106745Y-140195315D01*
X130106752Y-140195328D01*
X130194353Y-140326431D01*
X130194356Y-140326435D01*
X130305850Y-140437929D01*
X130305854Y-140437932D01*
X130436957Y-140525533D01*
X130436970Y-140525540D01*
X130582641Y-140585878D01*
X130582646Y-140585880D01*
X130737296Y-140616642D01*
X130737299Y-140616643D01*
X130737301Y-140616643D01*
X130894987Y-140616643D01*
X130894988Y-140616642D01*
X131049640Y-140585880D01*
X131195322Y-140525537D01*
X131326432Y-140437932D01*
X131437932Y-140326432D01*
X131525537Y-140195322D01*
X131585880Y-140049640D01*
X131606625Y-139945350D01*
X131616781Y-139894293D01*
X131649166Y-139832382D01*
X131650659Y-139830861D01*
X132480520Y-139001002D01*
X132559577Y-138864070D01*
X132600501Y-138711343D01*
X132600501Y-138553228D01*
X132600501Y-138545633D01*
X132600500Y-138545615D01*
X132600500Y-134763065D01*
X132620185Y-134696026D01*
X132621398Y-134694174D01*
X132709390Y-134562485D01*
X132709390Y-134562484D01*
X132709394Y-134562479D01*
X132769737Y-134416797D01*
X132800500Y-134262142D01*
X132800500Y-134104458D01*
X132800500Y-134104455D01*
X132800499Y-134104453D01*
X132769738Y-133949810D01*
X132769737Y-133949803D01*
X132769735Y-133949798D01*
X132709397Y-133804127D01*
X132709390Y-133804114D01*
X132621789Y-133673011D01*
X132621786Y-133673007D01*
X132510292Y-133561513D01*
X132510288Y-133561510D01*
X132379185Y-133473909D01*
X132379172Y-133473902D01*
X132233501Y-133413564D01*
X132233489Y-133413561D01*
X132078845Y-133382800D01*
X132078842Y-133382800D01*
X131921158Y-133382800D01*
X131921155Y-133382800D01*
X131766510Y-133413561D01*
X131766498Y-133413564D01*
X131620827Y-133473902D01*
X131620814Y-133473909D01*
X131489711Y-133561510D01*
X131489707Y-133561513D01*
X131378213Y-133673007D01*
X131378210Y-133673011D01*
X131290609Y-133804114D01*
X131290602Y-133804127D01*
X131230264Y-133949798D01*
X131230261Y-133949810D01*
X131199500Y-134104453D01*
X131199500Y-134262146D01*
X131230261Y-134416789D01*
X131230264Y-134416801D01*
X131290602Y-134562472D01*
X131290609Y-134562485D01*
X131378602Y-134694174D01*
X131399480Y-134760851D01*
X131399500Y-134763065D01*
X131399500Y-138332188D01*
X131379815Y-138399227D01*
X131363181Y-138419869D01*
X130801482Y-138981568D01*
X130740159Y-139015053D01*
X130737993Y-139015504D01*
X130582651Y-139046404D01*
X130582641Y-139046407D01*
X130436970Y-139106745D01*
X130436957Y-139106752D01*
X130305854Y-139194353D01*
X130305850Y-139194356D01*
X130194356Y-139305850D01*
X130194353Y-139305854D01*
X130106752Y-139436957D01*
X130106745Y-139436970D01*
X130046407Y-139582641D01*
X130046404Y-139582653D01*
X130015643Y-139737296D01*
X128634584Y-139737296D01*
X128631463Y-139724694D01*
X128653998Y-139658558D01*
X128699054Y-139619515D01*
X128707816Y-139615051D01*
X128794138Y-139552335D01*
X128879786Y-139490109D01*
X128879788Y-139490106D01*
X128879792Y-139490104D01*
X129030104Y-139339792D01*
X129030106Y-139339788D01*
X129030109Y-139339786D01*
X129155048Y-139167820D01*
X129155047Y-139167820D01*
X129155051Y-139167816D01*
X129251557Y-138978412D01*
X129317246Y-138776243D01*
X129350500Y-138566287D01*
X129350500Y-138353713D01*
X129317246Y-138143757D01*
X129251557Y-137941588D01*
X129155051Y-137752184D01*
X129155049Y-137752181D01*
X129155048Y-137752179D01*
X129030109Y-137580213D01*
X128916181Y-137466285D01*
X128882696Y-137404962D01*
X128887680Y-137335270D01*
X128929552Y-137279337D01*
X128960529Y-137262422D01*
X129092086Y-137213354D01*
X129092093Y-137213350D01*
X129207187Y-137127190D01*
X129207190Y-137127187D01*
X129293350Y-137012093D01*
X129293354Y-137012086D01*
X129343596Y-136877379D01*
X129343598Y-136877372D01*
X129349999Y-136817844D01*
X129350000Y-136817827D01*
X129350000Y-136170000D01*
X128433012Y-136170000D01*
X128465925Y-136112993D01*
X128500000Y-135985826D01*
X128500000Y-135854174D01*
X128465925Y-135727007D01*
X128433012Y-135670000D01*
X129350000Y-135670000D01*
X129350000Y-135022172D01*
X129349999Y-135022155D01*
X129343598Y-134962627D01*
X129343596Y-134962620D01*
X129293354Y-134827913D01*
X129293350Y-134827906D01*
X129207190Y-134712812D01*
X129207187Y-134712809D01*
X129092093Y-134626649D01*
X129092086Y-134626645D01*
X128957379Y-134576403D01*
X128957372Y-134576401D01*
X128897844Y-134570000D01*
X128250000Y-134570000D01*
X128250000Y-135486988D01*
X128192993Y-135454075D01*
X128065826Y-135420000D01*
X127934174Y-135420000D01*
X127807007Y-135454075D01*
X127750000Y-135486988D01*
X127750000Y-134570000D01*
X127102155Y-134570000D01*
X127042627Y-134576401D01*
X127042620Y-134576403D01*
X126907913Y-134626645D01*
X126907906Y-134626649D01*
X126792812Y-134712809D01*
X126792809Y-134712812D01*
X126706649Y-134827906D01*
X126706645Y-134827913D01*
X126656403Y-134962620D01*
X126656401Y-134962627D01*
X126650000Y-135022155D01*
X126650000Y-135670000D01*
X127566988Y-135670000D01*
X127534075Y-135727007D01*
X127500000Y-135854174D01*
X127500000Y-135985826D01*
X127534075Y-136112993D01*
X127566988Y-136170000D01*
X126650000Y-136170000D01*
X126650000Y-136817844D01*
X126656401Y-136877372D01*
X126656403Y-136877379D01*
X126706645Y-137012086D01*
X126706649Y-137012093D01*
X126792809Y-137127187D01*
X126792812Y-137127190D01*
X126907906Y-137213350D01*
X126907913Y-137213354D01*
X127039470Y-137262422D01*
X127095404Y-137304293D01*
X127119821Y-137369758D01*
X127104969Y-137438031D01*
X127083819Y-137466285D01*
X126969889Y-137580215D01*
X126844951Y-137752179D01*
X126748444Y-137941585D01*
X126682753Y-138143760D01*
X126649500Y-138353713D01*
X126649500Y-138566286D01*
X126682552Y-138774973D01*
X126682754Y-138776243D01*
X126715716Y-138877690D01*
X126748444Y-138978414D01*
X126844951Y-139167820D01*
X126969890Y-139339786D01*
X127120213Y-139490109D01*
X127292182Y-139615050D01*
X127300946Y-139619516D01*
X127351742Y-139667491D01*
X127368536Y-139735312D01*
X127345998Y-139801447D01*
X127300946Y-139840484D01*
X127292182Y-139844949D01*
X127120213Y-139969890D01*
X126969890Y-140120213D01*
X126844951Y-140292179D01*
X126748444Y-140481585D01*
X126682753Y-140683760D01*
X126649500Y-140893713D01*
X126649500Y-141106286D01*
X126682753Y-141316239D01*
X126748444Y-141518414D01*
X126844951Y-141707820D01*
X126969890Y-141879786D01*
X127120213Y-142030109D01*
X127292182Y-142155050D01*
X127300946Y-142159516D01*
X127351742Y-142207491D01*
X127368536Y-142275312D01*
X127345998Y-142341447D01*
X127300946Y-142380484D01*
X127292182Y-142384949D01*
X127120213Y-142509890D01*
X126969892Y-142660211D01*
X126913097Y-142738385D01*
X126857767Y-142781051D01*
X126812779Y-142789500D01*
X125187221Y-142789500D01*
X125120182Y-142769815D01*
X125086903Y-142738385D01*
X125030107Y-142660211D01*
X124879786Y-142509890D01*
X124707820Y-142384951D01*
X124706405Y-142384230D01*
X124699054Y-142380485D01*
X124648259Y-142332512D01*
X124631463Y-142264692D01*
X124653999Y-142198556D01*
X124699054Y-142159515D01*
X124707816Y-142155051D01*
X124825535Y-142069524D01*
X124879786Y-142030109D01*
X124879788Y-142030106D01*
X124879792Y-142030104D01*
X125030104Y-141879792D01*
X125030106Y-141879788D01*
X125030109Y-141879786D01*
X125155048Y-141707820D01*
X125155047Y-141707820D01*
X125155051Y-141707816D01*
X125251557Y-141518412D01*
X125317246Y-141316243D01*
X125350500Y-141106287D01*
X125350500Y-140893713D01*
X125317246Y-140683757D01*
X125251557Y-140481588D01*
X125155051Y-140292184D01*
X125155049Y-140292181D01*
X125155048Y-140292179D01*
X125030109Y-140120213D01*
X124879786Y-139969890D01*
X124707820Y-139844951D01*
X124707115Y-139844591D01*
X124699054Y-139840485D01*
X124648259Y-139792512D01*
X124631463Y-139724692D01*
X124653999Y-139658556D01*
X124699054Y-139619515D01*
X124707816Y-139615051D01*
X124794138Y-139552335D01*
X124879786Y-139490109D01*
X124879788Y-139490106D01*
X124879792Y-139490104D01*
X125030104Y-139339792D01*
X125030106Y-139339788D01*
X125030109Y-139339786D01*
X125155048Y-139167820D01*
X125155047Y-139167820D01*
X125155051Y-139167816D01*
X125251557Y-138978412D01*
X125317246Y-138776243D01*
X125350500Y-138566287D01*
X125350500Y-138353713D01*
X125317246Y-138143757D01*
X125251557Y-137941588D01*
X125155051Y-137752184D01*
X125155049Y-137752181D01*
X125155048Y-137752179D01*
X125030109Y-137580213D01*
X124916181Y-137466285D01*
X124882696Y-137404962D01*
X124887680Y-137335270D01*
X124929552Y-137279337D01*
X124960529Y-137262422D01*
X125092086Y-137213354D01*
X125092093Y-137213350D01*
X125207187Y-137127190D01*
X125207190Y-137127187D01*
X125293350Y-137012093D01*
X125293354Y-137012086D01*
X125343596Y-136877379D01*
X125343598Y-136877372D01*
X125349999Y-136817844D01*
X125350000Y-136817827D01*
X125350000Y-136170000D01*
X124433012Y-136170000D01*
X124465925Y-136112993D01*
X124500000Y-135985826D01*
X124500000Y-135854174D01*
X124465925Y-135727007D01*
X124433012Y-135670000D01*
X125350000Y-135670000D01*
X125350000Y-135022172D01*
X125349999Y-135022155D01*
X125343598Y-134962627D01*
X125343596Y-134962620D01*
X125293354Y-134827913D01*
X125293350Y-134827906D01*
X125207190Y-134712812D01*
X125207187Y-134712809D01*
X125092093Y-134626649D01*
X125092086Y-134626645D01*
X124957379Y-134576403D01*
X124957372Y-134576401D01*
X124897844Y-134570000D01*
X124250000Y-134570000D01*
X124250000Y-135486988D01*
X124192993Y-135454075D01*
X124065826Y-135420000D01*
X123934174Y-135420000D01*
X123807007Y-135454075D01*
X123750000Y-135486988D01*
X123750000Y-134570000D01*
X123102155Y-134570000D01*
X123042627Y-134576401D01*
X123042620Y-134576403D01*
X122907913Y-134626645D01*
X122907906Y-134626649D01*
X122792812Y-134712809D01*
X122792809Y-134712812D01*
X122706649Y-134827906D01*
X122706645Y-134827913D01*
X122656403Y-134962620D01*
X122656401Y-134962627D01*
X122650000Y-135022155D01*
X122650000Y-135670000D01*
X123566988Y-135670000D01*
X123534075Y-135727007D01*
X123500000Y-135854174D01*
X123500000Y-135985826D01*
X123534075Y-136112993D01*
X123566988Y-136170000D01*
X122650000Y-136170000D01*
X122650000Y-136817844D01*
X122656401Y-136877372D01*
X122656403Y-136877379D01*
X122706645Y-137012086D01*
X122706649Y-137012093D01*
X122792809Y-137127187D01*
X122792812Y-137127190D01*
X122907906Y-137213350D01*
X122907913Y-137213354D01*
X123039470Y-137262422D01*
X123095404Y-137304293D01*
X123119821Y-137369758D01*
X123104969Y-137438031D01*
X123083819Y-137466285D01*
X122969889Y-137580215D01*
X122844951Y-137752179D01*
X122748444Y-137941585D01*
X122682753Y-138143760D01*
X122649500Y-138353713D01*
X122649500Y-138566286D01*
X122682552Y-138774973D01*
X122682754Y-138776243D01*
X122715716Y-138877690D01*
X122748444Y-138978414D01*
X122844951Y-139167820D01*
X122969890Y-139339786D01*
X123120213Y-139490109D01*
X123292182Y-139615050D01*
X123300946Y-139619516D01*
X123351742Y-139667491D01*
X123368536Y-139735312D01*
X123345998Y-139801447D01*
X123300946Y-139840484D01*
X123292182Y-139844949D01*
X123120213Y-139969890D01*
X122969890Y-140120213D01*
X122844951Y-140292179D01*
X122748444Y-140481585D01*
X122682753Y-140683760D01*
X122649500Y-140893713D01*
X122649500Y-141106286D01*
X122682753Y-141316239D01*
X122748444Y-141518414D01*
X122844951Y-141707820D01*
X122969890Y-141879786D01*
X123120213Y-142030109D01*
X123292182Y-142155050D01*
X123300946Y-142159516D01*
X123351742Y-142207491D01*
X123368536Y-142275312D01*
X123345998Y-142341447D01*
X123300946Y-142380484D01*
X123292182Y-142384949D01*
X123120213Y-142509890D01*
X122969892Y-142660211D01*
X122913097Y-142738385D01*
X122857767Y-142781051D01*
X122812779Y-142789500D01*
X119902229Y-142789500D01*
X119835190Y-142769815D01*
X119814548Y-142753181D01*
X118370175Y-141308807D01*
X118336690Y-141247484D01*
X118335383Y-141201728D01*
X118350500Y-141106285D01*
X118350500Y-140893713D01*
X118317246Y-140683760D01*
X118317246Y-140683757D01*
X118251557Y-140481588D01*
X118155051Y-140292184D01*
X118155049Y-140292181D01*
X118155048Y-140292179D01*
X118030109Y-140120213D01*
X117916569Y-140006673D01*
X117883084Y-139945350D01*
X117888068Y-139875658D01*
X117929940Y-139819725D01*
X117960915Y-139802810D01*
X118092331Y-139753796D01*
X118207546Y-139667546D01*
X118293796Y-139552331D01*
X118344091Y-139417483D01*
X118350500Y-139357873D01*
X118350499Y-137562128D01*
X118344091Y-137502517D01*
X118330577Y-137466285D01*
X118293797Y-137367671D01*
X118293793Y-137367664D01*
X118207547Y-137252455D01*
X118207544Y-137252452D01*
X118092335Y-137166206D01*
X118092328Y-137166202D01*
X117957482Y-137115908D01*
X117957483Y-137115908D01*
X117897883Y-137109501D01*
X117897881Y-137109500D01*
X117897873Y-137109500D01*
X117897865Y-137109500D01*
X117724500Y-137109500D01*
X117657461Y-137089815D01*
X117611706Y-137037011D01*
X117600500Y-136985500D01*
X117600500Y-87886555D01*
X117620185Y-87819516D01*
X117672989Y-87773761D01*
X117742147Y-87763817D01*
X117760411Y-87768840D01*
X117760676Y-87767969D01*
X117766492Y-87769732D01*
X117766503Y-87769737D01*
X117921153Y-87800499D01*
X117921156Y-87800500D01*
X117921158Y-87800500D01*
X118078844Y-87800500D01*
X118078845Y-87800499D01*
X118233497Y-87769737D01*
X118379179Y-87709394D01*
X118510289Y-87621789D01*
X118621789Y-87510289D01*
X118709394Y-87379179D01*
X118769737Y-87233497D01*
X118793617Y-87113444D01*
X118800638Y-87078150D01*
X118833023Y-87016239D01*
X118834518Y-87014716D01*
X120480519Y-85368716D01*
X120539078Y-85310157D01*
X120539090Y-85310143D01*
X123480520Y-82368716D01*
X123559577Y-82231784D01*
X123600501Y-82079057D01*
X123600501Y-81920942D01*
X123600501Y-81913347D01*
X123600500Y-81913329D01*
X123600500Y-79579765D01*
X123620185Y-79512726D01*
X123621398Y-79510874D01*
X123709390Y-79379185D01*
X123709390Y-79379184D01*
X123709394Y-79379179D01*
X123769737Y-79233497D01*
X123800500Y-79078842D01*
X123800500Y-78921158D01*
X123800500Y-78921155D01*
X123800499Y-78921153D01*
X123769737Y-78766503D01*
X123756424Y-78734362D01*
X123709397Y-78620827D01*
X123709390Y-78620814D01*
X123621789Y-78489710D01*
X123510292Y-78378213D01*
X123510288Y-78378210D01*
X123379185Y-78290609D01*
X123379172Y-78290602D01*
X123233501Y-78230264D01*
X123233489Y-78230261D01*
X123078845Y-78199500D01*
X123078842Y-78199500D01*
X122921158Y-78199500D01*
X122921155Y-78199500D01*
X122766510Y-78230261D01*
X122766498Y-78230264D01*
X122620827Y-78290602D01*
X122620814Y-78290609D01*
X122489711Y-78378210D01*
X122489707Y-78378213D01*
X122378213Y-78489707D01*
X122378211Y-78489710D01*
X122290609Y-78620814D01*
X122290602Y-78620827D01*
X122230264Y-78766498D01*
X122230261Y-78766510D01*
X122199500Y-78921153D01*
X122199500Y-79078846D01*
X122230261Y-79233489D01*
X122230264Y-79233501D01*
X122290602Y-79379172D01*
X122290609Y-79379185D01*
X122378602Y-79510874D01*
X122399480Y-79577551D01*
X122399500Y-79579765D01*
X122399500Y-81699902D01*
X122379815Y-81766941D01*
X122363181Y-81787583D01*
X119631284Y-84519481D01*
X117985339Y-86165425D01*
X117969111Y-86174285D01*
X117955897Y-86187216D01*
X117925714Y-86197982D01*
X117924016Y-86198910D01*
X117922696Y-86199190D01*
X117921192Y-86199500D01*
X117921158Y-86199500D01*
X117766503Y-86230263D01*
X117761074Y-86232511D01*
X117749538Y-86234890D01*
X117725772Y-86232930D01*
X117702056Y-86235396D01*
X117691591Y-86230111D01*
X117679905Y-86229148D01*
X117660969Y-86214648D01*
X117639687Y-86203902D01*
X117633740Y-86193799D01*
X117624430Y-86186670D01*
X117616340Y-86164237D01*
X117604245Y-86143689D01*
X117601795Y-86123906D01*
X117600727Y-86120944D01*
X117601182Y-86118955D01*
X117600500Y-86113444D01*
X117600500Y-72128113D01*
X117600501Y-72128100D01*
X117600501Y-71959999D01*
X117600501Y-71959997D01*
X117559577Y-71807269D01*
X117500052Y-71704169D01*
X117480520Y-71670338D01*
X117368716Y-71558534D01*
X117368713Y-71558532D01*
X110308527Y-64498346D01*
X110275042Y-64437023D01*
X110280026Y-64367331D01*
X110321898Y-64311398D01*
X110357893Y-64292733D01*
X110373383Y-64287701D01*
X110568257Y-64188407D01*
X110662056Y-64120258D01*
X110727861Y-64096779D01*
X110795915Y-64112604D01*
X110822621Y-64132896D01*
X125017899Y-78328174D01*
X125017909Y-78328185D01*
X125022239Y-78332515D01*
X125022240Y-78332516D01*
X125134044Y-78444320D01*
X125212664Y-78489711D01*
X125270975Y-78523377D01*
X125423703Y-78564301D01*
X125423706Y-78564301D01*
X125589413Y-78564301D01*
X125589429Y-78564300D01*
X130383698Y-78564300D01*
X130450737Y-78583985D01*
X130496492Y-78636789D01*
X130506436Y-78705947D01*
X130501630Y-78726616D01*
X130499075Y-78734479D01*
X130468000Y-78930678D01*
X130468000Y-79129321D01*
X130499075Y-79325520D01*
X130499075Y-79325523D01*
X130560457Y-79514437D01*
X130650641Y-79691432D01*
X130677730Y-79728715D01*
X131240504Y-79165941D01*
X131256619Y-79226081D01*
X131323498Y-79341920D01*
X131418080Y-79436502D01*
X131533919Y-79503381D01*
X131594057Y-79519494D01*
X131031283Y-80082268D01*
X131031283Y-80082269D01*
X131068567Y-80109358D01*
X131225331Y-80189234D01*
X131276127Y-80237209D01*
X131292922Y-80305030D01*
X131270384Y-80371165D01*
X131225331Y-80410204D01*
X131068305Y-80490213D01*
X130907533Y-80607021D01*
X130767021Y-80747533D01*
X130650213Y-80908305D01*
X130559994Y-81085367D01*
X130559993Y-81085370D01*
X130498587Y-81274362D01*
X130467500Y-81470639D01*
X130467500Y-81669360D01*
X130498586Y-81865636D01*
X130499131Y-81867903D01*
X130499086Y-81868790D01*
X130499349Y-81870448D01*
X130499000Y-81870503D01*
X130495638Y-81937685D01*
X130466237Y-81984526D01*
X130028319Y-82422445D01*
X129631286Y-82819478D01*
X129631284Y-82819480D01*
X129603264Y-82847500D01*
X129519480Y-82931283D01*
X129515559Y-82938074D01*
X129513737Y-82941232D01*
X129455917Y-83041378D01*
X129446477Y-83057730D01*
X129440423Y-83068215D01*
X129399499Y-83220943D01*
X129399499Y-83220945D01*
X129399499Y-83389046D01*
X129399500Y-83389059D01*
X129399500Y-89420234D01*
X129379815Y-89487273D01*
X129378602Y-89489125D01*
X129290609Y-89620814D01*
X129290602Y-89620827D01*
X129230264Y-89766498D01*
X129230261Y-89766510D01*
X129199500Y-89921153D01*
X129199500Y-90078846D01*
X129230261Y-90233489D01*
X129230264Y-90233501D01*
X129290602Y-90379172D01*
X129290609Y-90379185D01*
X129378210Y-90510288D01*
X129378213Y-90510292D01*
X129489707Y-90621786D01*
X129489711Y-90621789D01*
X129620814Y-90709390D01*
X129620827Y-90709397D01*
X129764337Y-90768840D01*
X129766503Y-90769737D01*
X129921153Y-90800499D01*
X129921156Y-90800500D01*
X129921158Y-90800500D01*
X130078844Y-90800500D01*
X130078845Y-90800499D01*
X130233497Y-90769737D01*
X130379179Y-90709394D01*
X130510289Y-90621789D01*
X130621789Y-90510289D01*
X130709394Y-90379179D01*
X130754706Y-90269786D01*
X130767056Y-90239970D01*
X130810896Y-90185566D01*
X130877191Y-90163501D01*
X130944890Y-90180780D01*
X130954496Y-90187099D01*
X131068306Y-90269787D01*
X131186832Y-90330179D01*
X131224780Y-90349515D01*
X131275576Y-90397490D01*
X131292371Y-90465311D01*
X131269833Y-90531446D01*
X131224780Y-90570485D01*
X131068305Y-90650213D01*
X130907533Y-90767021D01*
X130767021Y-90907533D01*
X130650210Y-91068309D01*
X130649000Y-91070285D01*
X130648343Y-91070878D01*
X130647349Y-91072248D01*
X130647061Y-91072039D01*
X130597190Y-91117163D01*
X130543270Y-91129500D01*
X123030097Y-91129500D01*
X123000656Y-91120855D01*
X122970670Y-91114332D01*
X122965654Y-91110577D01*
X122963058Y-91109815D01*
X122942416Y-91093181D01*
X122834574Y-90985339D01*
X122801089Y-90924016D01*
X122800638Y-90921849D01*
X122776499Y-90800499D01*
X122769737Y-90766503D01*
X122769735Y-90766498D01*
X122709397Y-90620827D01*
X122709390Y-90620814D01*
X122621789Y-90489711D01*
X122621786Y-90489707D01*
X122510292Y-90378213D01*
X122510288Y-90378210D01*
X122379185Y-90290609D01*
X122379172Y-90290602D01*
X122233501Y-90230264D01*
X122233489Y-90230261D01*
X122078845Y-90199500D01*
X122078842Y-90199500D01*
X121921158Y-90199500D01*
X121921155Y-90199500D01*
X121766510Y-90230261D01*
X121766498Y-90230264D01*
X121620827Y-90290602D01*
X121620814Y-90290609D01*
X121489711Y-90378210D01*
X121489707Y-90378213D01*
X121378213Y-90489707D01*
X121378210Y-90489711D01*
X121290609Y-90620814D01*
X121290602Y-90620827D01*
X121230264Y-90766498D01*
X121230261Y-90766510D01*
X121199500Y-90921153D01*
X121199500Y-91078846D01*
X121230261Y-91233489D01*
X121230264Y-91233501D01*
X121290602Y-91379172D01*
X121290609Y-91379185D01*
X121378210Y-91510288D01*
X121378213Y-91510292D01*
X121489707Y-91621786D01*
X121489711Y-91621789D01*
X121620814Y-91709390D01*
X121620827Y-91709397D01*
X121758683Y-91766498D01*
X121766503Y-91769737D01*
X121831147Y-91782595D01*
X121921849Y-91800638D01*
X121983760Y-91833023D01*
X121985339Y-91834574D01*
X122245139Y-92094374D01*
X122245149Y-92094385D01*
X122249479Y-92098715D01*
X122249480Y-92098716D01*
X122361284Y-92210520D01*
X122408882Y-92238000D01*
X122448095Y-92260639D01*
X122448097Y-92260641D01*
X122486151Y-92282611D01*
X122498215Y-92289577D01*
X122650943Y-92330501D01*
X122650946Y-92330501D01*
X122816653Y-92330501D01*
X122816669Y-92330500D01*
X126252604Y-92330500D01*
X126319643Y-92350185D01*
X126365398Y-92402989D01*
X126375342Y-92472147D01*
X126355706Y-92523391D01*
X126290609Y-92620814D01*
X126290602Y-92620827D01*
X126230264Y-92766498D01*
X126230261Y-92766510D01*
X126199500Y-92921153D01*
X126199500Y-93078846D01*
X126230261Y-93233489D01*
X126230264Y-93233501D01*
X126290602Y-93379172D01*
X126290609Y-93379185D01*
X126378602Y-93510874D01*
X126399480Y-93577551D01*
X126399500Y-93579765D01*
X126399500Y-96699903D01*
X126379815Y-96766942D01*
X126363181Y-96787584D01*
X121985339Y-101165425D01*
X121924016Y-101198910D01*
X121921850Y-101199361D01*
X121766508Y-101230261D01*
X121766498Y-101230264D01*
X121620827Y-101290602D01*
X121620814Y-101290609D01*
X121489711Y-101378210D01*
X121489707Y-101378213D01*
X121378213Y-101489707D01*
X121378210Y-101489711D01*
X121290609Y-101620814D01*
X121290602Y-101620827D01*
X121230264Y-101766498D01*
X121230261Y-101766510D01*
X121199500Y-101921153D01*
X121199500Y-102078846D01*
X121230261Y-102233489D01*
X121230264Y-102233501D01*
X121290602Y-102379172D01*
X121290609Y-102379185D01*
X121378210Y-102510288D01*
X121378213Y-102510292D01*
X121489707Y-102621786D01*
X121489711Y-102621789D01*
X121620814Y-102709390D01*
X121620827Y-102709397D01*
X121766498Y-102769735D01*
X121766503Y-102769737D01*
X121921153Y-102800499D01*
X121921156Y-102800500D01*
X121921158Y-102800500D01*
X122078844Y-102800500D01*
X122078845Y-102800499D01*
X122233497Y-102769737D01*
X122346166Y-102723067D01*
X122379172Y-102709397D01*
X122379172Y-102709396D01*
X122379179Y-102709394D01*
X122510289Y-102621789D01*
X122621789Y-102510289D01*
X122709394Y-102379179D01*
X122711278Y-102374632D01*
X122769735Y-102233501D01*
X122769737Y-102233497D01*
X122789113Y-102136085D01*
X122800638Y-102078150D01*
X122833023Y-102016239D01*
X122834519Y-102014715D01*
X127187819Y-97661414D01*
X127249142Y-97627930D01*
X127318834Y-97632914D01*
X127374767Y-97674786D01*
X127399184Y-97740250D01*
X127399500Y-97749096D01*
X127399500Y-103420234D01*
X127379815Y-103487273D01*
X127378602Y-103489125D01*
X127290609Y-103620814D01*
X127290602Y-103620827D01*
X127230264Y-103766498D01*
X127230261Y-103766510D01*
X127199500Y-103921153D01*
X127199500Y-104078846D01*
X127230261Y-104233489D01*
X127230264Y-104233501D01*
X127290602Y-104379172D01*
X127290609Y-104379185D01*
X127378210Y-104510288D01*
X127378213Y-104510292D01*
X127489707Y-104621786D01*
X127489711Y-104621789D01*
X127620814Y-104709390D01*
X127620827Y-104709397D01*
X127699346Y-104741920D01*
X127766503Y-104769737D01*
X127921153Y-104800499D01*
X127921156Y-104800500D01*
X127921158Y-104800500D01*
X128078844Y-104800500D01*
X128078845Y-104800499D01*
X128233497Y-104769737D01*
X128379179Y-104709394D01*
X128510289Y-104621789D01*
X128621789Y-104510289D01*
X128709394Y-104379179D01*
X128769737Y-104233497D01*
X128800500Y-104078842D01*
X128800500Y-103921158D01*
X128800500Y-103921155D01*
X128800499Y-103921153D01*
X128770147Y-103768566D01*
X128769737Y-103766503D01*
X128755148Y-103731282D01*
X128709397Y-103620827D01*
X128709390Y-103620814D01*
X128621398Y-103489125D01*
X128600520Y-103422447D01*
X128600500Y-103420234D01*
X128600500Y-93579765D01*
X128620185Y-93512726D01*
X128621398Y-93510874D01*
X128709390Y-93379185D01*
X128709390Y-93379184D01*
X128709394Y-93379179D01*
X128769737Y-93233497D01*
X128800500Y-93078842D01*
X128800500Y-92921158D01*
X128800500Y-92921155D01*
X128800499Y-92921153D01*
X128782969Y-92833023D01*
X128769737Y-92766503D01*
X128746080Y-92709390D01*
X128709397Y-92620827D01*
X128709390Y-92620814D01*
X128644294Y-92523391D01*
X128623416Y-92456713D01*
X128641901Y-92389333D01*
X128693879Y-92342643D01*
X128747396Y-92330500D01*
X130543270Y-92330500D01*
X130610309Y-92350185D01*
X130647191Y-92387866D01*
X130647349Y-92387752D01*
X130648127Y-92388823D01*
X130649000Y-92389715D01*
X130650210Y-92391690D01*
X130650213Y-92391694D01*
X130767019Y-92552464D01*
X130907536Y-92692981D01*
X131068306Y-92809787D01*
X131186832Y-92870179D01*
X131224780Y-92889515D01*
X131275576Y-92937490D01*
X131292371Y-93005311D01*
X131269833Y-93071446D01*
X131224780Y-93110485D01*
X131068305Y-93190213D01*
X130907533Y-93307021D01*
X130767021Y-93447533D01*
X130650213Y-93608305D01*
X130559994Y-93785367D01*
X130559993Y-93785370D01*
X130498587Y-93974362D01*
X130467500Y-94170639D01*
X130467500Y-94369360D01*
X130498587Y-94565637D01*
X130559993Y-94754629D01*
X130559994Y-94754632D01*
X130650213Y-94931694D01*
X130767019Y-95092464D01*
X130907536Y-95232981D01*
X131068306Y-95349787D01*
X131186832Y-95410179D01*
X131224780Y-95429515D01*
X131275576Y-95477490D01*
X131292371Y-95545311D01*
X131269833Y-95611446D01*
X131224780Y-95650485D01*
X131068305Y-95730213D01*
X130907533Y-95847021D01*
X130767021Y-95987533D01*
X130650213Y-96148305D01*
X130559994Y-96325367D01*
X130559993Y-96325370D01*
X130498587Y-96514362D01*
X130467500Y-96710639D01*
X130467500Y-96909360D01*
X130498587Y-97105637D01*
X130559993Y-97294629D01*
X130559994Y-97294632D01*
X130602780Y-97378602D01*
X130650213Y-97471694D01*
X130767019Y-97632464D01*
X130907536Y-97772981D01*
X131068306Y-97889787D01*
X131225332Y-97969796D01*
X131276127Y-98017769D01*
X131292922Y-98085590D01*
X131270385Y-98151725D01*
X131225332Y-98190764D01*
X131068566Y-98270641D01*
X131031283Y-98297729D01*
X131031282Y-98297730D01*
X131594058Y-98860504D01*
X131533919Y-98876619D01*
X131418080Y-98943498D01*
X131323498Y-99038080D01*
X131256619Y-99153919D01*
X131240504Y-99214057D01*
X130677730Y-98651282D01*
X130677729Y-98651283D01*
X130650643Y-98688564D01*
X130560457Y-98865562D01*
X130499075Y-99054476D01*
X130499075Y-99054479D01*
X130468000Y-99250678D01*
X130468000Y-99449321D01*
X130499075Y-99645520D01*
X130499075Y-99645523D01*
X130560457Y-99834437D01*
X130650641Y-100011432D01*
X130677730Y-100048715D01*
X130677731Y-100048716D01*
X131240504Y-99485942D01*
X131256619Y-99546081D01*
X131323498Y-99661920D01*
X131418080Y-99756502D01*
X131533919Y-99823381D01*
X131594057Y-99839494D01*
X131031283Y-100402268D01*
X131031283Y-100402269D01*
X131068567Y-100429358D01*
X131225331Y-100509234D01*
X131276127Y-100557209D01*
X131292922Y-100625030D01*
X131270384Y-100691165D01*
X131225331Y-100730204D01*
X131068305Y-100810213D01*
X130907533Y-100927021D01*
X130767021Y-101067533D01*
X130650213Y-101228305D01*
X130559994Y-101405367D01*
X130559993Y-101405370D01*
X130498587Y-101594362D01*
X130467500Y-101790639D01*
X130467500Y-101989360D01*
X130498587Y-102185637D01*
X130559993Y-102374629D01*
X130559994Y-102374632D01*
X130650213Y-102551694D01*
X130767019Y-102712464D01*
X130907536Y-102852981D01*
X131068306Y-102969787D01*
X131186832Y-103030179D01*
X131224780Y-103049515D01*
X131275576Y-103097490D01*
X131292371Y-103165311D01*
X131269833Y-103231446D01*
X131224780Y-103270485D01*
X131068305Y-103350213D01*
X130907533Y-103467021D01*
X130767021Y-103607533D01*
X130650213Y-103768305D01*
X130559994Y-103945367D01*
X130559993Y-103945370D01*
X130498587Y-104134362D01*
X130467500Y-104330639D01*
X130467500Y-104529360D01*
X130498587Y-104725637D01*
X130559993Y-104914629D01*
X130559994Y-104914632D01*
X130650080Y-105091432D01*
X130650213Y-105091694D01*
X130767019Y-105252464D01*
X130907536Y-105392981D01*
X131068306Y-105509787D01*
X131186832Y-105570179D01*
X131224780Y-105589515D01*
X131275576Y-105637490D01*
X131292371Y-105705311D01*
X131269833Y-105771446D01*
X131224780Y-105810485D01*
X131068305Y-105890213D01*
X130907533Y-106007021D01*
X130767021Y-106147533D01*
X130650213Y-106308305D01*
X130559994Y-106485367D01*
X130559993Y-106485370D01*
X130498587Y-106674362D01*
X130467500Y-106870639D01*
X130467500Y-107069360D01*
X130498587Y-107265637D01*
X130559993Y-107454629D01*
X130559994Y-107454632D01*
X130650213Y-107631694D01*
X130767019Y-107792464D01*
X130907536Y-107932981D01*
X131068306Y-108049787D01*
X131100595Y-108066239D01*
X131224780Y-108129515D01*
X131275576Y-108177490D01*
X131292371Y-108245311D01*
X131269833Y-108311446D01*
X131224780Y-108350485D01*
X131068305Y-108430213D01*
X130907533Y-108547021D01*
X130767021Y-108687533D01*
X130650213Y-108848305D01*
X130559994Y-109025367D01*
X130559993Y-109025370D01*
X130498587Y-109214362D01*
X130467500Y-109410639D01*
X130467500Y-109609360D01*
X130498587Y-109805637D01*
X130559993Y-109994629D01*
X130559994Y-109994632D01*
X130650080Y-110171432D01*
X130650213Y-110171694D01*
X130767019Y-110332464D01*
X130907536Y-110472981D01*
X131068306Y-110589787D01*
X131186674Y-110650099D01*
X131224780Y-110669515D01*
X131275576Y-110717490D01*
X131292371Y-110785311D01*
X131269833Y-110851446D01*
X131224780Y-110890485D01*
X131068305Y-110970213D01*
X130907533Y-111087021D01*
X130767021Y-111227533D01*
X130650213Y-111388305D01*
X130559994Y-111565367D01*
X130559993Y-111565370D01*
X130498587Y-111754362D01*
X130467500Y-111950639D01*
X130467500Y-112149360D01*
X130498587Y-112345637D01*
X130559993Y-112534629D01*
X130559994Y-112534632D01*
X130612551Y-112637779D01*
X130650213Y-112711694D01*
X130767019Y-112872464D01*
X130907536Y-113012981D01*
X131068306Y-113129787D01*
X131160654Y-113176841D01*
X131224780Y-113209515D01*
X131275576Y-113257490D01*
X131292371Y-113325311D01*
X131269833Y-113391446D01*
X131224780Y-113430485D01*
X131068305Y-113510213D01*
X130907533Y-113627021D01*
X130767021Y-113767533D01*
X130650213Y-113928305D01*
X130559994Y-114105367D01*
X130559993Y-114105370D01*
X130498587Y-114294362D01*
X130467500Y-114490639D01*
X130467500Y-114689360D01*
X130498587Y-114885637D01*
X130559993Y-115074629D01*
X130559994Y-115074632D01*
X130650215Y-115251698D01*
X130660907Y-115266414D01*
X130684388Y-115332220D01*
X130668563Y-115400274D01*
X130618458Y-115448969D01*
X130560590Y-115463300D01*
X125022869Y-115463300D01*
X125022853Y-115463299D01*
X125015257Y-115463299D01*
X124857143Y-115463299D01*
X124749787Y-115492065D01*
X124704410Y-115504224D01*
X124704409Y-115504225D01*
X124654296Y-115533159D01*
X124654295Y-115533160D01*
X124610889Y-115558220D01*
X124567485Y-115583279D01*
X124567484Y-115583280D01*
X121519481Y-118631282D01*
X121519475Y-118631290D01*
X121484779Y-118691387D01*
X121484779Y-118691388D01*
X121440424Y-118768211D01*
X121440423Y-118768212D01*
X121415868Y-118859851D01*
X121399499Y-118920943D01*
X121399499Y-118920945D01*
X121399499Y-119089046D01*
X121399500Y-119089059D01*
X121399500Y-123913330D01*
X121399499Y-123913348D01*
X121399499Y-124079054D01*
X121399498Y-124079054D01*
X121440423Y-124231785D01*
X121469358Y-124281900D01*
X121469359Y-124281904D01*
X121469360Y-124281904D01*
X121519479Y-124368714D01*
X121519481Y-124368717D01*
X121638349Y-124487585D01*
X121638355Y-124487590D01*
X127515139Y-130364374D01*
X127515149Y-130364385D01*
X127519479Y-130368715D01*
X127519480Y-130368716D01*
X127631284Y-130480520D01*
X127631286Y-130480521D01*
X127631290Y-130480524D01*
X127768209Y-130559573D01*
X127768216Y-130559577D01*
X127880019Y-130589534D01*
X127920942Y-130600500D01*
X127920943Y-130600500D01*
X129420234Y-130600500D01*
X129487273Y-130620185D01*
X129489125Y-130621398D01*
X129620814Y-130709390D01*
X129620827Y-130709397D01*
X129766498Y-130769735D01*
X129766503Y-130769737D01*
X129921153Y-130800499D01*
X129921156Y-130800500D01*
X129921158Y-130800500D01*
X130078844Y-130800500D01*
X130078845Y-130800499D01*
X130233497Y-130769737D01*
X130379179Y-130709394D01*
X130510289Y-130621789D01*
X130621789Y-130510289D01*
X130709394Y-130379179D01*
X130769737Y-130233497D01*
X130800500Y-130078842D01*
X130800500Y-129921158D01*
X130800500Y-129921155D01*
X130800499Y-129921153D01*
X130769738Y-129766510D01*
X130769737Y-129766503D01*
X130769735Y-129766498D01*
X130709397Y-129620827D01*
X130709390Y-129620814D01*
X130621789Y-129489711D01*
X130621786Y-129489707D01*
X130510292Y-129378213D01*
X130510288Y-129378210D01*
X130379185Y-129290609D01*
X130379172Y-129290602D01*
X130233501Y-129230264D01*
X130233489Y-129230261D01*
X130078845Y-129199500D01*
X130078842Y-129199500D01*
X129921158Y-129199500D01*
X129921155Y-129199500D01*
X129766510Y-129230261D01*
X129766498Y-129230264D01*
X129620827Y-129290602D01*
X129620814Y-129290609D01*
X129489125Y-129378602D01*
X129422447Y-129399480D01*
X129420234Y-129399500D01*
X128300097Y-129399500D01*
X128233058Y-129379815D01*
X128212416Y-129363181D01*
X122636819Y-123787584D01*
X122603334Y-123726261D01*
X122600500Y-123699903D01*
X122600500Y-120012332D01*
X123487500Y-120012332D01*
X123487500Y-120287667D01*
X123487501Y-120287684D01*
X123523438Y-120560655D01*
X123523439Y-120560660D01*
X123523440Y-120560666D01*
X123523441Y-120560668D01*
X123594704Y-120826630D01*
X123700075Y-121081017D01*
X123700080Y-121081028D01*
X123724957Y-121124115D01*
X123837751Y-121319479D01*
X123837753Y-121319482D01*
X123837754Y-121319483D01*
X124005370Y-121537926D01*
X124005376Y-121537933D01*
X124200066Y-121732623D01*
X124200072Y-121732628D01*
X124418521Y-121900249D01*
X124571778Y-121988732D01*
X124656971Y-122037919D01*
X124656976Y-122037921D01*
X124656979Y-122037923D01*
X124911368Y-122143295D01*
X125177334Y-122214560D01*
X125450326Y-122250500D01*
X125450333Y-122250500D01*
X125725667Y-122250500D01*
X125725674Y-122250500D01*
X125998666Y-122214560D01*
X126264632Y-122143295D01*
X126519021Y-122037923D01*
X126757479Y-121900249D01*
X126975928Y-121732628D01*
X127170628Y-121537928D01*
X127338249Y-121319479D01*
X127475923Y-121081021D01*
X127581295Y-120826632D01*
X127652560Y-120560666D01*
X127688500Y-120287674D01*
X127688500Y-120012326D01*
X127652560Y-119739334D01*
X127581295Y-119473368D01*
X127475923Y-119218979D01*
X127475921Y-119218976D01*
X127475919Y-119218971D01*
X127426732Y-119133778D01*
X127338249Y-118980521D01*
X127175342Y-118768215D01*
X127170629Y-118762073D01*
X127170623Y-118762066D01*
X126975933Y-118567376D01*
X126975926Y-118567370D01*
X126757483Y-118399754D01*
X126757482Y-118399753D01*
X126757479Y-118399751D01*
X126645074Y-118334854D01*
X126519028Y-118262080D01*
X126519017Y-118262075D01*
X126264630Y-118156704D01*
X126131649Y-118121072D01*
X125998666Y-118085440D01*
X125998660Y-118085439D01*
X125998655Y-118085438D01*
X125725684Y-118049501D01*
X125725679Y-118049500D01*
X125725674Y-118049500D01*
X125450326Y-118049500D01*
X125450320Y-118049500D01*
X125450315Y-118049501D01*
X125177344Y-118085438D01*
X125177337Y-118085439D01*
X125177334Y-118085440D01*
X125149183Y-118092983D01*
X124911369Y-118156704D01*
X124656982Y-118262075D01*
X124656971Y-118262080D01*
X124418516Y-118399754D01*
X124200073Y-118567370D01*
X124200066Y-118567376D01*
X124005376Y-118762066D01*
X124005370Y-118762073D01*
X123837754Y-118980516D01*
X123700080Y-119218971D01*
X123700075Y-119218982D01*
X123594704Y-119473369D01*
X123523441Y-119739331D01*
X123523438Y-119739344D01*
X123487501Y-120012315D01*
X123487500Y-120012332D01*
X122600500Y-120012332D01*
X122600500Y-119300097D01*
X122620185Y-119233058D01*
X122636819Y-119212416D01*
X125148616Y-116700619D01*
X125209939Y-116667134D01*
X125236297Y-116664300D01*
X130383698Y-116664300D01*
X130450737Y-116683985D01*
X130496492Y-116736789D01*
X130506436Y-116805947D01*
X130501630Y-116826616D01*
X130499075Y-116834479D01*
X130468000Y-117030678D01*
X130468000Y-117229321D01*
X130499075Y-117425520D01*
X130499075Y-117425523D01*
X130560457Y-117614437D01*
X130650641Y-117791432D01*
X130677730Y-117828715D01*
X131240504Y-117265941D01*
X131256619Y-117326081D01*
X131323498Y-117441920D01*
X131418080Y-117536502D01*
X131533919Y-117603381D01*
X131594057Y-117619494D01*
X131031283Y-118182268D01*
X131031283Y-118182269D01*
X131068567Y-118209358D01*
X131245562Y-118299542D01*
X131434477Y-118360924D01*
X131630679Y-118392000D01*
X131678532Y-118392000D01*
X131745571Y-118411685D01*
X131791326Y-118464489D01*
X131801270Y-118533647D01*
X131772245Y-118597203D01*
X131725985Y-118630560D01*
X131724225Y-118631290D01*
X131458728Y-118741262D01*
X131458723Y-118741264D01*
X131146752Y-118908017D01*
X131146734Y-118908028D01*
X130852606Y-119104558D01*
X130852592Y-119104568D01*
X130579130Y-119328992D01*
X130328992Y-119579130D01*
X130104568Y-119852592D01*
X130104558Y-119852606D01*
X129908028Y-120146734D01*
X129908017Y-120146752D01*
X129741264Y-120458723D01*
X129741262Y-120458728D01*
X129605882Y-120785563D01*
X129503188Y-121124104D01*
X129503185Y-121124115D01*
X129434176Y-121471053D01*
X129434173Y-121471070D01*
X129399500Y-121823122D01*
X129399500Y-122176877D01*
X129434173Y-122528929D01*
X129434176Y-122528946D01*
X129503185Y-122875884D01*
X129503188Y-122875895D01*
X129605882Y-123214436D01*
X129741262Y-123541271D01*
X129741264Y-123541276D01*
X129908017Y-123853247D01*
X129908028Y-123853265D01*
X130104558Y-124147393D01*
X130104568Y-124147407D01*
X130328992Y-124420869D01*
X130579130Y-124671007D01*
X130579135Y-124671011D01*
X130579136Y-124671012D01*
X130852598Y-124895436D01*
X131146741Y-125091976D01*
X131146750Y-125091981D01*
X131146752Y-125091982D01*
X131458723Y-125258735D01*
X131458725Y-125258735D01*
X131458731Y-125258739D01*
X131785565Y-125394118D01*
X132124095Y-125496809D01*
X132124101Y-125496810D01*
X132124104Y-125496811D01*
X132124115Y-125496814D01*
X132341674Y-125540088D01*
X132471060Y-125565825D01*
X132823119Y-125600500D01*
X132823122Y-125600500D01*
X133176878Y-125600500D01*
X133176881Y-125600500D01*
X133528940Y-125565825D01*
X133700679Y-125531663D01*
X133875884Y-125496814D01*
X133875895Y-125496811D01*
X133875895Y-125496810D01*
X133875905Y-125496809D01*
X134214435Y-125394118D01*
X134541269Y-125258739D01*
X134853259Y-125091976D01*
X135147402Y-124895436D01*
X135420864Y-124671012D01*
X135671012Y-124420864D01*
X135895436Y-124147402D01*
X136091976Y-123853259D01*
X136241142Y-123574191D01*
X136290104Y-123524346D01*
X136358242Y-123508886D01*
X136423922Y-123532718D01*
X136466291Y-123588276D01*
X136474500Y-123632644D01*
X136474500Y-142496753D01*
X136474330Y-142503243D01*
X136458544Y-142804433D01*
X136457187Y-142817340D01*
X136410517Y-143112010D01*
X136407819Y-143124706D01*
X136330600Y-143412892D01*
X136326589Y-143425237D01*
X136219670Y-143703770D01*
X136214391Y-143715627D01*
X136078941Y-143981464D01*
X136072455Y-143992697D01*
X135987867Y-144122952D01*
X135909962Y-144242914D01*
X135902333Y-144253414D01*
X135714570Y-144485282D01*
X135705885Y-144494927D01*
X135494927Y-144705885D01*
X135485282Y-144714570D01*
X135253414Y-144902333D01*
X135242914Y-144909962D01*
X134992697Y-145072455D01*
X134981464Y-145078941D01*
X134715627Y-145214391D01*
X134703770Y-145219670D01*
X134425237Y-145326589D01*
X134412892Y-145330600D01*
X134124706Y-145407819D01*
X134112010Y-145410517D01*
X133817340Y-145457187D01*
X133804433Y-145458544D01*
X133503244Y-145474330D01*
X133496754Y-145474500D01*
X83503246Y-145474500D01*
X83496756Y-145474330D01*
X83195566Y-145458544D01*
X83182659Y-145457187D01*
X82887989Y-145410517D01*
X82875293Y-145407819D01*
X82587107Y-145330600D01*
X82574762Y-145326589D01*
X82296229Y-145219670D01*
X82284372Y-145214391D01*
X82255029Y-145199440D01*
X82018529Y-145078937D01*
X82007310Y-145072460D01*
X81757079Y-144909958D01*
X81746585Y-144902333D01*
X81514717Y-144714570D01*
X81505072Y-144705885D01*
X81294114Y-144494927D01*
X81285429Y-144485282D01*
X81097666Y-144253414D01*
X81090044Y-144242923D01*
X80927535Y-143992683D01*
X80921065Y-143981477D01*
X80785603Y-143715617D01*
X80780334Y-143703781D01*
X80673407Y-143425228D01*
X80669402Y-143412901D01*
X80592176Y-143124690D01*
X80589484Y-143112022D01*
X80542812Y-142817340D01*
X80541455Y-142804433D01*
X80525670Y-142503243D01*
X80525500Y-142496753D01*
X80525500Y-123632644D01*
X80545185Y-123565605D01*
X80597989Y-123519850D01*
X80667147Y-123509906D01*
X80730703Y-123538931D01*
X80758858Y-123574191D01*
X80908017Y-123853247D01*
X80908028Y-123853265D01*
X81104558Y-124147393D01*
X81104568Y-124147407D01*
X81328992Y-124420869D01*
X81579130Y-124671007D01*
X81579135Y-124671011D01*
X81579136Y-124671012D01*
X81852598Y-124895436D01*
X82146741Y-125091976D01*
X82146750Y-125091981D01*
X82146752Y-125091982D01*
X82458723Y-125258735D01*
X82458725Y-125258735D01*
X82458731Y-125258739D01*
X82785565Y-125394118D01*
X83124095Y-125496809D01*
X83124101Y-125496810D01*
X83124104Y-125496811D01*
X83124115Y-125496814D01*
X83341674Y-125540088D01*
X83471060Y-125565825D01*
X83823119Y-125600500D01*
X83823122Y-125600500D01*
X84176878Y-125600500D01*
X84176881Y-125600500D01*
X84528940Y-125565825D01*
X84700679Y-125531663D01*
X84875884Y-125496814D01*
X84875895Y-125496811D01*
X84875895Y-125496810D01*
X84875905Y-125496809D01*
X85214435Y-125394118D01*
X85541269Y-125258739D01*
X85853259Y-125091976D01*
X86147402Y-124895436D01*
X86420864Y-124671012D01*
X86671012Y-124420864D01*
X86895436Y-124147402D01*
X87091976Y-123853259D01*
X87258739Y-123541269D01*
X87394118Y-123214435D01*
X87496809Y-122875905D01*
X87496811Y-122875895D01*
X87496814Y-122875884D01*
X87531663Y-122700679D01*
X87565825Y-122528940D01*
X87600500Y-122176881D01*
X87600500Y-121823119D01*
X87565825Y-121471060D01*
X87525500Y-121268333D01*
X87496814Y-121124115D01*
X87496811Y-121124104D01*
X87496810Y-121124101D01*
X87496809Y-121124095D01*
X87394118Y-120785565D01*
X87258739Y-120458731D01*
X87091976Y-120146741D01*
X86895436Y-119852598D01*
X86671012Y-119579136D01*
X86671011Y-119579135D01*
X86671007Y-119579130D01*
X86420869Y-119328992D01*
X86147407Y-119104568D01*
X86147406Y-119104567D01*
X86147402Y-119104564D01*
X85853259Y-118908024D01*
X85853254Y-118908021D01*
X85853247Y-118908017D01*
X85541276Y-118741264D01*
X85541271Y-118741262D01*
X85214436Y-118605882D01*
X84875895Y-118503188D01*
X84875884Y-118503185D01*
X84528946Y-118434176D01*
X84528929Y-118434173D01*
X84238977Y-118405616D01*
X84176881Y-118399500D01*
X83823119Y-118399500D01*
X83761023Y-118405616D01*
X83471070Y-118434173D01*
X83471053Y-118434176D01*
X83124115Y-118503185D01*
X83124104Y-118503188D01*
X82785563Y-118605882D01*
X82458728Y-118741262D01*
X82458723Y-118741264D01*
X82146752Y-118908017D01*
X82146734Y-118908028D01*
X81852606Y-119104558D01*
X81852592Y-119104568D01*
X81579130Y-119328992D01*
X81328992Y-119579130D01*
X81104568Y-119852592D01*
X81104558Y-119852606D01*
X80908028Y-120146734D01*
X80908022Y-120146744D01*
X80758858Y-120425809D01*
X80709895Y-120475653D01*
X80641758Y-120491113D01*
X80576078Y-120467281D01*
X80533709Y-120411723D01*
X80525500Y-120367355D01*
X80525500Y-107643713D01*
X87032000Y-107643713D01*
X87032000Y-107856286D01*
X87062647Y-108049787D01*
X87065254Y-108066243D01*
X87124148Y-108247500D01*
X87130944Y-108268414D01*
X87227451Y-108457820D01*
X87352390Y-108629786D01*
X87491568Y-108768964D01*
X87525053Y-108830287D01*
X87520069Y-108899979D01*
X87478197Y-108955912D01*
X87468984Y-108962183D01*
X87314159Y-109057680D01*
X87314155Y-109057683D01*
X87190184Y-109181654D01*
X87098143Y-109330875D01*
X87098141Y-109330880D01*
X87042994Y-109497302D01*
X87042993Y-109497309D01*
X87032500Y-109600013D01*
X87032500Y-110000000D01*
X88099488Y-110000000D01*
X88066575Y-110057007D01*
X88032500Y-110184174D01*
X88032500Y-110315826D01*
X88066575Y-110442993D01*
X88099488Y-110500000D01*
X87032501Y-110500000D01*
X87032501Y-110899986D01*
X87042994Y-111002697D01*
X87098141Y-111169119D01*
X87098143Y-111169124D01*
X87190184Y-111318345D01*
X87314154Y-111442315D01*
X87463375Y-111534356D01*
X87463380Y-111534358D01*
X87629802Y-111589505D01*
X87629809Y-111589506D01*
X87732519Y-111599999D01*
X88282499Y-111599999D01*
X88282500Y-111599998D01*
X88282500Y-110683012D01*
X88339507Y-110715925D01*
X88466674Y-110750000D01*
X88598326Y-110750000D01*
X88725493Y-110715925D01*
X88782500Y-110683012D01*
X88782500Y-111599999D01*
X89332472Y-111599999D01*
X89332486Y-111599998D01*
X89435197Y-111589505D01*
X89601619Y-111534358D01*
X89601624Y-111534356D01*
X89750845Y-111442315D01*
X89874815Y-111318345D01*
X89966856Y-111169124D01*
X89966858Y-111169119D01*
X90022005Y-111002697D01*
X90022006Y-111002690D01*
X90032499Y-110899986D01*
X90032500Y-110899973D01*
X90032500Y-110500000D01*
X88965512Y-110500000D01*
X88998425Y-110442993D01*
X89032500Y-110315826D01*
X89032500Y-110184174D01*
X88998425Y-110057007D01*
X88965512Y-110000000D01*
X90032499Y-110000000D01*
X90032499Y-109600028D01*
X90032498Y-109600013D01*
X90022005Y-109497302D01*
X89966858Y-109330880D01*
X89966856Y-109330875D01*
X89874815Y-109181654D01*
X89750845Y-109057684D01*
X89596015Y-108962184D01*
X89549291Y-108910236D01*
X89538068Y-108841273D01*
X89565912Y-108777191D01*
X89573409Y-108768986D01*
X89712604Y-108629792D01*
X89837551Y-108457816D01*
X89934057Y-108268412D01*
X89999746Y-108066243D01*
X90033000Y-107856287D01*
X90033000Y-107643713D01*
X89999746Y-107433757D01*
X89934057Y-107231588D01*
X89837551Y-107042184D01*
X89837549Y-107042181D01*
X89837548Y-107042179D01*
X89712609Y-106870213D01*
X89562286Y-106719890D01*
X89390320Y-106594951D01*
X89200914Y-106498444D01*
X89200913Y-106498443D01*
X89200912Y-106498443D01*
X88998743Y-106432754D01*
X88998741Y-106432753D01*
X88998740Y-106432753D01*
X88837457Y-106407208D01*
X88788787Y-106399500D01*
X88276213Y-106399500D01*
X88227542Y-106407208D01*
X88066260Y-106432753D01*
X87864085Y-106498444D01*
X87674679Y-106594951D01*
X87502713Y-106719890D01*
X87352390Y-106870213D01*
X87227451Y-107042179D01*
X87130944Y-107231585D01*
X87065253Y-107433760D01*
X87032000Y-107643713D01*
X80525500Y-107643713D01*
X80525500Y-97905631D01*
X83801000Y-97905631D01*
X83801000Y-98094368D01*
X83830504Y-98280650D01*
X83830523Y-98280767D01*
X83865047Y-98387021D01*
X83888844Y-98460258D01*
X83899170Y-98480524D01*
X83974523Y-98628413D01*
X84085454Y-98781096D01*
X84218904Y-98914546D01*
X84371587Y-99025477D01*
X84539744Y-99111157D01*
X84719233Y-99169477D01*
X84789134Y-99180548D01*
X84905632Y-99199000D01*
X84905637Y-99199000D01*
X85094368Y-99199000D01*
X85197920Y-99182598D01*
X85280767Y-99169477D01*
X85460256Y-99111157D01*
X85628413Y-99025477D01*
X85781096Y-98914546D01*
X85914546Y-98781096D01*
X86025477Y-98628413D01*
X86111157Y-98460256D01*
X86132069Y-98395894D01*
X86171507Y-98338219D01*
X86235865Y-98311021D01*
X86304712Y-98322936D01*
X86356187Y-98370180D01*
X86367931Y-98395895D01*
X86388844Y-98460258D01*
X86399170Y-98480524D01*
X86474523Y-98628413D01*
X86585454Y-98781096D01*
X86718904Y-98914546D01*
X86871587Y-99025477D01*
X87039744Y-99111157D01*
X87219233Y-99169477D01*
X87289134Y-99180548D01*
X87405632Y-99199000D01*
X87405637Y-99199000D01*
X87594368Y-99199000D01*
X87697920Y-99182598D01*
X87780767Y-99169477D01*
X87960256Y-99111157D01*
X88128413Y-99025477D01*
X88281096Y-98914546D01*
X88414546Y-98781096D01*
X88525477Y-98628413D01*
X88611157Y-98460256D01*
X88632332Y-98395084D01*
X88671768Y-98337412D01*
X88736126Y-98310213D01*
X88804973Y-98322127D01*
X88856449Y-98369371D01*
X88868193Y-98395086D01*
X88889306Y-98460064D01*
X88974952Y-98628153D01*
X88993189Y-98653255D01*
X88993190Y-98653255D01*
X89562352Y-98084093D01*
X89585792Y-98171571D01*
X89644311Y-98272930D01*
X89727070Y-98355689D01*
X89828429Y-98414208D01*
X89915905Y-98437647D01*
X89346743Y-99006808D01*
X89346743Y-99006809D01*
X89371844Y-99025046D01*
X89539935Y-99110694D01*
X89539938Y-99110695D01*
X89719349Y-99168988D01*
X89905677Y-99198500D01*
X90094323Y-99198500D01*
X90280650Y-99168988D01*
X90460061Y-99110695D01*
X90460064Y-99110694D01*
X90628151Y-99025048D01*
X90653255Y-99006808D01*
X90653256Y-99006808D01*
X90084095Y-98437647D01*
X90171571Y-98414208D01*
X90272930Y-98355689D01*
X90355689Y-98272930D01*
X90414208Y-98171571D01*
X90437647Y-98084095D01*
X91006808Y-98653256D01*
X91006808Y-98653255D01*
X91025048Y-98628151D01*
X91110694Y-98460064D01*
X91110695Y-98460061D01*
X91168988Y-98280650D01*
X91198500Y-98094323D01*
X91198500Y-97905676D01*
X91168988Y-97719349D01*
X91110695Y-97539938D01*
X91110694Y-97539935D01*
X91025046Y-97371844D01*
X91006809Y-97346743D01*
X91006808Y-97346743D01*
X90437647Y-97915904D01*
X90414208Y-97828429D01*
X90355689Y-97727070D01*
X90272930Y-97644311D01*
X90171571Y-97585792D01*
X90084094Y-97562352D01*
X90653255Y-96993190D01*
X90653255Y-96993189D01*
X90628153Y-96974952D01*
X90460063Y-96889305D01*
X90460061Y-96889304D01*
X90280650Y-96831011D01*
X90094323Y-96801500D01*
X89905677Y-96801500D01*
X89719349Y-96831011D01*
X89539938Y-96889304D01*
X89539936Y-96889305D01*
X89371844Y-96974953D01*
X89371839Y-96974957D01*
X89346743Y-96993188D01*
X89346743Y-96993191D01*
X89915906Y-97562352D01*
X89828429Y-97585792D01*
X89727070Y-97644311D01*
X89644311Y-97727070D01*
X89585792Y-97828429D01*
X89562352Y-97915905D01*
X88993191Y-97346743D01*
X88993188Y-97346743D01*
X88974957Y-97371839D01*
X88974953Y-97371844D01*
X88889306Y-97539935D01*
X88868193Y-97604913D01*
X88828755Y-97662588D01*
X88764396Y-97689786D01*
X88695550Y-97677871D01*
X88644074Y-97630626D01*
X88632332Y-97604916D01*
X88611157Y-97539744D01*
X88525477Y-97371587D01*
X88414546Y-97218904D01*
X88281096Y-97085454D01*
X88128413Y-96974523D01*
X87960256Y-96888843D01*
X87780767Y-96830523D01*
X87780765Y-96830522D01*
X87780763Y-96830522D01*
X87594368Y-96801000D01*
X87594363Y-96801000D01*
X87405637Y-96801000D01*
X87405632Y-96801000D01*
X87219236Y-96830522D01*
X87039741Y-96888844D01*
X86871586Y-96974523D01*
X86784475Y-97037813D01*
X86718904Y-97085454D01*
X86718902Y-97085456D01*
X86718901Y-97085456D01*
X86585456Y-97218901D01*
X86585456Y-97218902D01*
X86585454Y-97218904D01*
X86548211Y-97270165D01*
X86474523Y-97371586D01*
X86388844Y-97539739D01*
X86367931Y-97604105D01*
X86328493Y-97661780D01*
X86264134Y-97688978D01*
X86195288Y-97677063D01*
X86143812Y-97629819D01*
X86132069Y-97604105D01*
X86111155Y-97539739D01*
X86028852Y-97378211D01*
X86025477Y-97371587D01*
X85914546Y-97218904D01*
X85781096Y-97085454D01*
X85628413Y-96974523D01*
X85460256Y-96888843D01*
X85280767Y-96830523D01*
X85280765Y-96830522D01*
X85280763Y-96830522D01*
X85094368Y-96801000D01*
X85094363Y-96801000D01*
X84905637Y-96801000D01*
X84905632Y-96801000D01*
X84719236Y-96830522D01*
X84539741Y-96888844D01*
X84371586Y-96974523D01*
X84284475Y-97037813D01*
X84218904Y-97085454D01*
X84218902Y-97085456D01*
X84218901Y-97085456D01*
X84085456Y-97218901D01*
X84085456Y-97218902D01*
X84085454Y-97218904D01*
X84048211Y-97270165D01*
X83974523Y-97371586D01*
X83888844Y-97539741D01*
X83830522Y-97719236D01*
X83801000Y-97905631D01*
X80525500Y-97905631D01*
X80525500Y-65632644D01*
X80545185Y-65565605D01*
X80597989Y-65519850D01*
X80667147Y-65509906D01*
X80730703Y-65538931D01*
X80758858Y-65574191D01*
X80908017Y-65853247D01*
X80908028Y-65853265D01*
X81104558Y-66147393D01*
X81104568Y-66147407D01*
X81328992Y-66420869D01*
X81579130Y-66671007D01*
X81579135Y-66671011D01*
X81579136Y-66671012D01*
X81852598Y-66895436D01*
X82146741Y-67091976D01*
X82146750Y-67091981D01*
X82146752Y-67091982D01*
X82458723Y-67258735D01*
X82458725Y-67258735D01*
X82458731Y-67258739D01*
X82785565Y-67394118D01*
X83124095Y-67496809D01*
X83124101Y-67496810D01*
X83124104Y-67496811D01*
X83124115Y-67496814D01*
X83316148Y-67535011D01*
X83471060Y-67565825D01*
X83823119Y-67600500D01*
X83823122Y-67600500D01*
X84176878Y-67600500D01*
X84176881Y-67600500D01*
X84528940Y-67565825D01*
X84700679Y-67531663D01*
X84875884Y-67496814D01*
X84875895Y-67496811D01*
X84875895Y-67496810D01*
X84875905Y-67496809D01*
X85214435Y-67394118D01*
X85541269Y-67258739D01*
X85853259Y-67091976D01*
X86147402Y-66895436D01*
X86420864Y-66671012D01*
X86671012Y-66420864D01*
X86895436Y-66147402D01*
X87091976Y-65853259D01*
X87258739Y-65541269D01*
X87394118Y-65214435D01*
X87496809Y-64875905D01*
X87496811Y-64875895D01*
X87496814Y-64875884D01*
X87540447Y-64656521D01*
X87565825Y-64528940D01*
X87600500Y-64176881D01*
X87600500Y-63823119D01*
X87565825Y-63471060D01*
X87534170Y-63311920D01*
X87496814Y-63124115D01*
X87496811Y-63124104D01*
X87496810Y-63124101D01*
X87496809Y-63124095D01*
X87394118Y-62785565D01*
X87258739Y-62458731D01*
X87231248Y-62407300D01*
X87091982Y-62146752D01*
X87091981Y-62146750D01*
X87091976Y-62146741D01*
X86895436Y-61852598D01*
X86671012Y-61579136D01*
X86671011Y-61579135D01*
X86671007Y-61579130D01*
X86420869Y-61328992D01*
X86147407Y-61104568D01*
X86147406Y-61104567D01*
X86147402Y-61104564D01*
X85853259Y-60908024D01*
X85853254Y-60908021D01*
X85853247Y-60908017D01*
X85574191Y-60758858D01*
X85524346Y-60709896D01*
X85508886Y-60641758D01*
X85532718Y-60576078D01*
X85588276Y-60533709D01*
X85632644Y-60525500D01*
X131367356Y-60525500D01*
X131434395Y-60545185D01*
G37*
%TD.AperFunction*%
%TA.AperFunction,Conductor*%
G36*
X136423922Y-65532718D02*
G01*
X136466291Y-65588276D01*
X136474500Y-65632644D01*
X136474500Y-120367355D01*
X136454815Y-120434394D01*
X136402011Y-120480149D01*
X136332853Y-120490093D01*
X136269297Y-120461068D01*
X136241142Y-120425809D01*
X136167312Y-120287684D01*
X136091976Y-120146741D01*
X135895436Y-119852598D01*
X135671012Y-119579136D01*
X135671011Y-119579135D01*
X135671007Y-119579130D01*
X135420869Y-119328992D01*
X135147407Y-119104568D01*
X135147406Y-119104567D01*
X135147402Y-119104564D01*
X134853259Y-118908024D01*
X134853254Y-118908021D01*
X134853247Y-118908017D01*
X134541276Y-118741264D01*
X134541271Y-118741262D01*
X134420867Y-118691389D01*
X134275221Y-118631060D01*
X134220819Y-118587220D01*
X134198754Y-118520926D01*
X134216033Y-118453227D01*
X134267170Y-118405616D01*
X134322675Y-118392500D01*
X134369360Y-118392500D01*
X134369361Y-118392500D01*
X134565636Y-118361413D01*
X134754632Y-118300005D01*
X134931694Y-118209787D01*
X135092464Y-118092981D01*
X135232981Y-117952464D01*
X135349787Y-117791694D01*
X135440005Y-117614632D01*
X135501413Y-117425636D01*
X135532500Y-117229361D01*
X135532500Y-117030639D01*
X135501413Y-116834364D01*
X135457957Y-116700619D01*
X135440006Y-116645370D01*
X135440005Y-116645367D01*
X135349786Y-116468305D01*
X135276946Y-116368049D01*
X135253467Y-116302244D01*
X135269292Y-116234190D01*
X135289580Y-116207488D01*
X135694706Y-115802363D01*
X135694711Y-115802359D01*
X135704914Y-115792155D01*
X135704916Y-115792155D01*
X135816720Y-115680351D01*
X135820475Y-115673846D01*
X135872763Y-115583282D01*
X135872764Y-115583280D01*
X135895774Y-115543425D01*
X135895776Y-115543422D01*
X135895777Y-115543420D01*
X135936701Y-115390692D01*
X135936701Y-115232578D01*
X135936701Y-115224983D01*
X135936700Y-115224965D01*
X135936700Y-90345260D01*
X135936701Y-90345247D01*
X135936701Y-90177144D01*
X135936701Y-90177143D01*
X135895777Y-90024416D01*
X135836159Y-89921153D01*
X135816724Y-89887490D01*
X135816718Y-89887482D01*
X135695734Y-89766498D01*
X135533761Y-89604526D01*
X135500277Y-89543204D01*
X135500843Y-89490478D01*
X135500651Y-89490448D01*
X135500857Y-89489143D01*
X135500871Y-89487891D01*
X135501409Y-89485646D01*
X135501413Y-89485636D01*
X135532500Y-89289361D01*
X135532500Y-89090639D01*
X135501413Y-88894364D01*
X135465982Y-88785317D01*
X135440006Y-88705370D01*
X135440005Y-88705367D01*
X135376007Y-88579765D01*
X135349787Y-88528306D01*
X135232981Y-88367536D01*
X135092464Y-88227019D01*
X134931694Y-88110213D01*
X134775218Y-88030484D01*
X134724423Y-87982510D01*
X134707628Y-87914689D01*
X134730165Y-87848554D01*
X134775218Y-87809515D01*
X134931694Y-87729787D01*
X135092464Y-87612981D01*
X135232981Y-87472464D01*
X135349787Y-87311694D01*
X135440005Y-87134632D01*
X135501413Y-86945636D01*
X135532500Y-86749361D01*
X135532500Y-86550639D01*
X135501413Y-86354364D01*
X135461957Y-86232930D01*
X135440006Y-86165370D01*
X135440005Y-86165367D01*
X135349786Y-85988305D01*
X135232981Y-85827536D01*
X135092464Y-85687019D01*
X134931694Y-85570213D01*
X134774667Y-85490203D01*
X134723872Y-85442229D01*
X134707077Y-85374408D01*
X134729614Y-85308273D01*
X134774669Y-85269234D01*
X134931422Y-85189364D01*
X134968716Y-85162268D01*
X134405942Y-84599494D01*
X134466081Y-84583381D01*
X134581920Y-84516502D01*
X134676502Y-84421920D01*
X134743381Y-84306081D01*
X134759495Y-84245942D01*
X135322268Y-84808715D01*
X135349362Y-84771425D01*
X135439542Y-84594437D01*
X135500924Y-84405523D01*
X135500924Y-84405520D01*
X135532000Y-84209321D01*
X135532000Y-84010678D01*
X135500924Y-83814479D01*
X135500924Y-83814476D01*
X135439542Y-83625562D01*
X135349358Y-83448567D01*
X135322268Y-83411283D01*
X134759494Y-83974057D01*
X134743381Y-83913919D01*
X134676502Y-83798080D01*
X134581920Y-83703498D01*
X134466081Y-83636619D01*
X134405942Y-83620504D01*
X134968716Y-83057731D01*
X134968715Y-83057730D01*
X134931432Y-83030641D01*
X134774668Y-82950765D01*
X134723872Y-82902790D01*
X134707077Y-82834969D01*
X134729615Y-82768834D01*
X134774667Y-82729796D01*
X134931694Y-82649787D01*
X135092464Y-82532981D01*
X135232981Y-82392464D01*
X135349787Y-82231694D01*
X135440005Y-82054632D01*
X135501413Y-81865636D01*
X135532500Y-81669361D01*
X135532500Y-81470639D01*
X135501413Y-81274364D01*
X135440005Y-81085368D01*
X135440005Y-81085367D01*
X135383960Y-80975374D01*
X135349787Y-80908306D01*
X135232981Y-80747536D01*
X135092464Y-80607019D01*
X134931694Y-80490213D01*
X134775218Y-80410484D01*
X134724423Y-80362510D01*
X134707628Y-80294689D01*
X134730165Y-80228554D01*
X134775218Y-80189515D01*
X134931694Y-80109787D01*
X135092464Y-79992981D01*
X135232981Y-79852464D01*
X135349787Y-79691694D01*
X135440005Y-79514632D01*
X135501413Y-79325636D01*
X135532500Y-79129361D01*
X135532500Y-78930639D01*
X135501413Y-78734364D01*
X135464519Y-78620814D01*
X135440006Y-78545370D01*
X135440005Y-78545367D01*
X135377372Y-78422445D01*
X135349787Y-78368306D01*
X135232981Y-78207536D01*
X135092464Y-78067019D01*
X134931694Y-77950213D01*
X134775218Y-77870484D01*
X134724423Y-77822510D01*
X134707628Y-77754689D01*
X134730165Y-77688554D01*
X134775218Y-77649515D01*
X134931694Y-77569787D01*
X135092464Y-77452981D01*
X135232981Y-77312464D01*
X135349787Y-77151694D01*
X135440005Y-76974632D01*
X135501413Y-76785636D01*
X135532500Y-76589361D01*
X135532500Y-76390639D01*
X135501413Y-76194364D01*
X135465788Y-76084720D01*
X135440006Y-76005370D01*
X135440005Y-76005367D01*
X135382747Y-75892993D01*
X135349787Y-75828306D01*
X135232981Y-75667536D01*
X135092464Y-75527019D01*
X134931694Y-75410213D01*
X134774667Y-75330203D01*
X134723872Y-75282229D01*
X134707077Y-75214408D01*
X134729614Y-75148273D01*
X134774669Y-75109234D01*
X134931422Y-75029364D01*
X134968715Y-75002268D01*
X134405941Y-74439495D01*
X134466081Y-74423381D01*
X134581920Y-74356502D01*
X134676502Y-74261920D01*
X134743381Y-74146081D01*
X134759495Y-74085942D01*
X135322268Y-74648715D01*
X135349362Y-74611425D01*
X135439542Y-74434437D01*
X135500924Y-74245523D01*
X135500924Y-74245520D01*
X135532000Y-74049321D01*
X135532000Y-73850678D01*
X135500924Y-73654479D01*
X135500924Y-73654476D01*
X135439542Y-73465562D01*
X135349358Y-73288567D01*
X135322268Y-73251283D01*
X134759494Y-73814057D01*
X134743381Y-73753919D01*
X134676502Y-73638080D01*
X134581920Y-73543498D01*
X134466081Y-73476619D01*
X134405942Y-73460504D01*
X134968716Y-72897731D01*
X134968715Y-72897730D01*
X134931432Y-72870641D01*
X134774668Y-72790765D01*
X134723872Y-72742790D01*
X134707077Y-72674969D01*
X134729615Y-72608834D01*
X134774667Y-72569796D01*
X134931694Y-72489787D01*
X135092464Y-72372981D01*
X135232981Y-72232464D01*
X135349787Y-72071694D01*
X135440005Y-71894632D01*
X135501413Y-71705636D01*
X135532500Y-71509361D01*
X135532500Y-71310639D01*
X135501413Y-71114364D01*
X135440005Y-70925368D01*
X135440005Y-70925367D01*
X135382747Y-70812993D01*
X135349787Y-70748306D01*
X135232981Y-70587536D01*
X135092464Y-70447019D01*
X134931694Y-70330213D01*
X134775218Y-70250484D01*
X134724423Y-70202510D01*
X134707628Y-70134689D01*
X134730165Y-70068554D01*
X134775218Y-70029515D01*
X134931694Y-69949787D01*
X135092464Y-69832981D01*
X135232981Y-69692464D01*
X135349787Y-69531694D01*
X135440005Y-69354632D01*
X135501413Y-69165636D01*
X135532500Y-68969361D01*
X135532500Y-68770639D01*
X135501413Y-68574364D01*
X135440005Y-68385368D01*
X135440005Y-68385367D01*
X135382747Y-68272993D01*
X135349787Y-68208306D01*
X135232981Y-68047536D01*
X135092464Y-67907019D01*
X134931694Y-67790213D01*
X134875138Y-67761396D01*
X134754632Y-67699994D01*
X134754629Y-67699993D01*
X134565637Y-67638587D01*
X134467498Y-67623043D01*
X134369361Y-67607500D01*
X134322675Y-67607500D01*
X134255636Y-67587815D01*
X134209881Y-67535011D01*
X134199937Y-67465853D01*
X134228962Y-67402297D01*
X134275221Y-67368939D01*
X134541269Y-67258739D01*
X134853259Y-67091976D01*
X135147402Y-66895436D01*
X135420864Y-66671012D01*
X135671012Y-66420864D01*
X135895436Y-66147402D01*
X136091976Y-65853259D01*
X136189707Y-65670419D01*
X136241142Y-65574191D01*
X136290104Y-65524346D01*
X136358242Y-65508886D01*
X136423922Y-65532718D01*
G37*
%TD.AperFunction*%
%TA.AperFunction,Conductor*%
G36*
X132782268Y-117828715D02*
G01*
X132809364Y-117791422D01*
X132889234Y-117634669D01*
X132937208Y-117583872D01*
X133005029Y-117567077D01*
X133071164Y-117589614D01*
X133110203Y-117634667D01*
X133190213Y-117791694D01*
X133307019Y-117952464D01*
X133447536Y-118092981D01*
X133447539Y-118092983D01*
X133608476Y-118209911D01*
X133651142Y-118265241D01*
X133657121Y-118334854D01*
X133624515Y-118396649D01*
X133563676Y-118431007D01*
X133523437Y-118433632D01*
X133238977Y-118405616D01*
X133176881Y-118399500D01*
X132823119Y-118399500D01*
X132761023Y-118405616D01*
X132475576Y-118433729D01*
X132406930Y-118420710D01*
X132356220Y-118372645D01*
X132339545Y-118304794D01*
X132362201Y-118238699D01*
X132390535Y-118210009D01*
X132428716Y-118182268D01*
X131865942Y-117619494D01*
X131926081Y-117603381D01*
X132041920Y-117536502D01*
X132136502Y-117441920D01*
X132203381Y-117326081D01*
X132219495Y-117265942D01*
X132782268Y-117828715D01*
G37*
%TD.AperFunction*%
%TA.AperFunction,Conductor*%
G36*
X133796619Y-109706081D02*
G01*
X133863498Y-109821920D01*
X133958080Y-109916502D01*
X134073919Y-109983381D01*
X134134056Y-109999494D01*
X133571283Y-110562268D01*
X133571283Y-110562269D01*
X133608567Y-110589358D01*
X133765331Y-110669234D01*
X133816127Y-110717209D01*
X133832922Y-110785030D01*
X133810384Y-110851165D01*
X133765331Y-110890204D01*
X133608305Y-110970213D01*
X133447533Y-111087021D01*
X133307021Y-111227533D01*
X133190213Y-111388305D01*
X133110485Y-111544780D01*
X133062510Y-111595576D01*
X132994689Y-111612371D01*
X132928554Y-111589833D01*
X132889515Y-111544780D01*
X132809786Y-111388305D01*
X132758957Y-111318345D01*
X132692981Y-111227536D01*
X132552464Y-111087019D01*
X132391694Y-110970213D01*
X132235218Y-110890484D01*
X132184423Y-110842510D01*
X132167628Y-110774689D01*
X132190165Y-110708554D01*
X132235218Y-110669515D01*
X132391694Y-110589787D01*
X132552464Y-110472981D01*
X132692981Y-110332464D01*
X132809787Y-110171694D01*
X132889796Y-110014667D01*
X132937769Y-109963872D01*
X133005590Y-109947077D01*
X133071725Y-109969614D01*
X133110765Y-110014668D01*
X133190641Y-110171432D01*
X133217730Y-110208715D01*
X133217731Y-110208716D01*
X133780504Y-109645942D01*
X133796619Y-109706081D01*
G37*
%TD.AperFunction*%
%TA.AperFunction,Conductor*%
G36*
X133017228Y-107411689D02*
G01*
X133029807Y-107411150D01*
X133049670Y-107422744D01*
X133071446Y-107430165D01*
X133080720Y-107440868D01*
X133090149Y-107446372D01*
X133110483Y-107475217D01*
X133190213Y-107631694D01*
X133307019Y-107792464D01*
X133447536Y-107932981D01*
X133608306Y-108049787D01*
X133765332Y-108129796D01*
X133816127Y-108177769D01*
X133832922Y-108245590D01*
X133810385Y-108311725D01*
X133765332Y-108350764D01*
X133608566Y-108430641D01*
X133571283Y-108457729D01*
X133571282Y-108457730D01*
X134134057Y-109020505D01*
X134073919Y-109036619D01*
X133958080Y-109103498D01*
X133863498Y-109198080D01*
X133796619Y-109313919D01*
X133780504Y-109374057D01*
X133217730Y-108811282D01*
X133217729Y-108811283D01*
X133190641Y-108848566D01*
X133110764Y-109005332D01*
X133062790Y-109056127D01*
X132994969Y-109072922D01*
X132928834Y-109050384D01*
X132889796Y-109005332D01*
X132809787Y-108848306D01*
X132692981Y-108687536D01*
X132552464Y-108547019D01*
X132391694Y-108430213D01*
X132235218Y-108350484D01*
X132184423Y-108302510D01*
X132167628Y-108234689D01*
X132190165Y-108168554D01*
X132235218Y-108129515D01*
X132391694Y-108049787D01*
X132552464Y-107932981D01*
X132692981Y-107792464D01*
X132809787Y-107631694D01*
X132889515Y-107475218D01*
X132898159Y-107466065D01*
X132902895Y-107454399D01*
X132921696Y-107441144D01*
X132937490Y-107424423D01*
X132949710Y-107421396D01*
X132960002Y-107414142D01*
X132982984Y-107413156D01*
X133005311Y-107407628D01*
X133017228Y-107411689D01*
G37*
%TD.AperFunction*%
%TA.AperFunction,Conductor*%
G36*
X133796619Y-104626081D02*
G01*
X133863498Y-104741920D01*
X133958080Y-104836502D01*
X134073919Y-104903381D01*
X134134056Y-104919494D01*
X133571283Y-105482268D01*
X133571283Y-105482269D01*
X133608567Y-105509358D01*
X133765331Y-105589234D01*
X133816127Y-105637209D01*
X133832922Y-105705030D01*
X133810384Y-105771165D01*
X133765331Y-105810204D01*
X133608305Y-105890213D01*
X133447533Y-106007021D01*
X133307021Y-106147533D01*
X133190213Y-106308305D01*
X133110485Y-106464780D01*
X133062510Y-106515576D01*
X132994689Y-106532371D01*
X132928554Y-106509833D01*
X132889515Y-106464780D01*
X132809786Y-106308305D01*
X132692981Y-106147536D01*
X132552464Y-106007019D01*
X132391694Y-105890213D01*
X132235218Y-105810484D01*
X132184423Y-105762510D01*
X132167628Y-105694689D01*
X132190165Y-105628554D01*
X132235218Y-105589515D01*
X132391694Y-105509787D01*
X132552464Y-105392981D01*
X132692981Y-105252464D01*
X132809787Y-105091694D01*
X132889796Y-104934667D01*
X132937769Y-104883872D01*
X133005590Y-104867077D01*
X133071725Y-104889614D01*
X133110765Y-104934668D01*
X133190641Y-105091432D01*
X133217730Y-105128715D01*
X133217731Y-105128716D01*
X133780504Y-104565942D01*
X133796619Y-104626081D01*
G37*
%TD.AperFunction*%
%TA.AperFunction,Conductor*%
G36*
X133071446Y-102350165D02*
G01*
X133110484Y-102395218D01*
X133190213Y-102551694D01*
X133307019Y-102712464D01*
X133447536Y-102852981D01*
X133608306Y-102969787D01*
X133765332Y-103049796D01*
X133816127Y-103097769D01*
X133832922Y-103165590D01*
X133810385Y-103231725D01*
X133765332Y-103270764D01*
X133608566Y-103350641D01*
X133571283Y-103377729D01*
X133571282Y-103377730D01*
X134134057Y-103940505D01*
X134073919Y-103956619D01*
X133958080Y-104023498D01*
X133863498Y-104118080D01*
X133796619Y-104233919D01*
X133780504Y-104294057D01*
X133217730Y-103731282D01*
X133217729Y-103731283D01*
X133190641Y-103768566D01*
X133110764Y-103925332D01*
X133062790Y-103976127D01*
X132994969Y-103992922D01*
X132928834Y-103970384D01*
X132889796Y-103925332D01*
X132809787Y-103768306D01*
X132692981Y-103607536D01*
X132552464Y-103467019D01*
X132391694Y-103350213D01*
X132235218Y-103270484D01*
X132184423Y-103222510D01*
X132167628Y-103154689D01*
X132190165Y-103088554D01*
X132235218Y-103049515D01*
X132391694Y-102969787D01*
X132552464Y-102852981D01*
X132692981Y-102712464D01*
X132809787Y-102551694D01*
X132889515Y-102395218D01*
X132937490Y-102344423D01*
X133005311Y-102327628D01*
X133071446Y-102350165D01*
G37*
%TD.AperFunction*%
%TA.AperFunction,Conductor*%
G36*
X132782268Y-100048715D02*
G01*
X132809364Y-100011422D01*
X132889234Y-99854669D01*
X132937208Y-99803872D01*
X133005029Y-99787077D01*
X133071164Y-99809614D01*
X133110203Y-99854667D01*
X133190213Y-100011694D01*
X133307019Y-100172464D01*
X133447536Y-100312981D01*
X133608306Y-100429787D01*
X133726832Y-100490179D01*
X133764780Y-100509515D01*
X133815576Y-100557490D01*
X133832371Y-100625311D01*
X133809833Y-100691446D01*
X133764780Y-100730485D01*
X133608305Y-100810213D01*
X133447533Y-100927021D01*
X133307021Y-101067533D01*
X133190213Y-101228305D01*
X133110485Y-101384780D01*
X133062510Y-101435576D01*
X132994689Y-101452371D01*
X132928554Y-101429833D01*
X132889515Y-101384780D01*
X132841532Y-101290609D01*
X132809787Y-101228306D01*
X132692981Y-101067536D01*
X132552464Y-100927019D01*
X132391694Y-100810213D01*
X132234667Y-100730203D01*
X132183872Y-100682229D01*
X132167077Y-100614408D01*
X132189614Y-100548273D01*
X132234669Y-100509234D01*
X132391422Y-100429364D01*
X132428716Y-100402268D01*
X131865942Y-99839494D01*
X131926081Y-99823381D01*
X132041920Y-99756502D01*
X132136502Y-99661920D01*
X132203381Y-99546081D01*
X132219495Y-99485942D01*
X132782268Y-100048715D01*
G37*
%TD.AperFunction*%
%TA.AperFunction,Conductor*%
G36*
X133071446Y-97270165D02*
G01*
X133110484Y-97315218D01*
X133190213Y-97471694D01*
X133307019Y-97632464D01*
X133447536Y-97772981D01*
X133608306Y-97889787D01*
X133639490Y-97905676D01*
X133764780Y-97969515D01*
X133815576Y-98017490D01*
X133832371Y-98085311D01*
X133809833Y-98151446D01*
X133764780Y-98190485D01*
X133608305Y-98270213D01*
X133447533Y-98387021D01*
X133307021Y-98527533D01*
X133190213Y-98688305D01*
X133110204Y-98845331D01*
X133062229Y-98896127D01*
X132994408Y-98912922D01*
X132928273Y-98890384D01*
X132889234Y-98845331D01*
X132809358Y-98688567D01*
X132782268Y-98651283D01*
X132219494Y-99214057D01*
X132203381Y-99153919D01*
X132136502Y-99038080D01*
X132041920Y-98943498D01*
X131926081Y-98876619D01*
X131865942Y-98860504D01*
X132428716Y-98297731D01*
X132428715Y-98297730D01*
X132391432Y-98270641D01*
X132234668Y-98190765D01*
X132183872Y-98142790D01*
X132167077Y-98074969D01*
X132189615Y-98008834D01*
X132234667Y-97969796D01*
X132391694Y-97889787D01*
X132552464Y-97772981D01*
X132692981Y-97632464D01*
X132809787Y-97471694D01*
X132889515Y-97315218D01*
X132937490Y-97264423D01*
X133005311Y-97247628D01*
X133071446Y-97270165D01*
G37*
%TD.AperFunction*%
%TA.AperFunction,Conductor*%
G36*
X103491745Y-69364267D02*
G01*
X103536092Y-69392768D01*
X103674126Y-69530802D01*
X103897044Y-69753720D01*
X103897046Y-69753721D01*
X103897050Y-69753724D01*
X104033969Y-69832773D01*
X104033976Y-69832777D01*
X104186703Y-69873701D01*
X104186705Y-69873701D01*
X104315892Y-69873701D01*
X104382931Y-69893386D01*
X104403573Y-69910020D01*
X104630590Y-70137037D01*
X104567007Y-70154075D01*
X104452993Y-70219901D01*
X104359901Y-70312993D01*
X104294075Y-70427007D01*
X104277037Y-70490590D01*
X103616807Y-69830360D01*
X103616806Y-69830360D01*
X103572023Y-69892001D01*
X103472762Y-70086808D01*
X103472761Y-70086811D01*
X103405202Y-70294740D01*
X103371000Y-70510683D01*
X103371000Y-70729316D01*
X103405202Y-70945259D01*
X103472761Y-71153188D01*
X103472762Y-71153191D01*
X103572020Y-71347993D01*
X103572021Y-71347995D01*
X103616806Y-71409638D01*
X103616807Y-71409638D01*
X104277037Y-70749408D01*
X104294075Y-70812993D01*
X104359901Y-70927007D01*
X104452993Y-71020099D01*
X104567007Y-71085925D01*
X104630589Y-71102962D01*
X103970360Y-71763190D01*
X103970360Y-71763191D01*
X104006819Y-71789680D01*
X104049486Y-71845010D01*
X104055465Y-71914623D01*
X104022860Y-71976418D01*
X104006819Y-71990318D01*
X103970360Y-72016806D01*
X103970360Y-72016807D01*
X104630590Y-72677037D01*
X104567007Y-72694075D01*
X104452993Y-72759901D01*
X104359901Y-72852993D01*
X104294075Y-72967007D01*
X104277037Y-73030590D01*
X103616807Y-72370360D01*
X103616806Y-72370360D01*
X103572023Y-72432001D01*
X103472762Y-72626808D01*
X103472761Y-72626811D01*
X103405202Y-72834740D01*
X103371000Y-73050683D01*
X103371000Y-73269316D01*
X103405202Y-73485259D01*
X103472761Y-73693188D01*
X103472762Y-73693191D01*
X103572020Y-73887993D01*
X103572021Y-73887995D01*
X103616806Y-73949638D01*
X103616807Y-73949638D01*
X104277037Y-73289408D01*
X104294075Y-73352993D01*
X104359901Y-73467007D01*
X104452993Y-73560099D01*
X104567007Y-73625925D01*
X104630589Y-73642962D01*
X103970360Y-74303190D01*
X103970360Y-74303191D01*
X104006819Y-74329680D01*
X104049486Y-74385010D01*
X104055465Y-74454623D01*
X104022860Y-74516418D01*
X104006819Y-74530318D01*
X103970360Y-74556806D01*
X103970360Y-74556807D01*
X104630590Y-75217037D01*
X104567007Y-75234075D01*
X104452993Y-75299901D01*
X104359901Y-75392993D01*
X104294075Y-75507007D01*
X104277037Y-75570590D01*
X103616807Y-74910360D01*
X103616806Y-74910360D01*
X103572023Y-74972001D01*
X103472762Y-75166808D01*
X103472761Y-75166811D01*
X103405202Y-75374740D01*
X103371000Y-75590683D01*
X103371000Y-75809316D01*
X103405202Y-76025259D01*
X103472761Y-76233188D01*
X103472762Y-76233191D01*
X103572020Y-76427993D01*
X103572021Y-76427995D01*
X103616806Y-76489638D01*
X103616807Y-76489638D01*
X104277037Y-75829408D01*
X104294075Y-75892993D01*
X104359901Y-76007007D01*
X104452993Y-76100099D01*
X104567007Y-76165925D01*
X104630589Y-76182962D01*
X103970360Y-76843190D01*
X103970360Y-76843191D01*
X104032008Y-76887980D01*
X104226808Y-76987237D01*
X104226811Y-76987238D01*
X104434740Y-77054797D01*
X104650684Y-77089000D01*
X104869316Y-77089000D01*
X105085259Y-77054797D01*
X105293188Y-76987238D01*
X105293195Y-76987235D01*
X105326004Y-76970518D01*
X105328709Y-76970009D01*
X105330789Y-76968208D01*
X105362844Y-76963598D01*
X105394673Y-76957621D01*
X105397222Y-76958655D01*
X105399947Y-76958264D01*
X105429403Y-76971716D01*
X105459414Y-76983896D01*
X105461000Y-76986145D01*
X105463503Y-76987289D01*
X105481010Y-77014531D01*
X105499671Y-77041002D01*
X105500244Y-77044459D01*
X105501277Y-77046067D01*
X105506300Y-77081002D01*
X105506300Y-77126930D01*
X105506299Y-77126948D01*
X105506299Y-77292654D01*
X105506298Y-77292654D01*
X105506299Y-77292657D01*
X105532583Y-77390750D01*
X105547224Y-77445387D01*
X105561486Y-77470089D01*
X105561487Y-77470091D01*
X105626277Y-77582312D01*
X105626281Y-77582317D01*
X105745149Y-77701185D01*
X105745155Y-77701190D01*
X106178339Y-78134374D01*
X106178349Y-78134385D01*
X106182679Y-78138715D01*
X106182680Y-78138716D01*
X106294484Y-78250520D01*
X106294486Y-78250521D01*
X106294490Y-78250524D01*
X106428986Y-78328174D01*
X106431416Y-78329577D01*
X106543219Y-78359534D01*
X106584142Y-78370500D01*
X106584143Y-78370500D01*
X107683331Y-78370500D01*
X107683347Y-78370501D01*
X107690943Y-78370501D01*
X107849054Y-78370501D01*
X107849057Y-78370501D01*
X108001785Y-78329577D01*
X108069284Y-78290606D01*
X108138716Y-78250520D01*
X108250520Y-78138716D01*
X108250520Y-78138714D01*
X108260724Y-78128511D01*
X108260728Y-78128506D01*
X109324527Y-77064706D01*
X109385848Y-77031223D01*
X109450523Y-77034457D01*
X109514625Y-77055286D01*
X109595632Y-77068116D01*
X109730639Y-77089500D01*
X109730644Y-77089500D01*
X109949361Y-77089500D01*
X110105887Y-77064708D01*
X110165375Y-77055286D01*
X110270384Y-77021166D01*
X110340223Y-77019172D01*
X110400056Y-77055252D01*
X110430884Y-77117953D01*
X110432700Y-77139098D01*
X110432700Y-95127196D01*
X110413015Y-95194235D01*
X110360211Y-95239990D01*
X110291053Y-95249934D01*
X110279803Y-95247782D01*
X110270285Y-95245501D01*
X110233497Y-95230263D01*
X110078842Y-95199500D01*
X110078326Y-95199500D01*
X110073444Y-95198330D01*
X110045147Y-95182098D01*
X110016238Y-95166976D01*
X110014660Y-95165425D01*
X99861416Y-85012181D01*
X99827931Y-84950858D01*
X99832915Y-84881166D01*
X99874787Y-84825233D01*
X99940251Y-84800816D01*
X99949097Y-84800500D01*
X100078844Y-84800500D01*
X100078845Y-84800499D01*
X100233497Y-84769737D01*
X100379179Y-84709394D01*
X100510289Y-84621789D01*
X100621789Y-84510289D01*
X100709394Y-84379179D01*
X100769737Y-84233497D01*
X100800500Y-84078842D01*
X100800500Y-83921158D01*
X100800500Y-83921155D01*
X100800499Y-83921153D01*
X100769738Y-83766510D01*
X100769737Y-83766503D01*
X100730975Y-83672922D01*
X100709397Y-83620827D01*
X100709390Y-83620814D01*
X100621398Y-83489125D01*
X100615747Y-83471078D01*
X100605523Y-83455169D01*
X100601071Y-83424207D01*
X100600520Y-83422447D01*
X100600500Y-83420234D01*
X100600500Y-83300096D01*
X100620185Y-83233057D01*
X100636815Y-83212419D01*
X100987820Y-82861414D01*
X101049142Y-82827930D01*
X101118834Y-82832914D01*
X101174767Y-82874786D01*
X101199184Y-82940250D01*
X101199500Y-82949096D01*
X101199500Y-83078846D01*
X101230261Y-83233489D01*
X101230264Y-83233501D01*
X101290602Y-83379172D01*
X101290609Y-83379185D01*
X101378210Y-83510288D01*
X101378213Y-83510292D01*
X101489707Y-83621786D01*
X101489711Y-83621789D01*
X101620814Y-83709390D01*
X101620827Y-83709397D01*
X101734415Y-83756446D01*
X101766503Y-83769737D01*
X101908992Y-83798080D01*
X101921153Y-83800499D01*
X101921156Y-83800500D01*
X101921158Y-83800500D01*
X102078844Y-83800500D01*
X102078845Y-83800499D01*
X102233497Y-83769737D01*
X102379179Y-83709394D01*
X102467494Y-83650384D01*
X102510875Y-83621398D01*
X102577553Y-83600520D01*
X102579766Y-83600500D01*
X108420234Y-83600500D01*
X108487273Y-83620185D01*
X108489125Y-83621398D01*
X108620814Y-83709390D01*
X108620827Y-83709397D01*
X108734415Y-83756446D01*
X108766503Y-83769737D01*
X108908992Y-83798080D01*
X108921153Y-83800499D01*
X108921156Y-83800500D01*
X108921158Y-83800500D01*
X109078844Y-83800500D01*
X109078845Y-83800499D01*
X109233497Y-83769737D01*
X109379179Y-83709394D01*
X109510289Y-83621789D01*
X109621789Y-83510289D01*
X109709394Y-83379179D01*
X109769737Y-83233497D01*
X109800500Y-83078842D01*
X109800500Y-82921158D01*
X109800500Y-82921155D01*
X109800499Y-82921153D01*
X109782947Y-82832914D01*
X109769737Y-82766503D01*
X109754416Y-82729515D01*
X109709396Y-82620825D01*
X109709394Y-82620822D01*
X109709394Y-82620821D01*
X109674694Y-82568889D01*
X109653816Y-82502215D01*
X109672300Y-82434835D01*
X109674676Y-82431136D01*
X109709394Y-82379179D01*
X109769737Y-82233497D01*
X109800500Y-82078842D01*
X109800500Y-81921158D01*
X109800500Y-81921155D01*
X109800499Y-81921153D01*
X109769738Y-81766510D01*
X109769737Y-81766503D01*
X109759713Y-81742302D01*
X109709396Y-81620825D01*
X109709394Y-81620822D01*
X109709394Y-81620821D01*
X109674694Y-81568889D01*
X109653816Y-81502215D01*
X109672300Y-81434835D01*
X109674676Y-81431136D01*
X109709394Y-81379179D01*
X109769737Y-81233497D01*
X109800500Y-81078842D01*
X109800500Y-80921158D01*
X109800500Y-80921155D01*
X109800499Y-80921153D01*
X109769738Y-80766510D01*
X109769737Y-80766503D01*
X109761881Y-80747536D01*
X109709397Y-80620827D01*
X109709390Y-80620814D01*
X109621789Y-80489711D01*
X109621786Y-80489707D01*
X109510292Y-80378213D01*
X109510288Y-80378210D01*
X109379185Y-80290609D01*
X109379172Y-80290602D01*
X109233501Y-80230264D01*
X109233489Y-80230261D01*
X109078845Y-80199500D01*
X109078842Y-80199500D01*
X108921158Y-80199500D01*
X108921155Y-80199500D01*
X108766510Y-80230261D01*
X108766498Y-80230264D01*
X108620827Y-80290602D01*
X108620814Y-80290609D01*
X108489125Y-80378602D01*
X108422447Y-80399480D01*
X108420234Y-80399500D01*
X102079057Y-80399500D01*
X101920943Y-80399500D01*
X101768215Y-80440423D01*
X101768214Y-80440423D01*
X101768212Y-80440424D01*
X101768209Y-80440425D01*
X101718096Y-80469359D01*
X101718095Y-80469360D01*
X101682853Y-80489707D01*
X101631285Y-80519479D01*
X101631282Y-80519481D01*
X99519479Y-82631284D01*
X99491797Y-82679232D01*
X99480096Y-82699500D01*
X99440423Y-82768215D01*
X99399499Y-82920943D01*
X99399499Y-82920945D01*
X99399499Y-83089046D01*
X99399500Y-83089059D01*
X99399500Y-83420234D01*
X99379815Y-83487273D01*
X99378602Y-83489125D01*
X99290609Y-83620814D01*
X99290602Y-83620827D01*
X99230264Y-83766498D01*
X99230261Y-83766510D01*
X99199500Y-83921153D01*
X99199500Y-84050903D01*
X99179815Y-84117942D01*
X99127011Y-84163697D01*
X99057853Y-84173641D01*
X98994297Y-84144616D01*
X98987819Y-84138584D01*
X94487590Y-79638355D01*
X94487588Y-79638352D01*
X94368717Y-79519481D01*
X94368709Y-79519475D01*
X94273516Y-79464516D01*
X94273514Y-79464515D01*
X94231790Y-79440425D01*
X94231789Y-79440424D01*
X94217152Y-79436502D01*
X94079057Y-79399499D01*
X93920943Y-79399499D01*
X93913347Y-79399499D01*
X93913331Y-79399500D01*
X93653362Y-79399500D01*
X93586323Y-79379815D01*
X93540568Y-79327011D01*
X93530624Y-79257853D01*
X93559649Y-79194297D01*
X93565681Y-79187819D01*
X95409885Y-77343615D01*
X103360732Y-69392766D01*
X103422053Y-69359283D01*
X103491745Y-69364267D01*
G37*
%TD.AperFunction*%
%TA.AperFunction,Conductor*%
G36*
X133796619Y-91926081D02*
G01*
X133863498Y-92041920D01*
X133958080Y-92136502D01*
X134073919Y-92203381D01*
X134134056Y-92219494D01*
X133571283Y-92782268D01*
X133571283Y-92782269D01*
X133608567Y-92809358D01*
X133765331Y-92889234D01*
X133816127Y-92937209D01*
X133832922Y-93005030D01*
X133810384Y-93071165D01*
X133765331Y-93110204D01*
X133608305Y-93190213D01*
X133447533Y-93307021D01*
X133307021Y-93447533D01*
X133190213Y-93608305D01*
X133110485Y-93764780D01*
X133062510Y-93815576D01*
X132994689Y-93832371D01*
X132928554Y-93809833D01*
X132889515Y-93764780D01*
X132809786Y-93608305D01*
X132692981Y-93447536D01*
X132552464Y-93307019D01*
X132391694Y-93190213D01*
X132235218Y-93110484D01*
X132184423Y-93062510D01*
X132167628Y-92994689D01*
X132190165Y-92928554D01*
X132235218Y-92889515D01*
X132391694Y-92809787D01*
X132552464Y-92692981D01*
X132692981Y-92552464D01*
X132809787Y-92391694D01*
X132889796Y-92234667D01*
X132937769Y-92183872D01*
X133005590Y-92167077D01*
X133071725Y-92189614D01*
X133110765Y-92234668D01*
X133190641Y-92391432D01*
X133217730Y-92428715D01*
X133217731Y-92428716D01*
X133780504Y-91865942D01*
X133796619Y-91926081D01*
G37*
%TD.AperFunction*%
%TA.AperFunction,Conductor*%
G36*
X133017228Y-89631689D02*
G01*
X133029807Y-89631150D01*
X133049670Y-89642744D01*
X133071446Y-89650165D01*
X133080720Y-89660868D01*
X133090149Y-89666372D01*
X133110483Y-89695217D01*
X133190213Y-89851694D01*
X133307019Y-90012464D01*
X133447536Y-90152981D01*
X133608306Y-90269787D01*
X133765332Y-90349796D01*
X133816127Y-90397769D01*
X133832922Y-90465590D01*
X133810385Y-90531725D01*
X133765332Y-90570764D01*
X133608566Y-90650641D01*
X133571283Y-90677729D01*
X133571282Y-90677730D01*
X134134057Y-91240505D01*
X134073919Y-91256619D01*
X133958080Y-91323498D01*
X133863498Y-91418080D01*
X133796619Y-91533919D01*
X133780504Y-91594057D01*
X133217730Y-91031282D01*
X133217729Y-91031283D01*
X133190641Y-91068566D01*
X133110764Y-91225332D01*
X133062790Y-91276127D01*
X132994969Y-91292922D01*
X132928834Y-91270384D01*
X132889796Y-91225332D01*
X132809787Y-91068306D01*
X132692981Y-90907536D01*
X132552464Y-90767019D01*
X132391694Y-90650213D01*
X132235218Y-90570484D01*
X132184423Y-90522510D01*
X132167628Y-90454689D01*
X132190165Y-90388554D01*
X132235218Y-90349515D01*
X132391694Y-90269787D01*
X132552464Y-90152981D01*
X132692981Y-90012464D01*
X132809787Y-89851694D01*
X132889515Y-89695218D01*
X132898159Y-89686065D01*
X132902895Y-89674399D01*
X132921696Y-89661144D01*
X132937490Y-89644423D01*
X132949710Y-89641396D01*
X132960002Y-89634142D01*
X132982984Y-89633156D01*
X133005311Y-89627628D01*
X133017228Y-89631689D01*
G37*
%TD.AperFunction*%
%TA.AperFunction,Conductor*%
G36*
X133796619Y-84306081D02*
G01*
X133863498Y-84421920D01*
X133958080Y-84516502D01*
X134073919Y-84583381D01*
X134134057Y-84599494D01*
X133571283Y-85162268D01*
X133571283Y-85162269D01*
X133608567Y-85189358D01*
X133765331Y-85269234D01*
X133816127Y-85317209D01*
X133832922Y-85385030D01*
X133810384Y-85451165D01*
X133765331Y-85490204D01*
X133608305Y-85570213D01*
X133447533Y-85687021D01*
X133307021Y-85827533D01*
X133190213Y-85988305D01*
X133110485Y-86144780D01*
X133062510Y-86195576D01*
X132994689Y-86212371D01*
X132928554Y-86189833D01*
X132889515Y-86144780D01*
X132870179Y-86106832D01*
X132809787Y-85988306D01*
X132692981Y-85827536D01*
X132552464Y-85687019D01*
X132391694Y-85570213D01*
X132235218Y-85490484D01*
X132184423Y-85442510D01*
X132167628Y-85374689D01*
X132190165Y-85308554D01*
X132235218Y-85269515D01*
X132391694Y-85189787D01*
X132552464Y-85072981D01*
X132692981Y-84932464D01*
X132809787Y-84771694D01*
X132889796Y-84614667D01*
X132937769Y-84563872D01*
X133005590Y-84547077D01*
X133071725Y-84569614D01*
X133110765Y-84614668D01*
X133190641Y-84771432D01*
X133217730Y-84808715D01*
X133217731Y-84808716D01*
X133780504Y-84245942D01*
X133796619Y-84306081D01*
G37*
%TD.AperFunction*%
%TA.AperFunction,Conductor*%
G36*
X133071446Y-82030165D02*
G01*
X133110484Y-82075218D01*
X133190213Y-82231694D01*
X133307019Y-82392464D01*
X133447536Y-82532981D01*
X133608306Y-82649787D01*
X133765332Y-82729796D01*
X133816127Y-82777769D01*
X133832922Y-82845590D01*
X133810385Y-82911725D01*
X133765332Y-82950764D01*
X133608566Y-83030641D01*
X133571283Y-83057729D01*
X133571282Y-83057730D01*
X134134058Y-83620504D01*
X134073919Y-83636619D01*
X133958080Y-83703498D01*
X133863498Y-83798080D01*
X133796619Y-83913919D01*
X133780504Y-83974057D01*
X133217730Y-83411282D01*
X133217729Y-83411283D01*
X133190641Y-83448566D01*
X133110764Y-83605332D01*
X133062790Y-83656127D01*
X132994969Y-83672922D01*
X132928834Y-83650384D01*
X132889796Y-83605332D01*
X132809787Y-83448306D01*
X132692981Y-83287536D01*
X132552464Y-83147019D01*
X132391694Y-83030213D01*
X132235218Y-82950484D01*
X132184423Y-82902510D01*
X132167628Y-82834689D01*
X132190165Y-82768554D01*
X132235218Y-82729515D01*
X132391694Y-82649787D01*
X132552464Y-82532981D01*
X132692981Y-82392464D01*
X132809787Y-82231694D01*
X132889515Y-82075218D01*
X132937490Y-82024423D01*
X133005311Y-82007628D01*
X133071446Y-82030165D01*
G37*
%TD.AperFunction*%
%TA.AperFunction,Conductor*%
G36*
X132782268Y-79728715D02*
G01*
X132809364Y-79691422D01*
X132889234Y-79534669D01*
X132937208Y-79483872D01*
X133005029Y-79467077D01*
X133071164Y-79489614D01*
X133110203Y-79534667D01*
X133190213Y-79691694D01*
X133307019Y-79852464D01*
X133447536Y-79992981D01*
X133608306Y-80109787D01*
X133726832Y-80170179D01*
X133764780Y-80189515D01*
X133815576Y-80237490D01*
X133832371Y-80305311D01*
X133809833Y-80371446D01*
X133764780Y-80410485D01*
X133608305Y-80490213D01*
X133447533Y-80607021D01*
X133307021Y-80747533D01*
X133190213Y-80908305D01*
X133110485Y-81064780D01*
X133062510Y-81115576D01*
X132994689Y-81132371D01*
X132928554Y-81109833D01*
X132889515Y-81064780D01*
X132843960Y-80975374D01*
X132809787Y-80908306D01*
X132692981Y-80747536D01*
X132552464Y-80607019D01*
X132391694Y-80490213D01*
X132234667Y-80410203D01*
X132183872Y-80362229D01*
X132167077Y-80294408D01*
X132189614Y-80228273D01*
X132234669Y-80189234D01*
X132391422Y-80109364D01*
X132428716Y-80082268D01*
X131865942Y-79519494D01*
X131926081Y-79503381D01*
X132041920Y-79436502D01*
X132136502Y-79341920D01*
X132203381Y-79226081D01*
X132219495Y-79165942D01*
X132782268Y-79728715D01*
G37*
%TD.AperFunction*%
%TA.AperFunction,Conductor*%
G36*
X133071446Y-71870165D02*
G01*
X133110484Y-71915218D01*
X133190213Y-72071694D01*
X133307019Y-72232464D01*
X133447536Y-72372981D01*
X133608306Y-72489787D01*
X133765332Y-72569796D01*
X133816127Y-72617769D01*
X133832922Y-72685590D01*
X133810385Y-72751725D01*
X133765332Y-72790764D01*
X133608566Y-72870641D01*
X133571283Y-72897729D01*
X133571282Y-72897730D01*
X134134058Y-73460504D01*
X134073919Y-73476619D01*
X133958080Y-73543498D01*
X133863498Y-73638080D01*
X133796619Y-73753919D01*
X133780504Y-73814058D01*
X133217730Y-73251282D01*
X133217729Y-73251283D01*
X133190641Y-73288566D01*
X133110764Y-73445332D01*
X133062790Y-73496127D01*
X132994969Y-73512922D01*
X132928834Y-73490384D01*
X132889796Y-73445332D01*
X132809787Y-73288306D01*
X132692981Y-73127536D01*
X132552464Y-72987019D01*
X132391694Y-72870213D01*
X132235218Y-72790484D01*
X132184423Y-72742510D01*
X132167628Y-72674689D01*
X132190165Y-72608554D01*
X132235218Y-72569515D01*
X132391694Y-72489787D01*
X132552464Y-72372981D01*
X132692981Y-72232464D01*
X132809787Y-72071694D01*
X132889515Y-71915218D01*
X132937490Y-71864423D01*
X133005311Y-71847628D01*
X133071446Y-71870165D01*
G37*
%TD.AperFunction*%
%TA.AperFunction,Conductor*%
G36*
X104412472Y-64654328D02*
G01*
X104468406Y-64696199D01*
X104488913Y-64738415D01*
X104510483Y-64818913D01*
X104544705Y-64946632D01*
X104650075Y-65201017D01*
X104650080Y-65201028D01*
X104683515Y-65258938D01*
X104787751Y-65439479D01*
X104787753Y-65439482D01*
X104787754Y-65439483D01*
X104955370Y-65657926D01*
X104955376Y-65657933D01*
X105150066Y-65852623D01*
X105150073Y-65852629D01*
X105188069Y-65881784D01*
X105368521Y-66020249D01*
X105521778Y-66108732D01*
X105606971Y-66157919D01*
X105606976Y-66157921D01*
X105606979Y-66157923D01*
X105861368Y-66263295D01*
X106127334Y-66334560D01*
X106215095Y-66346113D01*
X106278990Y-66374379D01*
X106317462Y-66432703D01*
X106318294Y-66502568D01*
X106286590Y-66556733D01*
X105741180Y-67102143D01*
X105741173Y-67102150D01*
X105738086Y-67105238D01*
X105738084Y-67105240D01*
X105626280Y-67217044D01*
X105602208Y-67258739D01*
X105547223Y-67353975D01*
X105506299Y-67506703D01*
X105506299Y-67506705D01*
X105506299Y-67635892D01*
X105486614Y-67702931D01*
X105469980Y-67723573D01*
X105242962Y-67950590D01*
X105225925Y-67887007D01*
X105160099Y-67772993D01*
X105067007Y-67679901D01*
X104952993Y-67614075D01*
X104889408Y-67597037D01*
X105549638Y-66936807D01*
X105549638Y-66936806D01*
X105487995Y-66892021D01*
X105487993Y-66892020D01*
X105293191Y-66792762D01*
X105293188Y-66792761D01*
X105085259Y-66725202D01*
X104869316Y-66691000D01*
X104650684Y-66691000D01*
X104434740Y-66725202D01*
X104329618Y-66759358D01*
X104259776Y-66761353D01*
X104199944Y-66725272D01*
X104169116Y-66662571D01*
X104167300Y-66641427D01*
X104167300Y-64848350D01*
X104175943Y-64818913D01*
X104182467Y-64788924D01*
X104186222Y-64783906D01*
X104186985Y-64781311D01*
X104203610Y-64760678D01*
X104281462Y-64682825D01*
X104342780Y-64649344D01*
X104412472Y-64654328D01*
G37*
%TD.AperFunction*%
%TD*%
M02*
