%TF.GenerationSoftware,KiCad,Pcbnew,9.0.4*%
%TF.CreationDate,2026-04-04T22:13:27-05:00*%
%TF.ProjectId,RaspberyBoardV1,52617370-6265-4727-9942-6f6172645631,rev?*%
%TF.SameCoordinates,Original*%
%TF.FileFunction,Soldermask,Top*%
%TF.FilePolarity,Negative*%
%FSLAX46Y46*%
G04 Gerber Fmt 4.6, Leading zero omitted, Abs format (unit mm)*
G04 Created by KiCad (PCBNEW 9.0.4) date 2026-04-04 22:13:27*
%MOMM*%
%LPD*%
G01*
G04 APERTURE LIST*
G04 Aperture macros list*
%AMRoundRect*
0 Rectangle with rounded corners*
0 $1 Rounding radius*
0 $2 $3 $4 $5 $6 $7 $8 $9 X,Y pos of 4 corners*
0 Add a 4 corners polygon primitive as box body*
4,1,4,$2,$3,$4,$5,$6,$7,$8,$9,$2,$3,0*
0 Add four circle primitives for the rounded corners*
1,1,$1+$1,$2,$3*
1,1,$1+$1,$4,$5*
1,1,$1+$1,$6,$7*
1,1,$1+$1,$8,$9*
0 Add four rect primitives between the rounded corners*
20,1,$1+$1,$2,$3,$4,$5,0*
20,1,$1+$1,$4,$5,$6,$7,0*
20,1,$1+$1,$6,$7,$8,$9,0*
20,1,$1+$1,$8,$9,$2,$3,0*%
G04 Aperture macros list end*
%ADD10C,1.728000*%
%ADD11RoundRect,0.102000X-0.762000X0.762000X-0.762000X-0.762000X0.762000X-0.762000X0.762000X0.762000X0*%
%ADD12C,6.404000*%
%ADD13R,1.700000X1.700000*%
%ADD14C,1.700000*%
%ADD15RoundRect,0.250000X0.450000X-0.262500X0.450000X0.262500X-0.450000X0.262500X-0.450000X-0.262500X0*%
%ADD16RoundRect,0.250000X0.600000X0.725000X-0.600000X0.725000X-0.600000X-0.725000X0.600000X-0.725000X0*%
%ADD17O,1.700000X1.950000*%
%ADD18C,1.982000*%
%ADD19C,3.404000*%
%ADD20RoundRect,0.149250X-1.847750X-0.447750X1.847750X-0.447750X1.847750X0.447750X-1.847750X0.447750X0*%
%ADD21RoundRect,0.102000X-3.810000X-5.420000X3.810000X-5.420000X3.810000X5.420000X-3.810000X5.420000X0*%
%ADD22RoundRect,0.250000X-0.650000X0.325000X-0.650000X-0.325000X0.650000X-0.325000X0.650000X0.325000X0*%
%ADD23RoundRect,0.250000X-0.475000X0.250000X-0.475000X-0.250000X0.475000X-0.250000X0.475000X0.250000X0*%
%ADD24RoundRect,0.250000X-0.262500X-0.450000X0.262500X-0.450000X0.262500X0.450000X-0.262500X0.450000X0*%
%ADD25C,1.397000*%
%ADD26RoundRect,0.250000X0.750000X-0.600000X0.750000X0.600000X-0.750000X0.600000X-0.750000X-0.600000X0*%
%ADD27O,2.000000X1.700000*%
%ADD28RoundRect,0.250000X-0.625000X0.350000X-0.625000X-0.350000X0.625000X-0.350000X0.625000X0.350000X0*%
%ADD29O,1.750000X1.200000*%
G04 APERTURE END LIST*
D10*
%TO.C,REF\u002A\u002A*%
X134270000Y-68870000D03*
D11*
X131730000Y-68870000D03*
D10*
X131730000Y-71410000D03*
X134270000Y-71410000D03*
X131730000Y-73950000D03*
X134270000Y-73950000D03*
X131730000Y-76490000D03*
X134270000Y-76490000D03*
X131730000Y-79030000D03*
X134270000Y-79030000D03*
X131730000Y-81570000D03*
X134270000Y-81570000D03*
X131730000Y-84110000D03*
X134270000Y-84110000D03*
X131730000Y-86650000D03*
X134270000Y-86650000D03*
X131730000Y-89190000D03*
X134270000Y-89190000D03*
X131730000Y-91730000D03*
X134270000Y-91730000D03*
X131730000Y-94270000D03*
X134270000Y-94270000D03*
X131730000Y-96810000D03*
X134270000Y-96810000D03*
X131730000Y-99350000D03*
X134270000Y-99350000D03*
X131730000Y-101890000D03*
X134270000Y-101890000D03*
X131730000Y-104430000D03*
X134270000Y-104430000D03*
X131730000Y-106970000D03*
X134270000Y-106970000D03*
X131730000Y-109510000D03*
X134270000Y-109510000D03*
X131730000Y-112050000D03*
X134270000Y-112050000D03*
X131730000Y-114590000D03*
X134270000Y-114590000D03*
X131730000Y-117130000D03*
X134270000Y-117130000D03*
D12*
X133000000Y-64000000D03*
X133000000Y-122000000D03*
X84000000Y-122000000D03*
X84000000Y-64000000D03*
%TD*%
D13*
%TO.C,J2*%
X109000000Y-138460000D03*
D14*
X109000000Y-141000000D03*
X109000000Y-143540000D03*
%TD*%
D15*
%TO.C,2k*%
X134000000Y-131000000D03*
X134000000Y-129175000D03*
%TD*%
D16*
%TO.C,REF\u002A\u002A*%
X94750000Y-138000000D03*
D17*
X92250000Y-138000000D03*
X89750000Y-138000000D03*
X87250000Y-138000000D03*
%TD*%
D13*
%TO.C,US2*%
X128000000Y-135920000D03*
D14*
X128000000Y-138460000D03*
X128000000Y-141000000D03*
X128000000Y-143540000D03*
%TD*%
D15*
%TO.C,2k*%
X121000000Y-130912500D03*
X121000000Y-129087500D03*
%TD*%
D18*
%TO.C,U1*%
X109840000Y-68080000D03*
X109840000Y-70620000D03*
X109840000Y-73160000D03*
X109840000Y-75700000D03*
X122540000Y-63000000D03*
X104760000Y-68080000D03*
X104760000Y-70620000D03*
X104760000Y-73160000D03*
X104760000Y-75700000D03*
X120000000Y-63000000D03*
D19*
X125588000Y-64270000D03*
X125588000Y-120150000D03*
X106538000Y-64270000D03*
X106538000Y-120150000D03*
D18*
X117460000Y-63000000D03*
X114920000Y-63000000D03*
X109840000Y-63000000D03*
X107300000Y-68080000D03*
X107300000Y-70620000D03*
X107300000Y-73160000D03*
X107300000Y-75700000D03*
X112380000Y-63000000D03*
%TD*%
D20*
%TO.C,U3*%
X110600000Y-107920000D03*
X110600000Y-110460000D03*
X110600000Y-113000000D03*
D21*
X121480000Y-110460000D03*
%TD*%
D13*
%TO.C,J1*%
X105000000Y-138460000D03*
D14*
X105000000Y-141000000D03*
X105000000Y-143540000D03*
%TD*%
D22*
%TO.C,10uF T*%
X107000000Y-107525000D03*
X107000000Y-110475000D03*
%TD*%
D23*
%TO.C,10uF*%
X127000000Y-68050000D03*
X127000000Y-69950000D03*
%TD*%
D15*
%TO.C,1k*%
X134000000Y-135000000D03*
X134000000Y-133175000D03*
%TD*%
D24*
%TO.C,2k*%
X89000000Y-102000000D03*
X90825000Y-102000000D03*
%TD*%
D25*
%TO.C,KILL SWITCH*%
X85000000Y-98000000D03*
X87500000Y-98000000D03*
X90000000Y-98000000D03*
%TD*%
D23*
%TO.C,10uF*%
X107000000Y-113050000D03*
X107000000Y-114950000D03*
%TD*%
D24*
%TO.C,1k*%
X85000000Y-102000000D03*
X86825000Y-102000000D03*
%TD*%
D13*
%TO.C,J4*%
X117000000Y-138460000D03*
D14*
X117000000Y-141000000D03*
X117000000Y-143540000D03*
%TD*%
D26*
%TO.C,REF\u002A\u002A*%
X88532500Y-110250000D03*
D27*
X88532500Y-107750000D03*
%TD*%
D28*
%TO.C,REF\u002A\u002A*%
X88000000Y-76000000D03*
D29*
X88000000Y-78000000D03*
X88000000Y-80000000D03*
X88000000Y-82000000D03*
X88000000Y-84000000D03*
X88000000Y-86000000D03*
X88000000Y-88000000D03*
X88000000Y-90000000D03*
%TD*%
D15*
%TO.C,1k*%
X121000000Y-134912500D03*
X121000000Y-133087500D03*
%TD*%
D13*
%TO.C,J3*%
X113000000Y-138460000D03*
D14*
X113000000Y-141000000D03*
X113000000Y-143540000D03*
%TD*%
D13*
%TO.C,US1*%
X124000000Y-135920000D03*
D14*
X124000000Y-138460000D03*
X124000000Y-141000000D03*
X124000000Y-143540000D03*
%TD*%
M02*
