%TF.GenerationSoftware,KiCad,Pcbnew,8.0.6*%
%TF.CreationDate,2025-03-28T16:21:50-05:00*%
%TF.ProjectId,Initial Schematic,496e6974-6961-46c2-9053-6368656d6174,rev?*%
%TF.SameCoordinates,Original*%
%TF.FileFunction,Soldermask,Bot*%
%TF.FilePolarity,Negative*%
%FSLAX46Y46*%
G04 Gerber Fmt 4.6, Leading zero omitted, Abs format (unit mm)*
G04 Created by KiCad (PCBNEW 8.0.6) date 2025-03-28 16:21:50*
%MOMM*%
%LPD*%
G01*
G04 APERTURE LIST*
G04 Aperture macros list*
%AMRoundRect*
0 Rectangle with rounded corners*
0 $1 Rounding radius*
0 $2 $3 $4 $5 $6 $7 $8 $9 X,Y pos of 4 corners*
0 Add a 4 corners polygon primitive as box body*
4,1,4,$2,$3,$4,$5,$6,$7,$8,$9,$2,$3,0*
0 Add four circle primitives for the rounded corners*
1,1,$1+$1,$2,$3*
1,1,$1+$1,$4,$5*
1,1,$1+$1,$6,$7*
1,1,$1+$1,$8,$9*
0 Add four rect primitives between the rounded corners*
20,1,$1+$1,$2,$3,$4,$5,0*
20,1,$1+$1,$4,$5,$6,$7,0*
20,1,$1+$1,$6,$7,$8,$9,0*
20,1,$1+$1,$8,$9,$2,$3,0*%
G04 Aperture macros list end*
%ADD10C,1.778000*%
%ADD11C,2.286000*%
%ADD12O,1.559600X3.017600*%
%ADD13C,3.301600*%
%ADD14C,3.001600*%
%ADD15O,2.517600X1.309600*%
%ADD16RoundRect,0.050800X-1.250000X1.250000X-1.250000X-1.250000X1.250000X-1.250000X1.250000X1.250000X0*%
%ADD17C,2.032000*%
%ADD18C,1.600000*%
%ADD19RoundRect,0.250000X-0.625000X0.350000X-0.625000X-0.350000X0.625000X-0.350000X0.625000X0.350000X0*%
%ADD20O,1.750000X1.200000*%
%ADD21C,1.879600*%
%ADD22RoundRect,0.050800X0.889000X0.889000X-0.889000X0.889000X-0.889000X-0.889000X0.889000X-0.889000X0*%
%ADD23C,2.750000*%
%ADD24R,1.700000X1.700000*%
%ADD25O,1.700000X1.700000*%
%ADD26C,1.728000*%
G04 APERTURE END LIST*
D10*
%TO.C,Adafruit_Powerboost1*%
X143545777Y-77101320D03*
X143545777Y-79641320D03*
X143545777Y-82181320D03*
X143545777Y-84721320D03*
X143545777Y-87261320D03*
X143545777Y-89801320D03*
X143545777Y-92341320D03*
X143545777Y-94881320D03*
D11*
X152323277Y-98183320D03*
X155823277Y-98183320D03*
D12*
X155023277Y-95473320D03*
X153023277Y-95473320D03*
X157523277Y-95473320D03*
D13*
X162595777Y-66814320D03*
X144815777Y-66814320D03*
D14*
X147453277Y-98183320D03*
X160593277Y-98183320D03*
D15*
X157609777Y-69492320D03*
X149801777Y-69492320D03*
D16*
X157305777Y-66692320D03*
X150105777Y-66692320D03*
D12*
X150523277Y-95473320D03*
%TD*%
D17*
%TO.C,Servo1*%
X163675000Y-60365000D03*
X163675000Y-57825000D03*
X163675000Y-55285000D03*
%TD*%
%TO.C,BNO0551*%
X76690000Y-77395000D03*
X79230000Y-77395000D03*
X81770000Y-77395000D03*
X84310000Y-77395000D03*
X74150000Y-95175000D03*
X76690000Y-95175000D03*
X79230000Y-95175000D03*
X81770000Y-95175000D03*
X84310000Y-95175000D03*
X86850000Y-95175000D03*
%TD*%
D18*
%TO.C,C2*%
X132675000Y-93325000D03*
X134675000Y-93325000D03*
%TD*%
D19*
%TO.C,Terraranger_Evo_LIDAR1*%
X186700000Y-78650000D03*
D20*
X186700000Y-80650000D03*
X186700000Y-82650000D03*
X186700000Y-84650000D03*
X186700000Y-86650000D03*
X186700000Y-88650000D03*
X186700000Y-90650000D03*
X186700000Y-92650000D03*
X186700000Y-94650000D03*
%TD*%
D19*
%TO.C,Terraranger_Evo_LIDAR2*%
X186700000Y-57300000D03*
D20*
X186700000Y-59300000D03*
X186700000Y-61300000D03*
X186700000Y-63300000D03*
X186700000Y-65300000D03*
X186700000Y-67300000D03*
X186700000Y-69300000D03*
X186700000Y-71300000D03*
X186700000Y-73300000D03*
%TD*%
D17*
%TO.C,Servo2*%
X142175000Y-60405000D03*
X142175000Y-57865000D03*
X142175000Y-55325000D03*
%TD*%
D21*
%TO.C,RFM95WLoRaRadio1*%
X55909000Y-70564000D03*
X55909000Y-68024000D03*
X55909000Y-65484000D03*
X55909000Y-62944000D03*
X55909000Y-60404000D03*
X55909000Y-57864000D03*
X55909000Y-55324000D03*
X55909000Y-52784000D03*
X55909000Y-50244000D03*
X30509000Y-70564000D03*
X30509000Y-68024000D03*
X30509000Y-65484000D03*
X30509000Y-62944000D03*
X30509000Y-60404000D03*
%TD*%
D22*
%TO.C,MPL3115A2Barometer1*%
X112770500Y-82570000D03*
D21*
X112770500Y-80030000D03*
X112770500Y-77490000D03*
X112770500Y-74950000D03*
X112770500Y-72410000D03*
X112770500Y-69870000D03*
X112770500Y-67330000D03*
%TD*%
D23*
%TO.C,J1*%
X133960000Y-48794000D03*
X133960000Y-97794000D03*
X191960000Y-48794000D03*
X191960000Y-97794000D03*
D24*
X138810000Y-50044000D03*
D25*
X138810000Y-47504000D03*
X141350000Y-50044000D03*
X141350000Y-47504000D03*
X143890000Y-50044000D03*
X143890000Y-47504000D03*
X146430000Y-50044000D03*
X146430000Y-47504000D03*
X148970000Y-50044000D03*
X148970000Y-47504000D03*
X151510000Y-50044000D03*
X151510000Y-47504000D03*
X154050000Y-50044000D03*
X154050000Y-47504000D03*
X156590000Y-50044000D03*
X156590000Y-47504000D03*
X159130000Y-50044000D03*
X159130000Y-47504000D03*
X161670000Y-50044000D03*
X161670000Y-47504000D03*
X164210000Y-50044000D03*
X164210000Y-47504000D03*
X166750000Y-50044000D03*
X166750000Y-47504000D03*
X169290000Y-50044000D03*
X169290000Y-47504000D03*
X171830000Y-50044000D03*
X171830000Y-47504000D03*
X174370000Y-50044000D03*
X174370000Y-47504000D03*
D26*
X176900000Y-50071000D03*
D25*
X176910000Y-47504000D03*
D26*
X179440000Y-50071000D03*
D25*
X179450000Y-47504000D03*
D26*
X181980000Y-50071000D03*
D25*
X181990000Y-47504000D03*
D26*
X184520000Y-50071000D03*
X184520000Y-47531000D03*
X187060000Y-50071000D03*
X187060000Y-47531000D03*
X193160000Y-56194000D03*
X193160000Y-53654000D03*
X190620000Y-56194000D03*
X190620000Y-53654000D03*
%TD*%
D18*
%TO.C,C1*%
X138175000Y-93325000D03*
X140175000Y-93325000D03*
%TD*%
D21*
%TO.C,PA1616SGPS1*%
X61508000Y-97810000D03*
X61508000Y-95270000D03*
X61508000Y-92730000D03*
X61508000Y-90190000D03*
X61508000Y-87650000D03*
X61508000Y-85110000D03*
X61508000Y-82570000D03*
X61508000Y-80030000D03*
X61508000Y-77490000D03*
%TD*%
D17*
%TO.C,Kill_Switch1*%
X106800000Y-94005000D03*
X106800000Y-88925000D03*
%TD*%
%TO.C,BNO55*%
X76690000Y-51602500D03*
X79230000Y-51602500D03*
X81770000Y-51602500D03*
X84310000Y-51602500D03*
X74150000Y-69382500D03*
X76690000Y-69382500D03*
X79230000Y-69382500D03*
X81770000Y-69382500D03*
X84310000Y-69382500D03*
X86850000Y-69382500D03*
%TD*%
%TO.C,HC-SR04_Ultrasonic1*%
X175675000Y-91445000D03*
X175675000Y-88905000D03*
X175675000Y-86365000D03*
X175675000Y-83825000D03*
%TD*%
%TO.C,Controller1*%
X122175000Y-73825000D03*
X122175000Y-71285000D03*
X122175000Y-68745000D03*
%TD*%
%TO.C,HC-SR04_Ultrasonic2*%
X175675000Y-69825000D03*
X175675000Y-67285000D03*
X175675000Y-64745000D03*
X175675000Y-62205000D03*
%TD*%
%TO.C,Controller2*%
X122175000Y-61325000D03*
X122175000Y-58785000D03*
X122175000Y-56245000D03*
%TD*%
M02*
