M48
; DRILL file {KiCad 8.0.6} date 2025-03-28T19:02:09-0500
; FORMAT={-:-/ absolute / inch / decimal}
; #@! TF.CreationDate,2025-03-28T19:02:09-05:00
; #@! TF.GenerationSoftware,Kicad,Pcbnew,8.0.6
; #@! TF.FileFunction,Plated,1,2,PTH
FMAT,2
INCH
; #@! TA.AperFunction,Plated,PTH,ViaDrill
T1C0.0118
; #@! TA.AperFunction,Plated,PTH,ComponentDrill
T2C0.0236
; #@! TA.AperFunction,Plated,PTH,ComponentDrill
T3C0.0276
; #@! TA.AperFunction,Plated,PTH,ComponentDrill
T4C0.0295
; #@! TA.AperFunction,Plated,PTH,ComponentDrill
T5C0.0315
; #@! TA.AperFunction,Plated,PTH,ComponentDrill
T6C0.0374
; #@! TA.AperFunction,Plated,PTH,ComponentDrill
T7C0.0394
; #@! TA.AperFunction,Plated,PTH,ComponentDrill
T8C0.0400
; #@! TA.AperFunction,Plated,PTH,ComponentDrill
T9C0.0906
; #@! TA.AperFunction,Plated,PTH,ComponentDrill
T10C0.0984
%
G90
G05
T1
X2.5236Y-3.3868
X2.5965Y-3.0787
X2.6329Y-3.2352
X2.8573Y-2.685
X2.878Y-2.5984
X3.2185Y-2.9429
X3.2411Y-3.5187
X3.4252Y-3.1407
X3.4252Y-3.2963
X4.0945Y-2.4813
X4.1427Y-2.4508
X4.4537Y-3.4163
X4.5118Y-3.3819
X4.5502Y-3.4429
X4.561Y-2.1142
X4.5799Y-2.1394
X4.812Y-3.2579
X4.937Y-2.9803
X4.9793Y-3.0217
X5.0207Y-3.1476
X5.0886Y-2.6614
X5.1358Y-2.6358
X5.1919Y-2.8711
X5.1978Y-2.9075
X5.2323Y-2.7067
X5.2717Y-3.4291
X5.2929Y-2.7161
X5.3465Y-2.2516
X5.3858Y-2.0974
X5.44Y-2.2545
X5.5148Y-2.0541
X5.7953Y-2.1496
X5.8189Y-2.3545
X5.8566Y-2.235
X5.8839Y-2.4134
X5.8868Y-2.2441
X5.8888Y-2.3524
X6.003Y-2.1713
X6.0846Y-2.0709
X6.0915Y-2.1526
X6.2028Y-2.0994
X6.503Y-2.0699
X6.6486Y-2.3002
X6.9222Y-3.123
X6.9562Y-3.0556
X7.0305Y-2.3553
X7.0659Y-2.3652
X7.0778Y-2.5738
X7.0797Y-2.19
X7.0896Y-2.4046
X7.1024Y-2.6644
X7.1191Y-2.1663
X7.123Y-2.4026
X7.1644Y-2.1112
X7.1966Y-2.0726
T2
X5.9097Y-2.6257
X6.1931Y-2.6257
T3
X5.9215Y-2.7359
X6.1813Y-2.7359
T4
X7.3504Y-2.2559
X7.3504Y-2.3346
X7.3504Y-2.4134
X7.3504Y-2.4921
X7.3504Y-2.5709
X7.3504Y-2.6496
X7.3504Y-2.7283
X7.3504Y-2.8071
X7.3504Y-2.8858
X7.3504Y-3.0965
X7.3504Y-3.1752
X7.3504Y-3.2539
X7.3504Y-3.3327
X7.3504Y-3.4114
X7.3504Y-3.4902
X7.3504Y-3.5689
X7.3504Y-3.6476
X7.3504Y-3.7264
T5
X5.2234Y-3.6742
X5.3022Y-3.6742
X5.44Y-3.6742
X5.5187Y-3.6742
T6
X5.9261Y-3.7588
X6.0245Y-3.7588
X6.1033Y-3.7588
X6.2017Y-3.7588
T7
X1.2011Y-2.3781
X1.2011Y-2.4781
X1.2011Y-2.5781
X1.2011Y-2.6781
X1.2011Y-2.7781
X2.2011Y-1.9781
X2.2011Y-2.0781
X2.2011Y-2.1781
X2.2011Y-2.2781
X2.2011Y-2.3781
X2.2011Y-2.4781
X2.2011Y-2.5781
X2.2011Y-2.6781
X2.2011Y-2.7781
X2.4216Y-3.0508
X2.4216Y-3.1508
X2.4216Y-3.2508
X2.4216Y-3.3508
X2.4216Y-3.4508
X2.4216Y-3.5508
X2.4216Y-3.6508
X2.4216Y-3.7508
X2.4216Y-3.8508
X2.9193Y-2.7316
X2.9193Y-3.747
X3.0193Y-2.0316
X3.0193Y-2.7316
X3.0193Y-3.047
X3.0193Y-3.747
X3.1193Y-2.0316
X3.1193Y-2.7316
X3.1193Y-3.047
X3.1193Y-3.747
X3.2193Y-2.0316
X3.2193Y-2.7316
X3.2193Y-3.047
X3.2193Y-3.747
X3.3193Y-2.0316
X3.3193Y-2.7316
X3.3193Y-3.047
X3.3193Y-3.747
X3.4193Y-2.7316
X3.4193Y-3.747
X4.2047Y-3.501
X4.2047Y-3.701
X4.4398Y-2.6508
X4.4398Y-2.7508
X4.4398Y-2.8508
X4.4398Y-2.9508
X4.4398Y-3.0508
X4.4398Y-3.1508
X4.4398Y-3.2508
X4.81Y-2.2144
X4.81Y-2.3144
X4.81Y-2.4144
X4.81Y-2.7065
X4.81Y-2.8065
X4.81Y-2.9065
X5.465Y-1.8702
X5.465Y-1.9702
X5.565Y-1.8702
X5.565Y-1.9702
X5.5974Y-2.1781
X5.5974Y-2.2781
X5.5974Y-2.3781
X5.6514Y-3.0355
X5.6514Y-3.1355
X5.6514Y-3.2355
X5.6514Y-3.3355
X5.6514Y-3.4355
X5.6514Y-3.5355
X5.6514Y-3.6355
X5.6514Y-3.7355
X5.665Y-1.8702
X5.665Y-1.9702
X5.765Y-1.8702
X5.765Y-1.9702
X5.865Y-1.8702
X5.865Y-1.9702
X5.965Y-1.8702
X5.965Y-1.9702
X5.997Y-3.8655
X6.065Y-1.8702
X6.065Y-1.9702
X6.1348Y-3.8655
X6.165Y-1.8702
X6.165Y-1.9702
X6.265Y-1.8702
X6.265Y-1.9702
X6.365Y-1.8702
X6.365Y-1.9702
X6.4439Y-2.1766
X6.4439Y-2.2766
X6.4439Y-2.3766
X6.465Y-1.8702
X6.465Y-1.9702
X6.565Y-1.8702
X6.565Y-1.9702
X6.665Y-1.8702
X6.665Y-1.9702
X6.765Y-1.8702
X6.765Y-1.9702
X6.865Y-1.8702
X6.865Y-1.9702
X6.9163Y-2.449
X6.9163Y-2.549
X6.9163Y-2.649
X6.9163Y-2.749
X6.9163Y-3.3002
X6.9163Y-3.4002
X6.9163Y-3.5002
X6.9163Y-3.6002
X6.965Y-1.8702
X7.065Y-1.8702
X7.165Y-1.8702
T8
X6.9646Y-1.9713
X7.0646Y-1.9713
X7.1646Y-1.9713
X7.2646Y-1.8713
X7.2646Y-1.9713
X7.3646Y-1.8713
X7.3646Y-1.9713
X7.5047Y-2.1124
X7.5047Y-2.2124
X7.6047Y-2.1124
X7.6047Y-2.2124
T9
X5.8052Y-3.8655
X6.3226Y-3.8655
T10
X5.7014Y-2.6305
X6.4014Y-2.6305
M30
