M48
; DRILL file {KiCad 9.0.4} date 2026-04-04T22:26:44-0500
; FORMAT={-:-/ absolute / metric / decimal}
; #@! TF.CreationDate,2026-04-04T22:26:44-05:00
; #@! TF.GenerationSoftware,Kicad,Pcbnew,9.0.4
; #@! TF.FileFunction,Plated,1,2,PTH
FMAT,2
METRIC
; #@! TA.AperFunction,Plated,PTH,ViaDrill
T1C0.300
; #@! TA.AperFunction,Plated,PTH,ComponentDrill
T2C0.750
; #@! TA.AperFunction,Plated,PTH,ComponentDrill
T3C1.000
; #@! TA.AperFunction,Plated,PTH,ComponentDrill
T4C2.500
; #@! TA.AperFunction,Plated,PTH,ComponentDrill
T5C2.750
%
G90
G05
T1
X152.0Y-101.0
X152.0Y-104.0
X157.0Y-97.0
X159.0Y-78.0
X160.0Y-90.0
X161.0Y-78.0
X163.0Y-81.0
X165.0Y-59.0
X168.0Y-79.0
X169.0Y-81.0
X170.0Y-86.0
T2
X138.0Y-99.0
X140.0Y-99.0
X142.0Y-99.0
X144.0Y-99.0
X146.0Y-99.0
X148.0Y-99.0
X150.0Y-99.0
X152.0Y-99.0
X154.0Y-99.0
X160.0Y-99.0
X162.0Y-99.0
X164.0Y-99.0
X166.0Y-99.0
X168.0Y-99.0
X170.0Y-99.0
X172.0Y-99.0
X173.0Y-47.0
X173.0Y-49.0
X173.0Y-51.0
X173.0Y-53.0
X173.0Y-55.0
X173.0Y-57.0
X173.0Y-59.0
X173.0Y-61.0
X174.0Y-99.0
X176.0Y-99.0
T3
X126.609Y-35.254
X126.609Y-37.794
X126.609Y-40.334
X126.609Y-42.874
X126.609Y-45.414
X132.65Y-75.768
X135.19Y-75.768
X135.19Y-93.548
X137.73Y-75.768
X137.73Y-93.548
X140.27Y-75.768
X140.27Y-93.548
X142.81Y-75.768
X142.81Y-93.548
X145.35Y-75.768
X152.009Y-25.094
X152.009Y-27.634
X152.009Y-30.174
X152.009Y-32.714
X152.009Y-35.254
X152.009Y-37.794
X152.009Y-40.334
X152.009Y-42.874
X152.009Y-45.414
X157.38Y-41.195
X157.718Y-50.84
X157.718Y-53.38
X157.718Y-55.92
X157.718Y-58.46
X157.718Y-61.0
X157.718Y-63.54
X157.718Y-66.08
X157.718Y-68.62
X157.718Y-71.16
X159.92Y-41.195
X160.06Y-75.768
X162.46Y-41.195
X162.6Y-75.768
X162.6Y-93.548
X165.0Y-41.195
X165.14Y-75.768
X165.14Y-93.548
X167.54Y-41.195
X167.68Y-75.768
X167.68Y-93.548
X170.08Y-41.195
X170.22Y-75.768
X170.22Y-93.548
X172.468Y-67.75
X172.468Y-70.25
X172.62Y-41.195
X172.76Y-75.768
T4
X128.0Y-50.84
X128.0Y-71.16
X128.205Y-77.037
X128.205Y-92.277
X149.795Y-77.037
X149.795Y-92.277
X155.615Y-77.037
X155.615Y-92.277
X158.015Y-28.495
X171.985Y-28.495
X177.205Y-77.037
X177.205Y-92.277
T5
X128.0Y-25.0
X128.0Y-83.0
X177.0Y-25.0
X177.0Y-83.0
M30
