%TF.GenerationSoftware,KiCad,Pcbnew,9.0.4*%
%TF.CreationDate,2026-04-04T22:26:47-05:00*%
%TF.ProjectId,sensor,73656e73-6f72-42e6-9b69-6361645f7063,rev?*%
%TF.SameCoordinates,Original*%
%TF.FileFunction,Paste,Top*%
%TF.FilePolarity,Positive*%
%FSLAX46Y46*%
G04 Gerber Fmt 4.6, Leading zero omitted, Abs format (unit mm)*
G04 Created by KiCad (PCBNEW 9.0.4) date 2026-04-04 22:26:47*
%MOMM*%
%LPD*%
G01*
G04 APERTURE LIST*
G04 Aperture macros list*
%AMRoundRect*
0 Rectangle with rounded corners*
0 $1 Rounding radius*
0 $2 $3 $4 $5 $6 $7 $8 $9 X,Y pos of 4 corners*
0 Add a 4 corners polygon primitive as box body*
4,1,4,$2,$3,$4,$5,$6,$7,$8,$9,$2,$3,0*
0 Add four circle primitives for the rounded corners*
1,1,$1+$1,$2,$3*
1,1,$1+$1,$4,$5*
1,1,$1+$1,$6,$7*
1,1,$1+$1,$8,$9*
0 Add four rect primitives between the rounded corners*
20,1,$1+$1,$2,$3,$4,$5,0*
20,1,$1+$1,$4,$5,$6,$7,0*
20,1,$1+$1,$6,$7,$8,$9,0*
20,1,$1+$1,$8,$9,$2,$3,0*%
G04 Aperture macros list end*
%ADD10C,0.010000*%
%ADD11RoundRect,0.250000X-0.450000X0.262500X-0.450000X-0.262500X0.450000X-0.262500X0.450000X0.262500X0*%
%ADD12RoundRect,0.250000X0.250000X0.475000X-0.250000X0.475000X-0.250000X-0.475000X0.250000X-0.475000X0*%
%ADD13R,2.830000X0.970000*%
%ADD14RoundRect,0.250000X-0.262500X-0.450000X0.262500X-0.450000X0.262500X0.450000X-0.262500X0.450000X0*%
%ADD15RoundRect,0.250000X-0.250000X-0.475000X0.250000X-0.475000X0.250000X0.475000X-0.250000X0.475000X0*%
G04 APERTURE END LIST*
D10*
%TO.C,U1*%
X137017000Y-60775000D02*
X135557000Y-60775000D01*
X135557000Y-59465000D01*
X137017000Y-59465000D01*
X137017000Y-60775000D01*
G36*
X137017000Y-60775000D02*
G01*
X135557000Y-60775000D01*
X135557000Y-59465000D01*
X137017000Y-59465000D01*
X137017000Y-60775000D01*
G37*
X137017000Y-62655000D02*
X135557000Y-62655000D01*
X135557000Y-61345000D01*
X137017000Y-61345000D01*
X137017000Y-62655000D01*
G36*
X137017000Y-62655000D02*
G01*
X135557000Y-62655000D01*
X135557000Y-61345000D01*
X137017000Y-61345000D01*
X137017000Y-62655000D01*
G37*
X137017000Y-64535000D02*
X135557000Y-64535000D01*
X135557000Y-63225000D01*
X137017000Y-63225000D01*
X137017000Y-64535000D01*
G36*
X137017000Y-64535000D02*
G01*
X135557000Y-64535000D01*
X135557000Y-63225000D01*
X137017000Y-63225000D01*
X137017000Y-64535000D01*
G37*
X139047000Y-60775000D02*
X137587000Y-60775000D01*
X137587000Y-59465000D01*
X139047000Y-59465000D01*
X139047000Y-60775000D01*
G36*
X139047000Y-60775000D02*
G01*
X137587000Y-60775000D01*
X137587000Y-59465000D01*
X139047000Y-59465000D01*
X139047000Y-60775000D01*
G37*
X139047000Y-62655000D02*
X137587000Y-62655000D01*
X137587000Y-61345000D01*
X139047000Y-61345000D01*
X139047000Y-62655000D01*
G36*
X139047000Y-62655000D02*
G01*
X137587000Y-62655000D01*
X137587000Y-61345000D01*
X139047000Y-61345000D01*
X139047000Y-62655000D01*
G37*
X139047000Y-64535000D02*
X137587000Y-64535000D01*
X137587000Y-63225000D01*
X139047000Y-63225000D01*
X139047000Y-64535000D01*
G36*
X139047000Y-64535000D02*
G01*
X137587000Y-64535000D01*
X137587000Y-63225000D01*
X139047000Y-63225000D01*
X139047000Y-64535000D01*
G37*
X141077000Y-60775000D02*
X139617000Y-60775000D01*
X139617000Y-59465000D01*
X141077000Y-59465000D01*
X141077000Y-60775000D01*
G36*
X141077000Y-60775000D02*
G01*
X139617000Y-60775000D01*
X139617000Y-59465000D01*
X141077000Y-59465000D01*
X141077000Y-60775000D01*
G37*
X141077000Y-62655000D02*
X139617000Y-62655000D01*
X139617000Y-61345000D01*
X141077000Y-61345000D01*
X141077000Y-62655000D01*
G36*
X141077000Y-62655000D02*
G01*
X139617000Y-62655000D01*
X139617000Y-61345000D01*
X141077000Y-61345000D01*
X141077000Y-62655000D01*
G37*
X141077000Y-64535000D02*
X139617000Y-64535000D01*
X139617000Y-63225000D01*
X141077000Y-63225000D01*
X141077000Y-64535000D01*
G36*
X141077000Y-64535000D02*
G01*
X139617000Y-64535000D01*
X139617000Y-63225000D01*
X141077000Y-63225000D01*
X141077000Y-64535000D01*
G37*
%TD*%
D11*
%TO.C,2k Ohm*%
X165000000Y-87000000D03*
X165000000Y-88825000D03*
%TD*%
D12*
%TO.C,10uF*%
X146777000Y-57000000D03*
X144877000Y-57000000D03*
%TD*%
D13*
%TO.C,U1*%
X144967000Y-64290000D03*
X144967000Y-59710000D03*
%TD*%
D14*
%TO.C,1k Ohm*%
X161175000Y-85912500D03*
X163000000Y-85912500D03*
%TD*%
D15*
%TO.C,0.33uF*%
X144367000Y-67000000D03*
X146267000Y-67000000D03*
%TD*%
M02*
